<svg version="1.1" id="Layer_1" xmlns="http://www.w3.org/2000/svg" x="0px" y="0px"
	 width="100%" viewBox="0 0 192 192" enable-background="new 0 0 192 192" xml:space="preserve">
<path fill="#000000" opacity="0.000000" stroke="none"
	d="
M105.000000,193.000000
	C70.000000,193.000000 35.500004,193.000000 1.000005,193.000000
	C1.000003,129.000000 1.000003,65.000015 1.000002,1.000013
	C64.999992,1.000009 128.999985,1.000009 192.999969,1.000004
	C192.999985,64.999985 192.999985,128.999969 193.000000,192.999969
	C163.833328,193.000000 134.666672,193.000000 105.000000,193.000000
M86.500000,170.966248
	C101.584877,170.651566 116.769539,171.312576 131.730103,169.782440
	C151.741837,167.735657 167.803543,148.443436 167.930527,127.528755
	C168.115524,97.055580 167.973709,66.580391 167.964157,36.106064
	C167.961365,27.184143 165.804520,25.020910 156.908371,25.019243
	C127.100128,25.013659 97.288544,24.778198 67.486160,25.195929
	C60.613216,25.292263 53.481045,26.816420 46.976036,29.118570
	C33.175804,34.002533 21.940178,50.711346 21.977030,65.383858
	C22.056913,97.190216 22.010113,128.996887 22.013861,160.803436
	C22.014874,169.392410 23.565880,170.966797 32.044998,170.966904
	C49.863331,170.967148 67.681664,170.966507 86.500000,170.966248
z"/>
<path fill="#6768AA" opacity="1.000000" stroke="none"
	d="
M86.000000,170.966248
	C67.681664,170.966507 49.863331,170.967148 32.044998,170.966904
	C23.565880,170.966797 22.014874,169.392410 22.013861,160.803436
	C22.010113,128.996887 22.056913,97.190216 21.977030,65.383858
	C21.940178,50.711346 33.175804,34.002533 46.976036,29.118570
	C53.481045,26.816420 60.613216,25.292263 67.486160,25.195929
	C97.288544,24.778198 127.100128,25.013659 156.908371,25.019243
	C165.804520,25.020910 167.961365,27.184143 167.964157,36.106064
	C167.973709,66.580391 168.115524,97.055580 167.930527,127.528755
	C167.803543,148.443436 151.741837,167.735657 131.730103,169.782440
	C116.769539,171.312576 101.584877,170.651566 86.000000,170.966248
M86.154594,79.292419
	C83.627869,74.982727 81.119484,70.662148 78.569809,66.366074
	C75.303680,60.862823 73.206543,60.180119 66.674034,62.596416
	C73.550194,74.045578 80.300674,85.514114 87.321259,96.814842
	C89.082611,99.650032 89.106140,101.698120 87.219009,104.447212
	C83.452209,109.934502 80.058357,115.678604 76.534332,121.331512
	C73.229782,126.632378 69.956001,131.952423 66.542107,137.468536
	C72.487854,139.154053 76.058861,137.920090 78.879845,132.666153
	C83.564659,123.940956 89.090553,115.667366 94.641792,106.582291
	C100.192657,115.784050 105.351799,124.305534 110.478920,132.846237
	C114.083679,138.850998 115.033585,139.228790 122.809631,137.229828
	C116.177628,126.538139 109.800140,115.830956 102.948456,105.436348
	C100.470222,101.676651 100.581696,98.965050 102.965347,95.262306
	C109.001831,85.885284 114.592789,76.221069 120.338379,66.657570
	C121.214813,65.198753 121.964478,63.663780 122.827957,62.061653
	C116.716934,60.375267 113.090614,61.965488 110.597801,67.314674
	C108.217926,72.421501 104.927429,77.103729 102.040749,81.974678
	C99.790939,85.771004 97.546509,89.570511 94.878998,94.079742
	C91.737923,88.752586 89.133980,84.336372 86.154594,79.292419
z"/>
<path fill="#F8F8FC" opacity="1.000000" stroke="none"
	d="
M86.342316,79.606293
	C89.133980,84.336372 91.737923,88.752586 94.878998,94.079742
	C97.546509,89.570511 99.790939,85.771004 102.040749,81.974678
	C104.927429,77.103729 108.217926,72.421501 110.597801,67.314674
	C113.090614,61.965488 116.716934,60.375267 122.827957,62.061653
	C121.964478,63.663780 121.214813,65.198753 120.338379,66.657570
	C114.592789,76.221069 109.001831,85.885284 102.965347,95.262306
	C100.581696,98.965050 100.470222,101.676651 102.948456,105.436348
	C109.800140,115.830956 116.177628,126.538139 122.809631,137.229828
	C115.033585,139.228790 114.083679,138.850998 110.478920,132.846237
	C105.351799,124.305534 100.192657,115.784050 94.641792,106.582291
	C89.090553,115.667366 83.564659,123.940956 78.879845,132.666153
	C76.058861,137.920090 72.487854,139.154053 66.542107,137.468536
	C69.956001,131.952423 73.229782,126.632378 76.534332,121.331512
	C80.058357,115.678604 83.452209,109.934502 87.219009,104.447212
	C89.106140,101.698120 89.082611,99.650032 87.321259,96.814842
	C80.300674,85.514114 73.550194,74.045578 66.674034,62.596416
	C73.206543,60.180119 75.303680,60.862823 78.569809,66.366074
	C81.119484,70.662148 83.627869,74.982727 86.342316,79.606293
z"/>
</svg>
