<?xml version="1.0" standalone="no"?>
<!DOCTYPE svg PUBLIC "-//W3C//DTD SVG 1.1//EN" "http://www.w3.org/Graphics/SVG/1.1/DTD/svg11.dtd" >
<svg xmlns="http://www.w3.org/2000/svg" xmlns:xlink="http://www.w3.org/1999/xlink" version="1.1">
<metadata>
Created by FontForge 20170731 at Thu Nov  1 09:56:39 2012
 By Aleksey,,,
Copyright (c) 2011-2012, Eduardo Tunni (http://www.tipo.net.ar), with Reserved Font Name 'Merienda'
</metadata>
<defs>
<font id="Merienda-Regular_0_wt" horiz-adv-x="620" >
  <font-face 
    font-family="Merienda"
    font-weight="400"
    font-stretch="normal"
    units-per-em="1000"
    panose-1="2 0 5 3 6 0 0 2 0 4"
    ascent="800"
    descent="-200"
    x-height="579"
    cap-height="802"
    bbox="-210 -342 1276 1084"
    underline-thickness="50"
    underline-position="-150"
    unicode-range="U+0020-FB02"
  />
<missing-glyph horiz-adv-x="330" 
 />
    <glyph glyph-name="fi" unicode="fi" horiz-adv-x="673" 
d="M396 548q0 -42 -16 -58t-47 -16h-85q-33 -209 -33 -411q0 -59 2.5 -85.5t13.5 -90.5q-113 45 -113 206q0 182 38 375q-52 -8 -104 -30q-2 16 -2 29q0 48 32 64.5t91 16.5q88 352 264 352q94 0 134 -40.5t40 -98.5q0 -39 -22 -66t-68 -27q-20 0 -40 10q18 12 28.5 34
t10.5 50.5t-20.5 53.5t-67.5 25q-113 0 -172 -296q97 0 134 29q2 -14 2 -26zM481.5 46.5q-22.5 41.5 -22.5 100.5t16 169t16 171t-6 94q18 2 29 2q45 0 65 -20t20 -66q0 -15 -24.5 -157.5t-25 -235t11.5 -119.5q-57 20 -79.5 61.5z" />
    <glyph glyph-name="fl" unicode="fl" horiz-adv-x="668" 
d="M396 548q0 -42 -16 -58t-47 -16h-84q-34 -246 -34 -411q0 -59 2.5 -85.5t13.5 -90.5q-113 44 -113 196q0 174 39 386q-47 -7 -105 -31q-2 16 -2 29q0 48 32 64.5t91 16.5q42 187 121 272q71 77 149 77q163 0 163 -173q0 -43 -29 -276.5t-29 -333.5t12 -130
q-59 6 -82 34.5t-23 93t32.5 315.5t32.5 326q0 37 -19 62t-59 25q-69 0 -111 -73t-71 -222q97 0 134 29q2 -14 2 -26z" />
    <glyph glyph-name=".notdef" horiz-adv-x="330" 
 />
    <glyph glyph-name=".null" horiz-adv-x="0" 
 />
    <glyph glyph-name="nonmarkingreturn" horiz-adv-x="333" 
 />
    <glyph glyph-name="space" unicode=" " horiz-adv-x="330" 
 />
    <glyph glyph-name="exclam" unicode="!" horiz-adv-x="286" 
d="M275 703q0 -31 -17 -98q-54 -205 -54 -318q0 -50 8 -69q-49 18 -70 53t-21 94.5t25 184.5t25 178.5t-3 69.5q33 0 70 -24.5t37 -70.5zM93 106q27 10 53 10t44 -12t18 -32.5t-18 -72.5q-27 -10 -53 -10t-44 12t-18 32.5t18 72.5z" />
    <glyph glyph-name="quotedbl" unicode="&#x22;" horiz-adv-x="403" 
d="M208 762q0 -20 -22 -74t-22 -87.5t6 -60.5q-85 0 -85 85q0 29 16.5 80.5t16.5 76t-6 45.5q96 0 96 -65zM388 762q0 -20 -22 -74t-22 -87.5t6 -60.5q-85 0 -85 85q0 29 16.5 80.5t16.5 76t-6 45.5q96 0 96 -65z" />
    <glyph glyph-name="numbersign" unicode="#" horiz-adv-x="772" 
d="M697 192l-1 -19q-84 7 -193 9q-52 -141 -66 -223q-6 0 -22 7t-25 16q-26 24 -26 62t36 136q-148 -8 -172 -9q-51 -139 -62 -212q-6 0 -22 7t-26 16q-25 24 -25 59.5t32 128.5q-66 4 -88 27t-22 66q0 3 0.5 9t0.5 10q79 -8 148 -9q11 30 35 90.5t27 68.5h-12
q-84 0 -111.5 23t-27.5 70l1 19q101 -9 188 -9q44 121 56 192q6 0 22 -7t26 -16q25 -24 25 -58t-25 -109q24 1 81 4t90 4q40 115 52 182q6 0 22 -7t25 -16q26 -24 26 -59t-22 -99q69 -3 92 -26t23 -66l-1 -19q-68 6 -151 8q-7 -19 -28.5 -73t-33.5 -85h14q85 0 112.5 -23
t27.5 -70zM501 443q-16 0 -170 -8q-40 -102 -64 -162q31 1 90.5 4.5t80.5 4.5z" />
    <glyph glyph-name="dollar" unicode="$" 
d="M440 583q0 35 -28 55t-70 20t-74 -27t-32 -74.5t30 -86t72.5 -69t85.5 -62t73 -74.5t30 -93q0 -77 -59 -133t-155 -63q-18 -98 -18 -166q-16 0 -38 8q-43 15 -43 69q0 30 13 93q-73 14 -112 56.5t-39 93.5t28 83t68 32q16 0 29 -4q-19 -29 -19 -80t30 -87t86.5 -36
t87.5 28.5t31 79.5q0 57 -73 111q-81 60 -135 111q-31 30 -52 73.5t-21 92.5q0 80 49 129.5t145 54.5q23 107 28 157q19 0 36.5 -22t17.5 -53.5t-10 -84.5q63 -12 95.5 -50.5t32.5 -79.5t-23.5 -72t-66.5 -31q-21 0 -41 7q41 28 41 94z" />
    <glyph glyph-name="percent" unicode="%" horiz-adv-x="960" 
d="M625 661q0 -35 -47.5 -170t-102.5 -303t-69 -270q-7 0 -21 8t-23 17q-24 24 -24 70t54.5 188.5t117.5 310.5t78 256q14 -14 25.5 -43t11.5 -64zM262 606q-45 0 -76.5 -59t-31.5 -126q0 -145 71 -145q46 0 71 56t25 133q0 141 -59 141zM290 656q53 0 84.5 -50.5t31.5 -115
t-19 -124t-64.5 -102.5t-106.5 -43t-103.5 51t-42.5 144.5t40.5 162t106.5 87.5q23 0 31 -18q20 8 42 8zM746 358q-45 0 -76.5 -59t-31.5 -126q0 -145 71 -145q46 0 71 56t25 133q0 141 -59 141zM774 408q53 0 84.5 -50.5t31.5 -115t-19 -124t-64.5 -102.5t-106.5 -43
t-103.5 51t-42.5 144.5t40.5 162t106.5 87.5q23 0 31 -18q20 8 42 8z" />
    <glyph glyph-name="ampersand" unicode="&#x26;" 
d="M201 590q0 -84 62 -126t178.5 -42t225.5 46q0 -62 -17 -86q-19 -26 -58 -26h-66q-4 -27 -16 -105.5t-18 -125.5q-19 -134 -19 -216.5t24 -138.5q-62 22 -84 68t-22 110.5t5 114.5q-30 -49 -79 -72.5t-98 -23.5q-79 0 -137 53t-58 148q0 79 66 144.5t174 82.5
q-83 27 -123.5 80t-40.5 112q0 77 61 135.5t152.5 58.5t140.5 -40t49 -104q0 -46 -32 -83.5t-84 -37.5q-21 0 -42 5q55 61 55 117q0 37 -24.5 57t-57.5 20q-52 0 -84.5 -38t-32.5 -87zM258 40q97 0 134 92q19 46 29 116l15 109q-305 -3 -305 -184q0 -65 35 -99t92 -34z" />
    <glyph glyph-name="quotesingle" unicode="'" horiz-adv-x="223" 
d="M208 762q0 -20 -22 -74t-22 -87.5t6 -60.5q-85 0 -85 85q0 29 16.5 80.5t16.5 76t-6 45.5q96 0 96 -65z" />
    <glyph glyph-name="parenleft" unicode="(" horiz-adv-x="359" 
d="M226.5 555.5q-52.5 -135.5 -52.5 -274.5t50.5 -248.5t107.5 -153.5q-4 -17 -22 -22q-245 136 -245 430q0 168 74.5 297.5t221.5 202.5q18 -5 18 -22q-100 -74 -152.5 -209.5z" />
    <glyph glyph-name="parenright" unicode=")" horiz-adv-x="359" 
d="M117.5 88.5q52.5 135.5 52.5 274.5t-50.5 248.5t-107.5 153.5q4 17 22 22q245 -136 245 -430q0 -168 -74.5 -297.5t-221.5 -202.5q-18 5 -18 22q100 74 152.5 209.5z" />
    <glyph glyph-name="asterisk" unicode="*" horiz-adv-x="522" 
d="M318 673l6 -59q0 -99 -53 -99q-32 0 -76 41q17 18 36.5 54t28.5 61q-77 -34 -111 -34q-57 0 -57 54q0 28 18 63q65 -28 131 -28q-23 24 -45.5 60.5t-22.5 60.5q0 48 72 48q12 0 32 -2q-4 -27 -4 -39q0 -57 15 -94q20 36 52.5 73t52 37t38.5 -24.5t27 -63.5
q-31 -6 -68.5 -23t-57.5 -32q66 -18 102 -41t36 -41t-14 -37.5t-40 -34.5q-10 10 -33 35q-45 49 -65 65z" />
    <glyph glyph-name="plus" unicode="+" 
d="M401 315l-45 -1q-2 -70 -5 -114.5t-19.5 -67.5t-46 -23t-42.5 2q14 70 18 196q-45 -3 -102.5 -3t-78 21t-20.5 63q0 3 0.5 9t0.5 9q61 -8 124 -8t78 1q0 57 4 107.5t21 73.5t47 23t41 -2q-16 -80 -18 -196q60 4 110.5 4t71 -21t20.5 -63q0 -3 -0.5 -9t-0.5 -9
q-61 8 -158 8z" />
    <glyph glyph-name="comma" unicode="," horiz-adv-x="209" 
d="M120 146q64 0 64 -61t-42 -117t-122 -100l-24 30q74 71 74 162q0 33 -15 75q33 11 65 11z" />
    <glyph glyph-name="hyphen" unicode="-" horiz-adv-x="480" 
d="M193 375l91 -3q83 0 115 32q6 -17 6 -49t-18 -58t-56 -26q-108 0 -157.5 -7.5t-95.5 -34.5q-4 16 -4 39q0 65 30 86t89 21z" />
    <glyph glyph-name="period" unicode="." horiz-adv-x="208" 
d="M105 -11q-65 0 -65 54q0 19 18 73q30 10 60 10q65 0 65 -54q0 -19 -18 -73q-30 -10 -60 -10z" />
    <glyph glyph-name="slash" unicode="/" horiz-adv-x="413" 
d="M399.5 822.5q13.5 -26.5 13.5 -61t-75 -220.5t-157.5 -403.5t-96.5 -319.5q-8 0 -26 8t-29 17t-20 28t-9 43q0 45 83 237.5t174.5 410t106.5 306.5q5 -4 13.5 -11.5t22 -34z" />
    <glyph glyph-name="zero" unicode="0" horiz-adv-x="644" 
d="M360 632q-79 0 -137.5 -104.5t-58.5 -221t35 -188.5t102 -72q55 0 96 50q80 98 80 284q0 131 -33 191.5t-84 60.5zM417 693q80 0 123.5 -74t43.5 -190q0 -170 -72 -303q-35 -67 -95.5 -108t-143.5 -41t-148 83t-65 238.5t63.5 268t168.5 143.5q24 0 26 -42q54 25 99 25z
" />
    <glyph glyph-name="one" unicode="1" horiz-adv-x="531" 
d="M174 88l47 -1q4 55 24.5 220t28.5 251q-108 -65 -133.5 -65t-43 38.5t-17.5 65.5q49 10 140 39.5t166 65.5q0 -54 -26 -270t-32 -348q93 2 153 26q-4 -70 -25 -99.5t-75 -29.5q-19 0 -83 9t-131.5 9t-126.5 -20q0 14 9 35.5t22 36t40 26t63 11.5z" />
    <glyph glyph-name="two" unicode="2" horiz-adv-x="569" 
d="M194 450q-52 0 -82 30.5t-30 73.5q0 65 54.5 115t150 50t159 -47.5t63.5 -145t-89 -216t-253 -222.5h27q230 0 311 32q-4 -66 -36.5 -102.5t-82.5 -36.5q-14 0 -94 9t-161 9t-151 -20q0 22 15 44q27 40 74 56q41 35 56.5 48t58.5 52.5t64 63t54.5 63.5t49.5 72
q44 83 44 143.5t-32 93.5t-75.5 33t-72.5 -26.5t-29 -75.5t38 -93q-15 -3 -31 -3z" />
    <glyph glyph-name="three" unicode="3" horiz-adv-x="550" 
d="M371 548q0 43 -23.5 70t-67 27t-67.5 -23.5t-24 -65t35 -81.5q-18 -5 -34 -5q-45 0 -71 27t-26 66q0 67 51.5 110.5t139.5 43.5t137.5 -49.5t49.5 -118.5q0 -52 -33 -98.5t-101 -77.5q63 -10 103 -60.5t40 -118.5q0 -91 -67 -159t-188 -68q-97 0 -151 47t-54 109
q0 48 30.5 82.5t84.5 34.5q17 0 38 -7q-21 -15 -34 -43t-13 -55q0 -97 106 -97q55 0 95 38.5t40 99.5t-37.5 106.5t-102.5 56.5q-16 -3 -43 -7l-5 34q92 15 142 69t50 113z" />
    <glyph glyph-name="four" unicode="4" horiz-adv-x="562" 
d="M15 220q0 8 3 12q220 351 257 525q7 -2 24.5 -14t28.5 -23q27 -27 27 -64t-36.5 -100.5t-103 -162.5t-102.5 -163q79 1 233 12q13 93 13 135.5t-2 76.5q16 2 27 2q36 0 54 -22t18 -60.5t-13 -122.5l62 7q7 -25 7 -53q0 -60 -76 -60h-6q-3 -37 -3 -94.5t6 -85.5
q-20 -2 -32 -2q-45 0 -67 25.5t-22 64.5q0 14 16 94l-288 11q-25 16 -25 62z" />
    <glyph glyph-name="five" unicode="5" horiz-adv-x="563" 
d="M513 654q0 -65 -52 -65q-67 0 -240 30l-31 -199q29 5 66 5q115 0 183 -61t68 -156.5t-70 -168t-186 -72.5q-85 0 -143 40.5t-58 111.5q0 50 29.5 83.5t76.5 33.5q24 0 39 -3q-39 -43 -39 -91.5t26 -76t79.5 -27.5t93 41.5t39.5 113t-47.5 122.5t-142.5 51q-48 0 -105 -13
l49 285q-28 18 -32 62q53 -7 124 -7q138 0 230 11l34 4q9 -18 9 -54z" />
    <glyph glyph-name="six" unicode="6" horiz-adv-x="593" 
d="M402.5 628.5q-19.5 23.5 -62.5 23.5t-82 -46q-70 -81 -90 -249q79 35 159 35t136.5 -53.5t56.5 -135.5q0 -108 -71 -172.5t-166 -64.5t-164 77t-69 227q0 171 70 303q35 66 95 106t137.5 40t124 -44t46.5 -98q0 -37 -23.5 -62.5t-68.5 -25.5q-21 0 -40 10q31 22 31 73
q0 33 -19.5 56.5zM379.5 281.5q-31.5 36.5 -93.5 36.5t-123 -23v-26q0 -166 55 -210q28 -22 69 -22q56 0 90 46.5t34 104t-31.5 94z" />
    <glyph glyph-name="seven" unicode="7" horiz-adv-x="496" 
d="M506 708q0 -31 -47 -128.5t-104.5 -204.5t-112 -234t-65.5 -208q-8 0 -28.5 8t-33 17t-22.5 28t-10 49t49 123.5t130.5 235t122.5 225.5q-237 -37 -288.5 -37t-51.5 71q0 37 9 55q122 -15 226 -15t140 3q28 68 37 115q5 -4 13.5 -11.5t22 -34t13.5 -57.5z" />
    <glyph glyph-name="eight" unicode="8" horiz-adv-x="577" 
d="M106.5 17q-56.5 50 -56.5 115.5t45 119t125 84.5q-110 95 -110 194q0 86 63.5 137.5t163 51.5t145 -43t45.5 -108.5t-40.5 -121.5t-111.5 -87q64 -49 99.5 -96t35.5 -109q0 -82 -66 -134.5t-173.5 -52.5t-164 50zM398 148q0 20 -7.5 33t-12 20.5t-15 17.5t-16 16
t-19.5 17t-20.5 16t-23 17.5t-22.5 17.5q-105 -85 -105 -161q0 -50 28 -81.5t78 -31.5t92.5 32t42.5 87zM253.5 624.5q-32.5 -31.5 -32.5 -77.5t28 -79.5t83 -75.5q100 80 100 165q0 42 -24 70.5t-73 28.5t-81.5 -31.5z" />
    <glyph glyph-name="nine" unicode="9" horiz-adv-x="585" 
d="M161 116q0 -32 20 -57t59 -25q81 0 125.5 85t55.5 224q-64 -58 -146 -58t-140 54t-58 146.5t63.5 163t182.5 70.5q76 0 141 -65q32 -32 51.5 -88t19.5 -134.5t-17.5 -159t-52.5 -150.5t-96.5 -112.5t-140.5 -42.5t-123.5 42.5t-44.5 94t30.5 86t84.5 34.5q17 0 38 -7
q-52 -37 -52 -101zM424 409l1 31q0 93 -27 150.5t-86 57.5t-92.5 -49.5t-33.5 -107.5t25.5 -95t75.5 -37q74 0 137 50z" />
    <glyph glyph-name="colon" unicode=":" horiz-adv-x="286" 
d="M135 -11q-65 0 -65 54q0 17 18 73q30 10 60 10q65 0 65 -54q0 -17 -18 -73q-30 -10 -60 -10zM169 417q-65 0 -65 54q0 17 18 73q30 10 60 10q65 0 65 -54q0 -17 -18 -73q-30 -10 -60 -10z" />
    <glyph glyph-name="semicolon" unicode=";" horiz-adv-x="287" 
d="M169 417q-65 0 -65 54q0 17 18 73q30 10 60 10q65 0 65 -54q0 -17 -18 -73q-30 -10 -60 -10zM150 146q64 0 64 -61t-42 -117t-122 -100l-24 30q74 71 74 162q0 33 -15 75q33 11 65 11z" />
    <glyph glyph-name="less" unicode="&#x3c;" 
d="M85 365q0 28 19 55q68 32 147.5 86.5t133.5 86.5t93 32t57 -74q-64 -24 -187.5 -98.5t-142.5 -84.5q20 -11 142 -84.5t188 -98.5q-18 -74 -57 -74t-93 32t-133.5 86.5t-147.5 86.5q-19 21 -19 49z" />
    <glyph glyph-name="equal" unicode="=" 
d="M331 522.5q77 5.5 132.5 5.5t76 -21t20.5 -63q0 -3 -0.5 -9t-0.5 -9q-61 8 -127 8t-143 -5.5t-132.5 -5.5t-76 21t-20.5 63q0 3 0.5 9t0.5 9q61 -8 127 -8t143 5.5zM331 284.5q77 5.5 132.5 5.5t76 -21t20.5 -63q0 -3 -0.5 -9t-0.5 -9q-61 8 -127 8t-143 -5.5
t-132.5 -5.5t-76 21t-20.5 63q0 3 0.5 9t0.5 9q61 -8 127 -8t143 5.5z" />
    <glyph glyph-name="greater" unicode="&#x3e;" 
d="M535 371q0 -28 -19 -55q-68 -32 -147.5 -86.5t-133.5 -86.5t-93 -32t-57 74q64 24 187.5 98.5t142.5 84.5q-20 11 -142 84.5t-188 98.5q18 74 57 74t93 -32t133.5 -86.5t147.5 -86.5q19 -21 19 -49z" />
    <glyph glyph-name="question" unicode="?" horiz-adv-x="453" 
d="M149 250.5q-19 26.5 -19 64t23.5 69.5t57 58.5t67 53.5t57 62.5t23.5 76t-27 63.5t-70.5 23t-69.5 -27t-26 -65.5t25 -68.5q-17 -8 -43.5 -8t-49 22t-22.5 58q0 64 60 104t138 40t131.5 -38.5t53.5 -121.5q0 -39 -18.5 -73.5t-45.5 -58.5t-59.5 -50.5t-59.5 -48.5
t-45.5 -53t-18.5 -65.5t11 -60.5q-54 18 -73 44.5zM129 106q27 10 53 10t44 -12t18 -32.5t-18 -72.5q-27 -10 -53 -10t-44 12t-18 32.5t18 72.5z" />
    <glyph glyph-name="at" unicode="@" horiz-adv-x="1027" 
d="M418 -75q80 0 147 53q7 -24 7 -43q0 -49 -46 -76.5t-112.5 -27.5t-126.5 24.5t-110.5 70.5t-81 122t-30.5 169.5t36.5 182.5t102.5 161t170 115.5t228 43.5q136 0 242 -77q53 -39 85.5 -110t32.5 -160t-26.5 -161.5t-66.5 -117t-84.5 -69.5t-83.5 -25q-60 0 -86.5 45
t-26.5 139q0 33 1 52h-7q-30 -73 -76 -110t-92 -37t-75 39.5t-29 111t23 134t74.5 108t119.5 45.5q37 0 71 -18l-4 26h37q33 0 48 -15t15 -47t-17.5 -132t-17.5 -174q0 -100 61 -100q47 0 92.5 79.5t45.5 218.5q0 80 -22.5 139.5t-61.5 93.5q-76 65 -180 65t-187.5 -38.5
t-134.5 -102.5q-105 -130 -105 -292t73 -233.5t178 -71.5zM406 245q0 -35 16 -57t46 -22q51 0 93 86.5t42 187.5q0 27 -4 51q-82 -8 -137.5 -76t-55.5 -170z" />
    <glyph glyph-name="A" unicode="A" horiz-adv-x="645" 
d="M-5 44q0 19 55 141.5t127.5 281t98.5 226.5l22 57q-16 24 -35 43q31 12 59 12q63 0 98 -80q22 -51 59 -228q1 -2 3 -13t20.5 -101.5t25.5 -120t24 -90.5q27 -103 68 -160q-47 -28 -77.5 -28t-44 18.5t-25 57t-48.5 214.5q-22 -34 -88 -36l-178 -7q-57 -154 -83 -264
q-81 34 -81 77zM333 661q-115 -273 -147 -355h232q-47 229 -85 355z" />
    <glyph glyph-name="B" unicode="B" horiz-adv-x="679" 
d="M144.5 472q11.5 130 11.5 236t-14 139q83 -28 104 -88q78 43 160 43t143.5 -45t61 -121t-49.5 -132t-139 -86q70 -15 127 -67.5t57 -129.5q0 -118 -82.5 -181.5t-207 -63.5t-226.5 77q1 8 22 148.5t32.5 270.5zM472 694.5q-36 33.5 -98 33.5t-116 -26q0 -63 -26.5 -314.5
t-26.5 -322.5q51 -18 100 -18q86 0 142 49.5t56 133.5q0 63 -57.5 110.5t-159.5 51.5l-3 36q106 13 165.5 67.5t59.5 110t-36 89z" />
    <glyph glyph-name="C" unicode="C" horiz-adv-x="687" 
d="M323 -15q-111 0 -187 90t-76 262q0 127 41 231.5t128.5 171t197.5 66.5t160 -53.5t50 -122.5t-35 -110.5t-91 -41.5q-18 0 -44 8q23 24 40.5 67.5t17.5 87.5t-23.5 75.5t-74.5 31.5q-77 0 -137.5 -63.5t-91 -156t-30.5 -190.5q0 -138 53 -206.5t137 -68.5q56 0 115 34
t97 98q15 0 28 -9t13 -18q-56 -106 -141 -147q-74 -36 -147 -36z" />
    <glyph glyph-name="D" unicode="D" horiz-adv-x="760" 
d="M413 802q138 0 217 -109t79 -274q0 -168 -91 -296q-44 -63 -118.5 -100.5t-154 -37.5t-140 17t-87.5 34l-28 17q1 8 22 149q44 294 44 533q0 79 -14 112q83 -28 104 -88q89 43 167 43zM206 70q44 -15 107 -15t122 32.5t95 86.5q74 109 74 246t-61 221t-164 84
q-69 0 -120 -23q0 -62 -26.5 -312t-26.5 -320z" />
    <glyph glyph-name="E" unicode="E" horiz-adv-x="631" 
d="M400 340l-89 1q-49 0 -75 -2q-16 -142 -16 -255q231 0 334 30q-7 -58 -39.5 -90t-81.5 -32q-14 0 -86.5 6.5t-140.5 6.5t-136 -13q8 33 38 57q-1 6 -1 38t29 237q-28 -7 -48 -15q-2 18 -2 29q0 61 62 76q23 168 25 268q-26 2 -36.5 13t-10.5 39.5t8 50.5q103 -14 224 -14
t231 22q-6 -38 -27.5 -61.5t-68.5 -33.5t-78 -12q-56 -5 -138 -5q-1 -36 -31 -263q62 -2 90 -2q88 0 125 29q2 -16 2 -26q0 -79 -63 -79z" />
    <glyph glyph-name="F" unicode="F" horiz-adv-x="520" 
d="M399 340l-89 1q-49 0 -75 -2q-16 -144 -16 -231.5t6 -122.5q-26 -2 -28 -2q-46 0 -68.5 20t-22.5 68t29 253q-28 -7 -48 -15q-2 18 -2 29q0 61 62 76q23 168 25 267q-39 0 -53 10.5t-14 41t8 52.5q103 -14 224 -14t231 22q-13 -81 -113 -97q-59 -10 -179 -14
q0 -47 -31 -264q62 -2 90 -2q88 0 125 29q2 -16 2 -26q0 -79 -63 -79z" />
    <glyph glyph-name="G" unicode="G" horiz-adv-x="687" 
d="M480 314l-1 25l-2 25q18 2 37 2q46 0 64 -19.5t18 -66.5q0 -305 -103 -476q-36 -59 -93.5 -96t-130.5 -37q-99 0 -149 53.5t-50 119t29.5 103t73.5 37.5q28 0 52 -17q-43 -59 -43 -117q0 -121 97 -121t147 114t59 318q-36 -65 -90 -98.5t-113 -33.5q-94 0 -160.5 78
t-66.5 217q0 192 93 332q46 69 118.5 109.5t165.5 40.5t141.5 -50.5t48.5 -122t-41.5 -112t-98.5 -40.5q-83 0 -125 58q27 -7 51 -7q57 0 89.5 34t32.5 78.5t-30 74t-85 29.5q-73 0 -132.5 -67t-90 -162t-30.5 -198.5t44.5 -162.5t109.5 -59t114.5 58.5t49.5 156.5z" />
    <glyph glyph-name="H" unicode="H" horiz-adv-x="791" 
d="M480 354l-145 2q-46 0 -91 -3q-25 -179 -25 -265t14 -119q-62 22 -87.5 59.5t-25.5 88t10.5 130t12.5 91.5q-34 -8 -51 -14q-2 18 -2 38q0 57 66 67q22 170 22 291q0 30 -4 82q76 -4 95 -36q10 -18 13 -34.5t3 -56.5t-14.5 -137t-15.5 -106q178 0 320 3q22 167 22 285
q0 30 -4 82q76 -4 95 -36q10 -18 13 -34.5t3 -56.5t-33 -266t-33 -316.5t14 -123.5q-62 22 -87.5 59.5t-25.5 88t21 205.5l14 102q-15 -70 -94 -70z" />
    <glyph glyph-name="I" unicode="I" horiz-adv-x="344" 
d="M254 731.5q3 -16.5 3 -56.5t-33 -266t-33 -316.5t14 -123.5q-62 22 -87.5 59.5t-25.5 88t21 205.5q37 257 37 398q0 30 -4 82q76 -4 95 -36q10 -18 13 -34.5z" />
    <glyph glyph-name="J" unicode="J" horiz-adv-x="518" 
d="M78 46q19 -25 50.5 -25t52 9.5t34.5 30t24 45.5t16 63.5t9.5 76.5t6 91.5t3.5 100.5q5 134 12 234q-44 -2 -56 -2q-57 0 -57 58q0 24 6 48q69 -16 159.5 -16t195.5 32q-5 -48 -37.5 -74.5t-65.5 -31.5q-19 -4 -35 -5q-21 -209 -29.5 -337t-29.5 -201.5t-54 -111
t-68.5 -52.5t-79.5 -15q-88 0 -133 49.5t-45 118.5q0 48 28.5 83.5t79.5 35.5q26 0 49 -16q-26 -22 -40.5 -57t-14.5 -71t19 -61z" />
    <glyph glyph-name="K" unicode="K" horiz-adv-x="671" 
d="M254 731.5q3 -16.5 3 -56.5t-25 -211l-13 -90q307 251 380 425q23 -46 23 -103.5t-59 -119.5t-174 -144q56 -175 111 -269.5t141 -185.5q-20 -10 -53 -10t-71.5 24t-68 60t-59.5 93q-46 86 -95 221q-5 -4 -36.5 -25.5t-47.5 -33.5q-19 -145 -19 -224.5t14 -112.5
q-62 22 -87.5 59.5t-25.5 88t21 205.5q37 257 37 398q0 30 -4 82q76 -4 95 -36q10 -18 13 -34.5z" />
    <glyph glyph-name="L" unicode="L" horiz-adv-x="547" 
d="M110 60q-9 24 -9 67t29 254t29 339q0 30 -4 82q76 -4 95 -36q10 -18 13 -34.5t3 -52t-32.5 -267t-33.5 -329.5q5 1 18 1q216 0 322 30q-7 -58 -39.5 -90t-81.5 -32q-14 0 -86.5 6.5t-140.5 6.5t-136 -13q13 44 54 68z" />
    <glyph glyph-name="M" unicode="M" horiz-adv-x="927" 
d="M818 767.5q24 -29.5 24 -81t-33 -277.5t-33 -316.5t14 -123.5q-66 22 -91.5 59t-25.5 88t22.5 215t29.5 250q-41 -79 -136.5 -224t-110.5 -169q-24 -14 -50 -14q-47 0 -53 17q-11 28 -34.5 89.5t-38.5 100.5q-44 110 -79 185q-1 -7 -24.5 -192.5t-23.5 -295.5
q0 -31 4 -83q-104 0 -104 63q0 9 38.5 271.5t38.5 365.5v5q-29 47 -61 77q24 26 59 26q68 0 109.5 -76.5t184.5 -453.5q3 -6 4 -9q9 14 49 72t60.5 89.5t56.5 90t56 100.5q56 114 68 186q56 -5 80 -34.5z" />
    <glyph glyph-name="N" unicode="N" horiz-adv-x="821" 
d="M185 78q0 -31 4 -83q-104 0 -104 63q0 10 38.5 272t38.5 364l-6 9q-18 27 -34.5 39t-30.5 20.5t-16 10.5q41 29 80 29q70 0 110 -60q57 -87 193 -367q88 -181 135 -250q2 62 28 268t26 327q0 31 -4 81q103 0 103 -61q0 -11 -38 -279t-38 -371q0 -37 2 -54q8 -7 26 -17
q-52 -40 -96 -40t-78 59q-17 25 -65 116q-169 323 -225 421q-2 -24 -25.5 -205t-23.5 -292z" />
    <glyph glyph-name="O" unicode="O" horiz-adv-x="802" 
d="M579 664q-45 67 -122 67t-142 -61t-99 -152.5t-34 -187.5q0 -129 47.5 -212t142.5 -83q77 0 136 63t87.5 156t28.5 196q0 147 -45 214zM502.5 5q-64.5 -30 -141 -30t-135 36t-92.5 96q-69 122 -69 279t77 279.5t200 161.5q17 -4 19 -16q-70 -43 -114.5 -101t-61.5 -157
q42 117 131 184t186.5 67t166 -83.5t68.5 -241.5q0 -154 -55 -279q-29 -66 -72 -115.5t-107.5 -79.5z" />
    <glyph glyph-name="P" unicode="P" horiz-adv-x="621" 
d="M262 695l1 -12q0 -38 -28.5 -248.5t-28.5 -351.5q0 -63 6 -98q-24 -2 -26 -2q-45 0 -67 20.5t-22 67t33.5 284t33.5 339t-14 132.5q32 -4 59.5 -24.5t41.5 -54.5q76 41 169.5 41t147 -57.5t53.5 -141.5q0 -107 -78 -192.5t-210 -85.5q-30 0 -55 4l-3 32q67 0 117 20
t76 53q51 64 51 150q0 62 -39.5 103.5t-114.5 41.5q-45 0 -103 -20z" />
    <glyph glyph-name="Q" unicode="Q" horiz-adv-x="787" 
d="M586 649q-48 83 -144 83q-71 0 -132 -59t-94.5 -149t-33.5 -183q0 -198 103 -198q94 0 94 116q0 36 -12.5 65.5t-24.5 41.5l-13 11q25 12 59.5 12t67 -27t32.5 -83q0 -96 -58.5 -148t-140 -52t-144.5 68t-63 199q0 127 60 242q31 60 76.5 107t115.5 76t153 29
q105 0 177.5 -84t72.5 -241q0 -142 -57 -262q-31 -67 -79.5 -122t-126.5 -100t-177 -68q18 -6 75 -27.5t81 -30.5t75 -25.5t84 -24.5q88 -21 162 -25q-21 -49 -53.5 -75.5t-70 -26.5t-187.5 74.5t-206 93.5q-109 38 -179 40q41 58 109 58q101 11 181 48t129 86.5t81 111.5
q56 110 56 238t-48 211z" />
    <glyph glyph-name="R" unicode="R" horiz-adv-x="675" 
d="M114 3.5q-22 20.5 -22 67t33.5 284t33.5 339t-14 132.5q80 -8 104 -79q74 40 162 40t143 -56.5t55 -131t-44.5 -138t-135.5 -93.5l14 -43q36 -109 104 -216.5t111 -146.5q-21 -10 -60.5 -10t-82 35t-77.5 99q-60 112 -108 262q-36 -2 -55 -2l-3 36q112 4 173.5 65
t61.5 144q0 53 -35.5 88t-95.5 35t-118 -21q0 -39 -28.5 -253t-28.5 -357q0 -63 6 -98q-24 -2 -26 -2q-45 0 -67 20.5z" />
    <glyph glyph-name="S" unicode="S" horiz-adv-x="629" 
d="M272 496q30 -27 66.5 -53.5t73 -53.5t66.5 -55q68 -63 68 -139q0 -94 -71.5 -157t-188.5 -63t-180 53t-63 126q0 54 32 87.5t83 33.5q14 0 27 -4q-31 -47 -31 -100.5t37 -91.5t111 -38q53 0 94.5 32.5t41.5 90.5q0 38 -25 74.5t-62 64.5t-81 62.5t-81 66.5t-62 78t-25 96
q0 95 64.5 150.5t186.5 55.5q99 0 155.5 -52.5t56.5 -109t-30.5 -92.5t-83.5 -36q-18 0 -35 4q49 52 49 110t-36 87.5t-91.5 29.5t-94.5 -32t-39 -97t68 -128z" />
    <glyph glyph-name="T" unicode="T" horiz-adv-x="543" 
d="M49 729q0 22 7 43q105 -13 240 -13t278 26q-14 -93 -116 -101q-53 -5 -107 -8q-1 -39 -33.5 -270t-32.5 -317.5t14 -119.5q-62 22 -87.5 59.5t-25.5 90t26.5 244t30.5 308.5q-87 -3 -150 -3q-44 0 -44 61z" />
    <glyph glyph-name="U" unicode="U" horiz-adv-x="755" 
d="M665 731.5q3 -16.5 3 -56.5t-33 -266t-33 -316.5t14 -123.5q-62 22 -87.5 59.5t-25.5 100.5q0 31 2 50q-85 -199 -251 -199q-83 0 -125 57.5t-42 182.5q0 71 22.5 256t22.5 240.5t-11 85.5q60 -22 86 -57t26 -96.5t-21.5 -198t-21.5 -224.5t28 -126t80 -38q54 0 106 46
q66 59 106 192q23 76 35 174q0 3 2.5 3t13 -13t12.5 -13l-9 -63q-23 -125 -59 -209q4 40 19 143q37 257 37 398q0 30 -4 82q76 -4 95 -36q10 -18 13 -34.5zM574 455l-1 -4q1 0 1 4z" />
    <glyph glyph-name="V" unicode="V" horiz-adv-x="661" 
d="M296.5 -8.5q-24.5 -5.5 -45 -5.5t-23.5 15q-18 62 -54 242.5t-72.5 327.5t-70.5 195q42 26 70 26q52 0 72.5 -59t67.5 -322q3 -24 29.5 -150.5t32.5 -159.5q66 146 147 389.5t81 316.5q98 -18 98 -74q0 -41 -56.5 -173.5t-136 -305t-109.5 -254.5q-6 -3 -30.5 -8.5z" />
    <glyph glyph-name="W" unicode="W" horiz-adv-x="983" 
d="M626 -8.5q-24 -5.5 -45 -5.5t-21 15q-14 59 -37.5 212.5t-33.5 210.5q-28 -64 -72 -162q-98 -217 -115 -262q-5 -3 -29 -8.5t-45 -5.5t-21 15q-15 63 -42 243t-56 327t-60 195q42 26 70 26q54 0 72 -63.5t52 -344.5q2 -15 19 -130t22 -153q106 278 174 493
q-28 127 -56 172q42 26 70 26q54 0 72 -63.5t52 -344.5q2 -15 19 -130t22 -153q220 585 227 706q43 -10 68 -28.5t25 -41.5q0 -65 -205 -517q-81 -177 -97 -220q-5 -3 -29 -8.5z" />
    <glyph glyph-name="X" unicode="X" horiz-adv-x="671" 
d="M581 -33q-90 0 -161 106q-61 90 -123 244q-154 -171 -213 -348q-54 54 -54 111.5t60 131.5t176 184q-3 9 -16.5 42.5t-17.5 44t-16 40.5t-17.5 42.5t-16.5 39t-18 40t-17.5 35t-18.5 36.5q-18 32 -38 60q40 27 69.5 27t53 -23t43.5 -64q30 -60 59.5 -143.5t34.5 -96.5
q111 107 173.5 186.5t66.5 146.5q25 -17 37.5 -44t12.5 -51.5t-12.5 -52t-42 -60.5t-55 -58t-74.5 -70t-78 -73q112 -290 242 -428q-16 -5 -39 -5z" />
    <glyph glyph-name="Y" unicode="Y" horiz-adv-x="565" 
d="M312 283q-16 -135 -16 -208t14 -106q-67 14 -92 53t-25 107q0 36 13 157q-103 372 -183 491q29 26 59.5 26t48.5 -8.5t35 -29t32 -68.5q29 -93 68 -293l12 -69q96 152 156.5 287.5t70.5 210.5q60 -42 60 -113.5t-253 -436.5z" />
    <glyph glyph-name="Z" unicode="Z" horiz-adv-x="573" 
d="M83 726q0 29 8 51q126 -14 233 -14t160 4q14 33 23 71q46 -60 46 -132q0 -43 -43 -114t-100 -140q-195 -241 -273 -363q28 -2 44 -2q216 0 324 30q-8 -58 -40.5 -90t-81.5 -32q-26 0 -105.5 8.5t-163.5 8.5t-154 -15q16 48 60 71q298 361 432 630q-251 -44 -323 -44
q-46 0 -46 72z" />
    <glyph glyph-name="bracketleft" unicode="[" horiz-adv-x="379" 
d="M312 783h70q36 0 40 -74q-58 5 -121 6q-34 -231 -46 -394q-9 -148 -9 -382v-10q55 1 109 6q-4 -74 -40 -74h-68q-115 0 -115 65q0 20 5 70q23 232 28.5 315t23.5 402q2 37 30.5 53.5t92.5 16.5z" />
    <glyph glyph-name="backslash" unicode="\" horiz-adv-x="413" 
d="M330 151.5q83 -192.5 83 -234t-21 -65.5t-42 -29l-21 -5q-14 102 -96.5 319.5t-157.5 403.5t-75 224q0 48 32 87q7 8 17 16q15 -89 106.5 -306.5t174.5 -410z" />
    <glyph glyph-name="bracketright" unicode="]" horiz-adv-x="379" 
d="M67 -139h-70q-36 0 -40 74q58 -5 121 -6q34 231 46 394q9 148 9 382v10q-55 -1 -109 -6q4 74 40 74h68q115 0 115 -65q0 -20 -5 -70q-23 -232 -28.5 -315t-23.5 -402q-2 -37 -30.5 -53.5t-92.5 -16.5z" />
    <glyph glyph-name="asciicircum" unicode="^" 
d="M311 759q31 17 67 17t40 -18q31 -145 60.5 -230.5t80.5 -175.5q-19 -25 -69.5 -25t-82.5 81.5t-65 299.5q-126 -197 -203 -380q-58 23 -58 76q0 38 58.5 124.5t171.5 230.5z" />
    <glyph glyph-name="underscore" unicode="_" horiz-adv-x="463" 
d="M249.5 1.5q67.5 5.5 115.5 5.5t65.5 -21t17.5 -63q0 -3 -0.5 -9t-0.5 -9q-64 8 -115 8t-118.5 -5.5t-115.5 -5.5t-65.5 21t-17.5 63q0 3 0.5 9t0.5 9q64 -8 115 -8t118.5 5.5z" />
    <glyph glyph-name="grave" unicode="`" horiz-adv-x="372" 
d="M342 652q-1 -11 -10.5 -20.5t-21.5 -12.5q-36 45 -92.5 89t-114.5 62q2 52 48 82q53 -21 109.5 -82.5t81.5 -117.5z" />
    <glyph glyph-name="a" unicode="a" horiz-adv-x="635" 
d="M176.5 288.5q-15.5 -52.5 -15.5 -100.5t21.5 -81.5t61.5 -33.5q56 0 105 61.5t75.5 149t26.5 162t-6 122.5q24 2 30 2q85 0 85 -87q0 -19 -24 -154.5t-24 -217t31 -144.5q-63 13 -91.5 55.5t-28.5 122.5q0 14 4 54q-27 -95 -95 -153t-133.5 -58t-105.5 49.5t-40 137
t32.5 171t98 144.5t146.5 61q35 0 77 -14q-59 -15 -108 -55t-78 -90.5t-44.5 -103z" />
    <glyph glyph-name="b" unicode="b" horiz-adv-x="641" 
d="M258 764q0 -45 -19.5 -187t-26.5 -220q29 105 83.5 162.5t118.5 57.5t110 -61t46 -156q0 -149 -73.5 -251t-180.5 -102q-29 0 -59 9q64 16 112.5 74.5t70.5 127t22 127.5t-21 98.5t-65 39.5t-85.5 -52t-68 -137t-26.5 -165.5t19 -146.5q-53 17 -83.5 72t-30.5 130.5
t33.5 290.5t33.5 314t-9 168q99 -36 99 -193z" />
    <glyph glyph-name="c" unicode="c" horiz-adv-x="545" 
d="M192.5 364.5q-19.5 -67.5 -19.5 -144.5t26 -124t69.5 -47t85.5 26t71 72q37 -5 37 -27q-27 -50 -67.5 -82t-75.5 -42.5t-71 -10.5q-77 0 -130 60.5t-53 175.5q0 146 79 251t210 105q72 0 109 -37.5t37 -87t-27.5 -84.5t-70.5 -35q-27 0 -46 9q16 18 27.5 50.5t11.5 63.5
q0 69 -57 69q-48 0 -87 -46.5t-58.5 -114z" />
    <glyph glyph-name="d" unicode="d" horiz-adv-x="616" 
d="M181 109q22 -36 68.5 -36t85 41.5t62 112t41 150t25.5 169.5q15 167 15 265t-8 146q103 -33 103 -207q0 -71 -33.5 -286t-33.5 -314t9 -168q-57 19 -78 68t-21 125q-31 -86 -92 -136t-126.5 -50t-106 50.5t-40.5 148.5q0 163 85.5 268t212.5 105q36 0 77 -11
q-68 -11 -122 -49.5t-84 -90.5q-61 -106 -61 -208q0 -57 22 -93z" />
    <glyph glyph-name="e" unicode="e" horiz-adv-x="542" 
d="M333 525q-60 0 -101.5 -69t-55.5 -162h28q53 0 92 15t60 39q40 46 40 104q0 33 -15.5 53t-47.5 20zM373 15q-55 -30 -127.5 -30t-126.5 64t-54 180q0 132 71 236q35 50 91.5 81t124.5 31q150 0 150 -145q0 -87 -67.5 -136.5t-156.5 -49.5q-59 0 -106 11q-1 -10 -1 -31
q0 -177 105 -177q99 0 161 98q37 -5 37 -27q-46 -75 -101 -105z" />
    <glyph glyph-name="f" unicode="f" horiz-adv-x="408" 
d="M396 548q0 -42 -16 -58t-47 -16h-84q-34 -216 -34 -411q0 -59 2.5 -85.5t13.5 -90.5q-113 45 -113 206q0 181 37 375q-50 -8 -103 -30q-2 16 -2 29q0 48 31.5 64.5t90.5 16.5q86 352 265 352q59 0 97 -33t38 -79t-27 -77.5t-71 -31.5q-18 0 -33 7q12 11 24.5 36.5
t12.5 53t-14.5 46.5t-37.5 19q-106 0 -165 -296q97 0 133 29q2 -14 2 -26z" />
    <glyph glyph-name="g" unicode="g" horiz-adv-x="619" 
d="M379 567q38 0 42 -29q-110 -23 -183 -123.5t-73 -202.5q0 -56 21.5 -93t68 -37t87.5 50q73 89 99 280q16 123 37 160q28 46 69 61q-14 -106 -14 -160q0 -400 -82 -601t-267 -201q-73 0 -114.5 35.5t-41.5 80.5t24.5 77t64.5 32q22 0 46 -10q-16 -11 -27 -34t-11 -51.5
t21.5 -48t59.5 -19.5t72 22.5t65 70.5q66 104 72 357q-28 -86 -86.5 -138t-118.5 -52q-77 0 -116.5 58.5t-39.5 149.5q0 127 84 242q40 55 103 89.5t138 34.5z" />
    <glyph glyph-name="h" unicode="h" horiz-adv-x="621" 
d="M299.5 499.5q68.5 77.5 128.5 77.5t85 -36.5t25 -99t-19.5 -175.5t-19.5 -164.5t13 -75t44 -40.5q-13 -1 -37 -1q-64 0 -94.5 26.5t-30.5 90.5q0 37 20 149.5t20 165.5q0 66 -46 66q-27 0 -60 -28.5t-63.5 -77t-51 -123t-20.5 -147t6 -107.5q-24 -2 -27 -2
q-47 0 -69.5 20t-22.5 62.5t18 163.5q53 372 53 565q0 87 -12 117q58 -21 81.5 -62t23.5 -113q0 -50 -19.5 -210t-26.5 -232q33 113 101.5 190.5z" />
    <glyph glyph-name="i" unicode="i" horiz-adv-x="321" 
d="M124.5 46.5q-22.5 41.5 -22.5 100.5t16 169t16 171t-6 94q18 2 29 2q45 0 65 -20t20 -66q0 -15 -24.5 -157.5t-25 -235t11.5 -119.5q-57 20 -79.5 61.5zM219 682q-84 0 -84 57q0 20 15 56q22 4 38 4q84 0 84 -57q0 -20 -15 -56q-22 -4 -38 -4z" />
    <glyph glyph-name="j" unicode="j" horiz-adv-x="331" 
d="M214 564.5q18 -18.5 18 -71.5t-2.5 -117.5t-11 -150t-22 -160.5t-38 -150t-56.5 -128.5t-80 -87t-103.5 -33.5t-92 33.5t-36.5 80t27 79.5t71 33q18 0 33 -7q-37 -35 -37 -92q0 -30 13 -46.5t34 -16.5q54 0 94 64.5t61 169.5q41 199 41 448q0 71 -6 169q18 2 34 2
q41 0 59 -18.5zM201 683q-84 0 -84 57q0 20 15 56q22 4 38 4q84 0 84 -57q0 -20 -15 -56q-22 -4 -38 -4z" />
    <glyph glyph-name="k" unicode="k" horiz-adv-x="574" 
d="M283 515.5q59 63.5 115 63.5t87.5 -34t31.5 -95.5t-35 -110t-96 -71.5l12 -37q33 -103 96 -204t102 -138q-27 -9 -51.5 -9t-49.5 12.5t-43.5 28t-39 49t-32.5 56.5t-30 70q-19 49 -53 148q-13 -1 -38 -1q-6 5 -6 32q45 1 80 18t53 43q38 53 38 107q0 27 -12.5 44.5
t-36.5 17.5q-42 0 -85 -55.5t-72.5 -152.5t-29.5 -203q0 -59 6 -94q-24 -2 -27 -2q-47 0 -69.5 20t-22.5 62.5t17 163.5q54 372 54 565q0 87 -12 117q58 -21 81.5 -62t23.5 -113q0 -50 -19.5 -210t-26.5 -232q31 143 90 206.5z" />
    <glyph glyph-name="l" unicode="l" horiz-adv-x="299" 
d="M82 73q-1 16 -1 51.5t33.5 303.5t33.5 368t-12 130q56 -21 79 -62t23 -99t-29 -300t-29 -390q0 -32 4 -90q-55 4 -78 26q-19 18 -24 62z" />
    <glyph glyph-name="m" unicode="m" horiz-adv-x="895" 
d="M505 259q-18 -73 -18 -138t6 -121q-26 -2 -31 -2q-87 0 -87 85q0 31 21.5 154t21.5 184.5t-46 61.5q-57 0 -116 -110t-59 -267q0 -50 6 -106q-26 -2 -31 -2q-87 0 -87 85q0 11 20.5 149t20.5 218.5t-17 147.5q60 -23 83.5 -66t23.5 -106q0 -32 -7 -81q34 100 94 166
t110 66q112 0 112 -173q37 80 85.5 126.5t90.5 46.5q61 0 86 -36.5t25 -99t-19.5 -175.5t-19.5 -164.5t13 -75t44 -40.5q-13 -1 -37 -1q-64 0 -94.5 26.5t-30.5 90.5q0 37 20 149.5t20 165.5q0 66 -46 66q-26 0 -56 -28t-56.5 -75.5t-44.5 -120.5z" />
    <glyph glyph-name="n" unicode="n" horiz-adv-x="626" 
d="M543 435q0 -46 -19.5 -162.5t-19.5 -169.5t13 -76.5t44 -40.5q-13 -1 -37 -1q-68 0 -96.5 25.5t-28.5 91.5q0 37 20 149.5t20 165.5q0 66 -40 66q-64 0 -132.5 -113t-68.5 -272q0 -63 6 -98q-26 -2 -31 -2q-88 0 -88 86q0 20 21 154t21 213.5t-17 146.5
q59 -23 82.5 -65.5t23.5 -97t-12 -126.5q33 113 103.5 190.5t131.5 77.5q104 0 104 -142z" />
    <glyph glyph-name="o" unicode="o" horiz-adv-x="617" 
d="M429.5 468.5q-24.5 42.5 -70 42.5t-91.5 -44.5t-72.5 -110t-26.5 -136t27 -122t82 -51.5q78 0 127 92t49 189.5t-24.5 140zM266.5 524.5q64.5 49.5 131 49.5t110.5 -58.5t44 -158.5q0 -110 -42 -204q-47 -104 -136 -145q-48 -23 -106 -23q-81 0 -142 67.5t-61 193
t54 217.5t147 128q20 0 20 -20q-99 -65 -122 -204q38 108 102.5 157.5z" />
    <glyph glyph-name="p" unicode="p" horiz-adv-x="649" 
d="M318.5 503.5q62.5 49.5 124 49.5t101.5 -49.5t40 -143.5q0 -149 -78.5 -254.5t-188.5 -105.5q-39 0 -80 16q75 15 131.5 76.5t82 132t25.5 127t-20 86.5t-57 30q-69 0 -123 -76.5t-83 -207.5t-29 -270.5t20 -242.5q-61 3 -96 27t-35 89q0 24 30.5 253.5t30.5 353.5
t-15 209q66 -19 91 -77.5t25 -164.5q41 93 103.5 142.5z" />
    <glyph glyph-name="q" unicode="q" horiz-adv-x="637" 
d="M193 0q-62 0 -102 48t-40 139q0 125 69 241q32 55 85 90.5t116 35.5q38 0 78 -13q-109 -31 -174.5 -126.5t-65.5 -212.5q0 -51 19.5 -85t57.5 -34q55 0 104 51t78.5 137.5t29.5 167.5t-6 129q22 2 25 2q85 0 85 -87q0 -23 -27.5 -195t-37.5 -301q69 25 88 56
q19 -21 19 -45q0 -33 -39.5 -48t-71.5 -25q-2 -60 -2 -120t11 -134q-59 3 -92.5 26.5t-33.5 85.5q0 31 14 104q-28 -14 -64 -41q-9 18 -9 32q0 46 86 78q32 178 41 260q-93 -216 -241 -216z" />
    <glyph glyph-name="r" unicode="r" horiz-adv-x="463" 
d="M293.5 516.5q50.5 61.5 94 61.5t65.5 -32.5t22 -82.5t-26 -86.5t-76 -36.5q-16 0 -25 2q34 49 34 100q0 36 -29 36q-23 0 -49 -27t-50 -75t-40 -125t-16 -166q0 -10 5 -85q-26 -2 -30 -2q-88 0 -88 86q0 20 21 154t21 213.5t-17 146.5q59 -23 82.5 -65.5t23.5 -99
t-9 -108.5q36 130 86.5 191.5z" />
    <glyph glyph-name="s" unicode="s" horiz-adv-x="502" 
d="M223.5 507q-26.5 -21 -26.5 -57.5t24.5 -68.5t59.5 -57t71 -51q84 -62 84 -133t-57 -115.5t-145.5 -44.5t-137 35t-48.5 82.5t24 74.5t58 27q18 0 34 -8q-22 -28 -22 -66t23.5 -64t65 -26t70.5 21.5t29 54.5t-17 58t-42.5 43t-55.5 40t-55.5 43.5t-42.5 54t-17 71.5
q0 71 54 116.5t136 45.5t120 -34t38 -76.5t-21 -70t-54 -27.5q-16 0 -37 9q26 32 26 69t-22.5 56t-56 19t-60 -21z" />
    <glyph glyph-name="t" unicode="t" horiz-adv-x="386" 
d="M396 548q0 -42 -16 -58t-47 -16h-72q-4 -26 -21 -124q-34 -186 -34 -281t14 -126q-57 21 -81 63.5t-24 103.5t7.5 115.5t21.5 127.5t20 117q-57 -8 -112 -32q-2 16 -2 29q0 48 32 64.5t92 16.5q7 74 7 110.5t-0.5 58.5t-0.5 33q46 -7 71 -40.5t25 -91.5q0 -30 -5 -73
q87 0 123 29q2 -14 2 -26z" />
    <glyph glyph-name="u" unicode="u" horiz-adv-x="606" 
d="M440 579q86 0 86 -89q0 -16 -19 -140.5t-19 -213.5t19 -157q-61 24 -84.5 68t-23.5 109q0 25 11 113q-30 -114 -93 -191.5t-117 -77.5q-114 0 -114 166q0 55 16.5 153.5t16.5 149.5t-14 103q64 0 96 -22t32 -85q0 -34 -21 -140t-21 -157q0 -74 46 -74q38 0 79.5 59.5
t69.5 154.5t28 188q0 42 -6 81q22 2 32 2z" />
    <glyph glyph-name="v" unicode="v" horiz-adv-x="516" 
d="M256 0q-24 -14 -53.5 -14t-32.5 15q-16 64 -37 191.5t-42.5 223t-51.5 144.5q36 26 71 26q45 0 64 -51.5t36 -216t30 -213.5q194 374 194 494q62 -42 62 -86.5t-41.5 -123t-104 -190t-94.5 -199.5z" />
    <glyph glyph-name="w" unicode="w" horiz-adv-x="769" 
d="M521.5 -8.5q-21.5 -5.5 -40 -5.5t-21.5 15q-14 62 -33 194t-26 172q-20 -45 -84.5 -177t-87.5 -190q-5 -4 -21.5 -9t-34.5 -5t-21 15q-15 64 -32 191.5t-36 223t-48 144.5q38 26 63.5 26t42 -11.5t27 -36t16.5 -54t10 -75t7 -87.5q9 -134 19 -217q115 267 149 395
q-11 32 -26 60q38 26 63 26t41 -11.5t26 -36t16.5 -54t11 -75t7.5 -87.5q8 -117 20 -217q50 117 76 179.5t56 159.5t31 155q62 -30 62 -97q0 -45 -35.5 -123t-89.5 -186.5t-82 -192.5q-4 -3 -25.5 -8.5z" />
    <glyph glyph-name="x" unicode="x" horiz-adv-x="555" 
d="M458 -30q-71 0 -120.5 65t-95.5 184q-101 -115 -144 -261q-55 61 -55 110q0 36 43 86t131 133q-10 30 -18 50t-16 41.5t-12 30.5t-11.5 28t-12.5 28.5t-12.5 25t-13.5 25.5q-11 20 -28 44q13 11 34 18.5t35 7.5q47 0 80 -72q14 -32 53 -154q158 154 173 235
q39 -49 39 -80.5t-18 -59t-38 -46t-65 -56t-69 -59.5q84 -237 190 -315q-27 -9 -49 -9z" />
    <glyph glyph-name="y" unicode="y" horiz-adv-x="516" 
d="M496 508q0 -35 -30 -97t-73 -136t-86 -157.5t-73 -183t-30 -190.5q0 -45 7 -86q-64 15 -86.5 44.5t-22.5 69.5q0 57 70 217q-15 62 -37 194.5t-44.5 230.5t-51.5 146q38 26 65 26q52 0 71 -53.5t33.5 -204.5t29.5 -222q196 369 196 493q62 -42 62 -91z" />
    <glyph glyph-name="z" unicode="z" horiz-adv-x="495" 
d="M98 566q96 -14 178.5 -14t136.5 5q15 31 22 57q45 -38 45 -83t-40.5 -106t-129.5 -165.5t-134 -165.5q120 -3 163.5 -3t105.5 9q5 -25 5 -52q0 -55 -76 -55q-18 0 -104.5 8t-149.5 8t-125 -17q14 75 67 94q198 205 311 395q-52 -2 -127.5 -11.5t-90.5 -9.5q-65 0 -65 65
q0 19 8 41z" />
    <glyph glyph-name="braceleft" unicode="{" horiz-adv-x="372" 
d="M213 277q24 -47 24 -92.5t-6.5 -101t-6.5 -85t14.5 -48.5t45 -19t51.5 4q0 -43 -15 -58.5t-58 -15.5q-82 0 -115 32.5t-33 96.5q0 23 7 82.5t7 95.5q0 141 -68 144l2 36q54 9 74 70q17 53 17 130v47q0 100 37 144t131 44q36 0 51 -18t15 -56q-24 3 -42 3q-48 0 -63 -23
t-15 -79q0 -107 -26 -184.5t-82 -95.5q30 -6 54 -53z" />
    <glyph glyph-name="bar" unicode="|" horiz-adv-x="456" 
d="M171 -122q0 57 7.5 227.5t7.5 277.5q0 368 -14 484q113 0 113 -64q0 -56 -7.5 -184t-7.5 -236q0 -461 14 -569q-113 0 -113 64z" />
    <glyph glyph-name="braceright" unicode="}" horiz-adv-x="372" 
d="M159 367q-24 47 -24 92.5t6.5 101t6.5 85t-14.5 48.5t-45 19t-51.5 -4q0 43 15 58.5t58 15.5q82 0 117.5 -33t35.5 -96q0 -23 -9.5 -82.5t-9.5 -95.5q0 -141 68 -144l-2 -36q-54 -9 -74 -70q-17 -53 -17 -130v-47q0 -100 -37 -144t-131 -44q-36 0 -51 18t-15 56
q24 -3 42 -3q48 0 63 23t15 79q0 107 26 184.5t82 95.5q-30 6 -54 53z" />
    <glyph glyph-name="asciitilde" unicode="~" 
d="M414 294q-41 0 -117 13t-104 13q-92 0 -134 -36q0 90 34 118q35 30 112 30q42 0 118 -13t104 -13q92 0 134 36q0 -90 -34 -118q-35 -30 -113 -30z" />
    <glyph glyph-name="nbspace" unicode="&#xa0;" horiz-adv-x="330" 
 />
    <glyph glyph-name="exclamdown" unicode="&#xa1;" horiz-adv-x="286" 
d="M41 -160q0 31 17 98q54 205 54 318q0 50 -8 69q49 -18 70 -53t21 -94.5t-25 -184.5t-25 -178.5t3 -69.5q-33 0 -70 24.5t-37 70.5zM223 437q-27 -10 -53 -10t-44 12t-18 32.5t18 72.5q27 10 53 10t44 -12t18 -32.5t-18 -72.5z" />
    <glyph glyph-name="cent" unicode="&#xa2;" 
d="M259.5 515q-47.5 -92 -47.5 -189q0 -185 104 -185q89 0 154 98q36 -8 36 -32q-59 -102 -164 -128q-20 -107 -20 -177q-17 0 -38 8q-43 15 -43 69q0 33 14 94q-67 10 -109 69.5t-42 165.5q0 136 68 237.5t186 115.5q26 114 31 171q19 0 36.5 -22t17.5 -55.5t-13 -93.5
q54 -10 79.5 -45t25.5 -79.5t-24 -78t-61 -33.5q-20 0 -49 8q16 17 29.5 48t13.5 60t-15 47.5t-47 18.5q-75 0 -122.5 -92z" />
    <glyph glyph-name="sterling" unicode="&#xa3;" 
d="M43 330l34 -1h21.5t17 0.5t14 1.5t10.5 3q12 4 14 14q31 196 89.5 283.5t151.5 87.5q71 0 105 -33t34 -78t-28 -75t-76 -30q-19 0 -37 7q21 14 35.5 38.5t14.5 48t-13 39t-39 15.5t-44.5 -13t-31 -33.5t-23.5 -61.5q-17 -69 -33 -189q69 13 107 13t59.5 -16t31.5 -53
q-15 6 -64.5 6t-142.5 -17q-23 -149 -66 -198l160 -6q90 0 157 27q-4 -65 -29 -97t-78 -32q-12 0 -83.5 8.5t-144.5 8.5t-136 -19q0 39 42 75q16 13 37 21q18 50 34 193q-24 -2 -32 -2q-60 0 -68 64z" />
    <glyph glyph-name="yen" unicode="&#xa5;" 
d="M105 395l34 -1q33 0 68 3q-56 168 -137 296q28 26 62 26q53 0 86 -81q26 -66 74 -240l18 -66q0 1 3 4q100 146 138.5 232t51.5 167q52 -45 52 -108q0 -37 -24 -82.5t-77 -121.5q59 -4 77 -68q-15 6 -53 6t-70 -3l-51 -72q33 6 68 6t56.5 -16t31.5 -53q-15 6 -58 6
t-115 -11q-16 -123 -16 -162t3 -71q-61 3 -79.5 29.5t-18.5 76t8 108.5q-46 -8 -70 -8q-60 0 -68 64l34 -1q48 0 113 12q-5 20 -19 69q-44 -4 -54 -4q-60 0 -68 64z" />
    <glyph glyph-name="brokenbar" unicode="&#xa6;" horiz-adv-x="456" 
d="M274 450q-48 0 -68 24t-20 73q0 204 -14 320q60 0 86.5 -15.5t26.5 -49.5t-5.5 -164t-5.5 -188zM182 231q48 0 68 -24t20 -73q0 -204 14 -320q-60 0 -86.5 15.5t-26.5 49.5t5.5 164t5.5 188z" />
    <glyph glyph-name="section" unicode="&#xa7;" 
d="M529 270q0 -73 -58.5 -128t-153.5 -65q8 -6 33.5 -24.5t36 -27t31.5 -26t30.5 -30t21.5 -31.5q21 -34 21 -78q0 -82 -64 -139t-166 -57t-160 47t-58 111q0 47 27.5 78t72.5 31q15 0 29 -3q-26 -43 -26 -86t32 -79.5t85 -36.5t87.5 26.5t34.5 78.5q0 31 -21 61t-52 53.5
t-68 53.5t-68 59t-52 71.5t-21 89.5q0 73 47.5 121t136.5 59q-68 48 -107 101.5t-39 133.5t55 129.5t151 49.5t143.5 -46t47.5 -101q0 -35 -25.5 -67t-69.5 -32q-23 0 -40 8q21 14 35.5 38.5t14.5 48.5q0 47 -32 71t-76 24t-72.5 -28t-28.5 -76.5t29.5 -89.5t71 -73
t83.5 -63.5t71.5 -72t29.5 -84.5zM235.5 317.5q-33.5 -31.5 -33.5 -76t33.5 -76t79.5 -31.5t78 31t32 76t-32 76.5t-78 31.5t-79.5 -31.5z" />
    <glyph glyph-name="dieresis" unicode="&#xa8;" horiz-adv-x="450" 
d="M164 682q-84 0 -84 57q0 20 15 56q22 4 38 4q84 0 84 -57q0 -20 -15 -56q-22 -4 -38 -4zM374 682q-84 0 -84 57q0 20 15 56q22 4 38 4q84 0 84 -57q0 -20 -15 -56q-22 -4 -38 -4z" />
    <glyph glyph-name="copyright" unicode="&#xa9;" horiz-adv-x="803" 
d="M380 378q-57 0 -95.5 42t-38.5 127.5t49 148t137 62.5q51 0 77 -25.5t26 -60.5t-20 -57.5t-53 -22.5q-10 0 -34 7q11 12 19 35.5t8 42.5q0 38 -29 38q-41 0 -66.5 -53.5t-25.5 -114t20 -88.5t51 -28q47 0 84 54q32 0 32 -20q-48 -87 -141 -87zM438 861q102 0 180 -61
q39 -32 62 -88.5t23 -132.5q0 -125 -90 -215.5t-248 -90.5q-102 0 -179 61q-40 32 -63 88.5t-23 132.5q0 125 90 215.5t248 90.5zM436 814q-127 0 -199 -76.5t-72 -182.5q0 -63 17.5 -110.5t47.5 -73.5q59 -51 137 -51q127 0 199 76.5t72 182.5q0 63 -17.5 110.5t-47.5 73.5
q-59 51 -137 51z" />
    <glyph glyph-name="ordfeminine" unicode="&#xaa;" horiz-adv-x="391" 
d="M201 777q31 0 57 -14l-2 21h28q61 0 61 -58q0 -22 -14.5 -98t-14.5 -121t34 -93q-96 19 -105 108q-25 -44 -60.5 -68.5t-71.5 -24.5t-60 30.5t-24 89.5q0 84 48.5 156t123.5 72zM147.5 682.5q-40.5 -56.5 -40.5 -125.5t49 -69q46 0 76 67.5t30 152.5q0 13 -2 41
q-72 -10 -112.5 -66.5z" />
    <glyph glyph-name="guillemotleft" unicode="&#xab;" horiz-adv-x="638" 
d="M222.5 531.5q28.5 32.5 61.5 32.5t68 -45q-30 -10 -59.5 -43t-66 -87t-50.5 -72q11 -19 36 -72.5t47.5 -86.5t49.5 -43q-44 -45 -85 -45q-28 0 -49 32.5t-31.5 73t-28.5 80.5t-40 51l3 20q43 20 96 131q20 41 48.5 73.5zM463.5 531.5q28.5 32.5 61.5 32.5t68 -45
q-30 -10 -59.5 -43t-66 -87t-50.5 -72q11 -19 36 -72.5t47.5 -86.5t49.5 -43q-44 -45 -85 -45q-28 0 -49 32.5t-31.5 73t-28.5 80.5t-40 51l3 20q43 20 97 131q19 41 47.5 73.5z" />
    <glyph glyph-name="logicalnot" unicode="&#xac;" 
d="M560 311l-8 -170q-20 -5 -34 -5q-57 0 -57 68q0 30 23 116q-14 1 -49 1t-126 -8.5t-148 -8.5t-79 21t-22 63q0 3 0.5 9t0.5 9q80 -10 136.5 -10t133.5 6.5t132 6.5t76 -25t21 -73z" />
    <glyph glyph-name="registered" unicode="&#xae;" horiz-adv-x="803" 
d="M413 752q115 0 115 -81q0 -32 -21 -64t-64 -49q30 -114 88 -172q-29 -6 -47.5 -6t-36.5 10.5t-30.5 32t-19.5 38t-16.5 46t-12.5 38.5l-22 -2q-11 -80 -11 -160q-12 -2 -27 -2q-55 0 -55 38q0 20 20 135.5t22 176.5q59 21 118 21zM422.5 603q27.5 25 27.5 50q0 53 -47 53
q-17 0 -37 -7q-7 -66 -16 -124q45 3 72.5 28zM436 814q-127 0 -199 -76.5t-72 -182.5q0 -63 17.5 -110.5t47.5 -73.5q59 -51 137 -51q127 0 199 76.5t72 182.5q0 63 -17.5 110.5t-47.5 73.5q-59 51 -137 51zM438 861q102 0 180 -61q39 -32 62 -88.5t23 -132.5
q0 -125 -90 -215.5t-248 -90.5q-102 0 -179 61q-40 32 -63 88.5t-23 132.5q0 125 90 215.5t248 90.5z" />
    <glyph glyph-name="macron" unicode="&#xaf;" horiz-adv-x="424" 
d="M224 772q45 6 77.5 6t45 -18t12.5 -60q0 -3 -0.5 -8.5t-0.5 -9.5q-42 9 -77.5 9t-80.5 -6t-77.5 -6t-45 18t-12.5 60q0 3 0.5 8.5t0.5 9.5q42 -9 77.5 -9t80.5 6z" />
    <glyph glyph-name="degree" unicode="&#xb0;" horiz-adv-x="404" 
d="M229 784q57 0 97 -35.5t40 -111.5t-51 -131.5t-140 -55.5q-57 0 -97 35.5t-40 111t51 131.5t140 56zM212 729q-42 0 -64.5 -34.5t-22.5 -86.5t19.5 -77.5t48.5 -25.5q42 0 64.5 34.5t22.5 85.5t-19.5 77.5t-48.5 26.5z" />
    <glyph glyph-name="plusminus" unicode="&#xb1;" 
d="M401 408l-45 -1q-2 -70 -5 -114.5t-19.5 -67.5t-46 -23t-42.5 2q14 70 18 196q-45 -3 -102.5 -3t-78 21t-20.5 63q0 3 0.5 9t0.5 9q61 -8 124 -8t78 1q0 57 4 107.5t21 73.5t47 23t41 -2q-16 -80 -18 -196q60 4 110.5 4t71 -21t20.5 -63q0 -3 -0.5 -9t-0.5 -9
q-61 8 -158 8zM308 108.5q77 5.5 132.5 5.5t76 -21t20.5 -63q0 -3 -0.5 -9t-0.5 -9q-61 8 -127 8t-143 -5.5t-132.5 -5.5t-76 21t-20.5 63q0 3 0.5 9t0.5 9q61 -8 127 -8t143 5.5z" />
    <glyph glyph-name="twosuperior" unicode="&#xb2;" horiz-adv-x="353" 
d="M240 278l-143 10q-57 0 -104 -19q0 34 21 58t49 30q164 144 164 241q0 33 -17.5 49.5t-41.5 16.5t-39 -14.5t-15 -44.5t20 -55q-11 -4 -31 -4t-39.5 18.5t-19.5 56.5t34 70t93.5 32t100.5 -30.5t41 -87t-48 -120.5t-140 -126q52 -2 77 -2q61 0 111 21q-3 -54 -18.5 -77
t-54.5 -23z" />
    <glyph glyph-name="threesuperior" unicode="&#xb3;" horiz-adv-x="360" 
d="M294 615q0 -33 -19.5 -61.5t-56.5 -42.5q35 -9 58.5 -41t23.5 -67q0 -53 -41 -94.5t-107 -41.5t-101.5 25.5t-35.5 62t16 57.5t45 21q12 0 26 -5q-17 -20 -17 -46t16 -43.5t45 -17.5t51 20t22 51.5t-22.5 54.5t-65.5 28q-11 -2 -29 -4l-5 32q126 17 126 101q0 29 -17 45
t-39.5 16t-37.5 -14t-15 -39t17 -46q-9 -4 -27 -4t-35 16t-17 49.5t31 64t85 30.5t90 -27.5t36 -79.5z" />
    <glyph glyph-name="acute" unicode="&#xb4;" horiz-adv-x="372" 
d="M98 652q25 56 81.5 117.5t109.5 82.5q46 -30 48 -82q-58 -18 -114.5 -62t-92.5 -89q-12 3 -21.5 12.5t-10.5 20.5z" />
    <glyph glyph-name="mu" unicode="&#xb5;" horiz-adv-x="606" 
d="M442 579q41 0 62.5 -19t21.5 -70q0 -16 -19 -140.5t-19 -213.5t19 -157q-60 24 -84 68t-24 109q0 25 11 113q-37 -125 -102 -196.5t-160 -71.5q-28 -140 -28 -214.5t8 -93.5q-52 18 -71.5 52t-19.5 91.5t41 276t41 349.5q0 58 -14 110q68 0 98 -21.5t30 -85.5
q0 -34 -21 -140t-21 -157q0 -74 46 -74q34 0 75.5 55t71.5 147t30 184q0 48 -6 97q24 2 34 2z" />
    <glyph glyph-name="paragraph" unicode="&#xb6;" 
d="M377 -299q-24 26 -24 88t41 422q-151 57 -231.5 150t-80.5 200.5t64 179t184 71.5q98 0 151 -52.5t53 -157.5q0 -44 -37 -368.5t-37 -472.5q0 -32 4 -90q-63 4 -87 30zM333 742q-67 0 -99 -45.5t-32 -122.5t58 -152.5t146 -115.5q30 311 30 376q-16 29 -44 44.5t-59 15.5
zM206.5 23.5q20.5 147.5 25.5 184.5q33 -26 84 -48q-5 -39 -13 -99t-11 -91q-11 -95 -11 -175.5t28 -113.5q-60 4 -91.5 27t-31.5 95.5t20.5 220z" />
    <glyph glyph-name="periodcentered" unicode="&#xb7;" horiz-adv-x="303" 
d="M155 249q-65 0 -65 54q0 19 18 73q30 10 60 10q65 0 65 -54q0 -19 -18 -73q-30 -10 -60 -10z" />
    <glyph glyph-name="cedilla" unicode="&#xb8;" horiz-adv-x="292" 
d="M202.5 -74.5q29.5 -30.5 29.5 -81t-34.5 -95t-93.5 -62.5q-39 17 -39 70q43 9 68 35.5t25 61.5q0 55 -54 79q0 13 6 27q63 -4 92.5 -34.5z" />
    <glyph glyph-name="onesuperior" unicode="&#xb9;" horiz-adv-x="286" 
d="M226 724q-28 -224 -28 -320t2 -126q-18 -3 -35 -3q-54 0 -54 65q0 61 12.5 158t14.5 120q-50 -28 -76 -28q-15 0 -28.5 23.5t-13.5 40.5q115 27 206 70z" />
    <glyph glyph-name="ordmasculine" unicode="&#xba;" horiz-adv-x="380" 
d="M219 740q-42 0 -75 -52.5t-33 -105.5q0 -109 65 -109q44 0 70.5 52t26.5 118q0 97 -54 97zM197 772q25 14 58 14t59 -36.5t26 -94.5t-17 -107.5t-58.5 -85t-96.5 -35.5t-93.5 41t-38.5 118.5t36 135.5t95 74q12 0 21 -7t9 -17z" />
    <glyph glyph-name="guillemotright" unicode="&#xbb;" horiz-adv-x="638" 
d="M415.5 102.5q-28.5 -32.5 -61.5 -32.5t-68 45q30 10 59.5 43t66 87t50.5 72q-11 19 -36 72.5t-47.5 86.5t-49.5 43q44 45 85 45q28 0 49 -32.5t31.5 -73t28.5 -80.5t40 -51l-3 -20q-43 -20 -96 -131q-20 -41 -48.5 -73.5zM174.5 102.5q-28.5 -32.5 -61.5 -32.5t-68 45
q30 10 59.5 43t66 87t50.5 72q-11 19 -36 72.5t-47.5 86.5t-49.5 43q44 45 85 45q28 0 49 -32.5t31.5 -73t28.5 -80.5t40 -51l-3 -20q-43 -20 -97 -131q-19 -41 -47.5 -73.5z" />
    <glyph glyph-name="onequarter" unicode="&#xbc;" horiz-adv-x="880" 
d="M566 661q0 -35 -47.5 -170t-102.5 -303t-69 -270q-7 0 -21 8t-23 17q-24 24 -24 70t54.5 188.5t117.5 310.5t78 256q14 -14 25.5 -43t11.5 -64zM272 672q-28 -224 -28 -320t2 -126q-18 -3 -35 -3q-54 0 -54 65q0 61 12.5 158t14.5 120q-50 -28 -76 -28q-15 0 -28.5 23.5
t-13.5 40.5q115 27 206 70zM518 78q-18 19 -18 38t29 64q101 157 125 270q21 -9 40 -32t19 -42.5t-16 -50.5t-34 -57.5t-50 -70t-46 -64.5q81 2 129 5q5 42 5 93q14 4 33 4q37 0 37 -41q0 -12 -6 -48l39 4q7 -25 7 -36q0 -42 -52 -45q0 -59 6 -91q-16 -3 -39 -3
q-46 0 -46 50q0 26 4 45q-144 2 -166 8z" />
    <glyph glyph-name="onehalf" unicode="&#xbd;" horiz-adv-x="880" 
d="M555 661q0 -35 -47.5 -170t-102.5 -303t-69 -270q-7 0 -21 8t-23 17q-24 24 -24 70t54.5 188.5t117.5 310.5t78 256q14 -14 25.5 -43t11.5 -64zM272 672q-28 -224 -28 -320t2 -126q-18 -3 -35 -3q-54 0 -54 65q0 61 12.5 158t14.5 120q-50 -28 -76 -28q-15 0 -28.5 23.5
t-13.5 40.5q115 27 206 70zM714 -22l-143 10q-57 0 -104 -19q0 34 21 58t49 30q164 144 164 241q0 33 -17.5 49.5t-41.5 16.5t-39 -14.5t-15 -44.5t20 -55q-11 -4 -31 -4t-39.5 18.5t-19.5 56.5t34 70t93.5 32t100.5 -30.5t41 -87t-48 -120.5t-140 -126q52 -2 77 -2
q61 0 111 21q-3 -54 -18.5 -77t-54.5 -23z" />
    <glyph glyph-name="threequarters" unicode="&#xbe;" horiz-adv-x="880" 
d="M592 661q0 -35 -47.5 -170t-102.5 -303t-69 -270q-7 0 -21 8t-23 17q-24 24 -24 70t54.5 188.5t117.5 310.5t78 256q14 -14 25.5 -43t11.5 -64zM334 563q0 -33 -19.5 -61.5t-56.5 -42.5q35 -9 58.5 -41t23.5 -67q0 -53 -41 -94.5t-107 -41.5t-101.5 25.5t-35.5 62
t16 57.5t45 21q12 0 26 -5q-17 -20 -17 -46t16 -43.5t45 -17.5t51 20t22 51.5t-22.5 54.5t-65.5 28q-11 -2 -29 -4l-5 32q126 17 126 101q0 29 -17 45t-39.5 16t-37.5 -14t-15 -39t17 -46q-9 -4 -27 -4t-35 16t-17 49.5t31 64t85 30.5t90 -27.5t36 -79.5zM518 78
q-18 19 -18 38t29 64q101 157 125 270q21 -9 40 -32t19 -42.5t-16 -50.5t-34 -57.5t-50 -70t-46 -64.5q81 2 129 5q5 42 5 93q14 4 33 4q37 0 37 -41q0 -12 -6 -48l39 4q7 -25 7 -36q0 -42 -52 -45q0 -59 6 -91q-16 -3 -39 -3q-46 0 -46 50q0 26 4 45q-144 2 -166 8z" />
    <glyph glyph-name="questiondown" unicode="&#xbf;" horiz-adv-x="373" 
d="M264 292.5q19 -26.5 19 -64t-23.5 -69.5t-57 -58.5t-67 -53.5t-57 -62.5t-23.5 -76t27 -63.5t70.5 -23t69.5 27t26 65.5t-25 68.5q17 8 44 8t49 -22.5t22 -57.5q0 -64 -60 -104t-138 -40t-131.5 38.5t-53.5 121.5q0 45 25.5 84.5t61.5 68.5t72 57q88 67 88 138
q0 36 -11 62q54 -18 73 -44.5zM284 437q-27 -10 -53 -10t-44 12t-18 32.5t18 72.5q27 10 53 10t44 -12t18 -32.5t-18 -72.5z" />
    <glyph glyph-name="Agrave" unicode="&#xc0;" horiz-adv-x="645" 
d="M-5 44q0 19 55 141.5t127.5 281t98.5 226.5l22 57q-16 24 -35 43q31 12 59 12q63 0 98 -80q22 -51 59 -228q1 -2 3 -13t20.5 -101.5t25.5 -120t24 -90.5q27 -103 68 -160q-47 -28 -77.5 -28t-44 18.5t-25 57t-48.5 214.5q-22 -34 -88 -36l-178 -7q-57 -154 -83 -264
q-81 34 -81 77zM333 661q-115 -273 -147 -355h232q-47 229 -85 355zM491 881q-1 -11 -10.5 -20.5t-21.5 -12.5q-36 45 -92.5 89t-114.5 62q2 52 48 82q53 -21 109.5 -82.5t81.5 -117.5z" />
    <glyph glyph-name="Aacute" unicode="&#xc1;" horiz-adv-x="645" 
d="M-5 44q0 19 55 141.5t127.5 281t98.5 226.5l22 57q-16 24 -35 43q31 12 59 12q63 0 98 -80q22 -51 59 -228q1 -2 3 -13t20.5 -101.5t25.5 -120t24 -90.5q27 -103 68 -160q-47 -28 -77.5 -28t-44 18.5t-25 57t-48.5 214.5q-22 -34 -88 -36l-178 -7q-57 -154 -83 -264
q-81 34 -81 77zM333 661q-115 -273 -147 -355h232q-47 229 -85 355zM241 881q25 56 81.5 117.5t109.5 82.5q46 -30 48 -82q-58 -18 -114.5 -62t-92.5 -89q-12 3 -21.5 12.5t-10.5 20.5z" />
    <glyph glyph-name="Acircumflex" unicode="&#xc2;" horiz-adv-x="645" 
d="M-5 44q0 19 55 141.5t127.5 281t98.5 226.5l22 57q-16 24 -35 43q31 12 59 12q63 0 98 -80q22 -51 59 -228q1 -2 3 -13t20.5 -101.5t25.5 -120t24 -90.5q27 -103 68 -160q-47 -28 -77.5 -28t-44 18.5t-25 57t-48.5 214.5q-22 -34 -88 -36l-178 -7q-57 -154 -83 -264
q-81 34 -81 77zM333 661q-115 -273 -147 -355h232q-47 229 -85 355zM526 881q-24 -11 -58 -11t-53.5 27t-34.5 104q-51 -93 -133 -147q-38 30 -39 76q69 45 92.5 67t31.5 30t25.5 29.5t21.5 25.5q60 0 69 -61q4 -26 23 -66t55 -74z" />
    <glyph glyph-name="Atilde" unicode="&#xc3;" horiz-adv-x="645" 
d="M-5 44q0 19 55 141.5t127.5 281t98.5 226.5l22 57q-16 24 -35 43q31 12 59 12q63 0 98 -80q22 -51 59 -228q1 -2 3 -13t20.5 -101.5t25.5 -120t24 -90.5q27 -103 68 -160q-47 -28 -77.5 -28t-44 18.5t-25 57t-48.5 214.5q-22 -34 -88 -36l-178 -7q-57 -154 -83 -264
q-81 34 -81 77zM333 661q-115 -273 -147 -355h232q-47 229 -85 355zM495.5 930q-25.5 -24 -55 -24t-73.5 14.5t-61 14.5q-44 0 -68 -34q-21 0 -26 17q8 54 33.5 78t55 24t73.5 -14.5t61 -14.5q44 0 68 34q21 0 26 -17q-8 -54 -33.5 -78z" />
    <glyph glyph-name="Adieresis" unicode="&#xc4;" horiz-adv-x="645" 
d="M-5 44q0 19 55 141.5t127.5 281t98.5 226.5l22 57q-16 24 -35 43q31 12 59 12q63 0 98 -80q22 -51 59 -228q1 -2 3 -13t20.5 -101.5t25.5 -120t24 -90.5q27 -103 68 -160q-47 -28 -77.5 -28t-44 18.5t-25 57t-48.5 214.5q-22 -34 -88 -36l-178 -7q-57 -154 -83 -264
q-81 34 -81 77zM333 661q-115 -273 -147 -355h232q-47 229 -85 355zM282 911q-84 0 -84 57q0 20 15 56q22 4 38 4q84 0 84 -57q0 -20 -15 -56q-22 -4 -38 -4zM492 911q-84 0 -84 57q0 20 15 56q22 4 38 4q84 0 84 -57q0 -20 -15 -56q-22 -4 -38 -4z" />
    <glyph glyph-name="Aring" unicode="&#xc5;" horiz-adv-x="645" 
d="M-5 44q0 19 55 141.5t127.5 281t98.5 226.5l22 57q-16 24 -35 43q31 12 59 12q63 0 98 -80q22 -51 59 -228q1 -2 3 -13t20.5 -101.5t25.5 -120t24 -90.5q27 -103 68 -160q-47 -28 -77.5 -28t-44 18.5t-25 57t-48.5 214.5q-22 -34 -88 -36l-178 -7q-57 -154 -83 -264
q-81 34 -81 77zM333 661q-115 -273 -147 -355h232q-47 229 -85 355zM425 979q0 41 -48 41q-23 0 -45 -5q-12 -34 -12 -57q0 -41 48 -41q23 0 45 5q12 34 12 57zM361 853q-45 0 -76 21.5t-31 68t28 124.5q57 17 102 17t76 -21.5t31 -68t-28 -124.5q-57 -17 -102 -17z" />
    <glyph glyph-name="AE" unicode="&#xc6;" horiz-adv-x="941" 
d="M587 683q0 -49 -31 -266q41 -1 90 -1q88 0 125 29q2 -16 2 -26q0 -79 -63 -79q-109 0 -164 1q-16 -144 -16 -257q231 0 334 30q-7 -58 -39.5 -90t-81.5 -32q-14 0 -86.5 6.5t-140.5 6.5t-136 -13q8 33 38 57q-1 6 -1 39t31 252q-109 -2 -180 -31q-2 18 -2 29
q0 48 32 64.5t80.5 16.5t80.5 -1q22 161 25 280q-47 8 -76 11q-25 -61 -98 -201q-196 -372 -249 -541q-76 19 -76 77q0 20 63.5 139.5t150 276t117.5 221.5l52 109q139 -19 280 -19t251 22q-8 -52 -50 -74q-45 -24 -83 -27q-48 -5 -100 -5t-79 2v-6z" />
    <glyph glyph-name="Ccedilla" unicode="&#xc7;" horiz-adv-x="687" 
d="M323 -15q-111 0 -187 90t-76 262q0 127 41 231.5t128.5 171t197.5 66.5t160 -53.5t50 -122.5t-35 -110.5t-91 -41.5q-18 0 -44 8q23 24 40.5 67.5t17.5 87.5t-23.5 75.5t-74.5 31.5q-77 0 -137.5 -63.5t-91 -156t-30.5 -190.5q0 -138 53 -206.5t137 -68.5q56 0 115 34
t97 98q15 0 28 -9t13 -18q-56 -106 -141 -147q-74 -36 -147 -36zM342.5 -74.5q29.5 -30.5 29.5 -81t-34.5 -95t-93.5 -62.5q-39 17 -39 70q43 9 68 35.5t25 61.5q0 55 -54 79q0 13 6 27q63 -4 92.5 -34.5z" />
    <glyph glyph-name="Egrave" unicode="&#xc8;" horiz-adv-x="631" 
d="M400 340l-89 1q-49 0 -75 -2q-16 -142 -16 -255q231 0 334 30q-7 -58 -39.5 -90t-81.5 -32q-14 0 -86.5 6.5t-140.5 6.5t-136 -13q8 33 38 57q-1 6 -1 38t29 237q-28 -7 -48 -15q-2 18 -2 29q0 61 62 76q23 168 25 268q-26 2 -36.5 13t-10.5 39.5t8 50.5q103 -14 224 -14
t231 22q-6 -38 -27.5 -61.5t-68.5 -33.5t-78 -12q-56 -5 -138 -5q-1 -36 -31 -263q62 -2 90 -2q88 0 125 29q2 -16 2 -26q0 -79 -63 -79zM496 881q-1 -11 -10.5 -20.5t-21.5 -12.5q-36 45 -92.5 89t-114.5 62q2 52 48 82q53 -21 109.5 -82.5t81.5 -117.5z" />
    <glyph glyph-name="Eacute" unicode="&#xc9;" horiz-adv-x="631" 
d="M400 340l-89 1q-49 0 -75 -2q-16 -142 -16 -255q231 0 334 30q-7 -58 -39.5 -90t-81.5 -32q-14 0 -86.5 6.5t-140.5 6.5t-136 -13q8 33 38 57q-1 6 -1 38t29 237q-28 -7 -48 -15q-2 18 -2 29q0 61 62 76q23 168 25 268q-26 2 -36.5 13t-10.5 39.5t8 50.5q103 -14 224 -14
t231 22q-6 -38 -27.5 -61.5t-68.5 -33.5t-78 -12q-56 -5 -138 -5q-1 -36 -31 -263q62 -2 90 -2q88 0 125 29q2 -16 2 -26q0 -79 -63 -79zM296 881q25 56 81.5 117.5t109.5 82.5q46 -30 48 -82q-58 -18 -114.5 -62t-92.5 -89q-12 3 -21.5 12.5t-10.5 20.5z" />
    <glyph glyph-name="Ecircumflex" unicode="&#xca;" horiz-adv-x="631" 
d="M400 340l-89 1q-49 0 -75 -2q-16 -142 -16 -255q231 0 334 30q-7 -58 -39.5 -90t-81.5 -32q-14 0 -86.5 6.5t-140.5 6.5t-136 -13q8 33 38 57q-1 6 -1 38t29 237q-28 -7 -48 -15q-2 18 -2 29q0 61 62 76q23 168 25 268q-26 2 -36.5 13t-10.5 39.5t8 50.5q103 -14 224 -14
t231 22q-6 -38 -27.5 -61.5t-68.5 -33.5t-78 -12q-56 -5 -138 -5q-1 -36 -31 -263q62 -2 90 -2q88 0 125 29q2 -16 2 -26q0 -79 -63 -79zM533 881q-24 -11 -58 -11t-53.5 27t-34.5 104q-51 -93 -133 -147q-38 30 -39 76q69 45 92.5 67t31.5 30t25.5 29.5t21.5 25.5
q60 0 69 -61q4 -26 23 -66t55 -74z" />
    <glyph glyph-name="Edieresis" unicode="&#xcb;" horiz-adv-x="631" 
d="M400 340l-89 1q-49 0 -75 -2q-16 -142 -16 -255q231 0 334 30q-7 -58 -39.5 -90t-81.5 -32q-14 0 -86.5 6.5t-140.5 6.5t-136 -13q8 33 38 57q-1 6 -1 38t29 237q-28 -7 -48 -15q-2 18 -2 29q0 61 62 76q23 168 25 268q-26 2 -36.5 13t-10.5 39.5t8 50.5q103 -14 224 -14
t231 22q-6 -38 -27.5 -61.5t-68.5 -33.5t-78 -12q-56 -5 -138 -5q-1 -36 -31 -263q62 -2 90 -2q88 0 125 29q2 -16 2 -26q0 -79 -63 -79zM294 911q-84 0 -84 57q0 20 15 56q22 4 38 4q84 0 84 -57q0 -20 -15 -56q-22 -4 -38 -4zM504 911q-84 0 -84 57q0 20 15 56q22 4 38 4
q84 0 84 -57q0 -20 -15 -56q-22 -4 -38 -4z" />
    <glyph glyph-name="Igrave" unicode="&#xcc;" horiz-adv-x="344" 
d="M254 731.5q3 -16.5 3 -56.5t-33 -266t-33 -316.5t14 -123.5q-62 22 -87.5 59.5t-25.5 88t21 205.5q37 257 37 398q0 30 -4 82q76 -4 95 -36q10 -18 13 -34.5zM330 881q-1 -11 -10.5 -20.5t-21.5 -12.5q-36 45 -92.5 89t-114.5 62q2 52 48 82q53 -21 109.5 -82.5
t81.5 -117.5z" />
    <glyph glyph-name="Iacute" unicode="&#xcd;" horiz-adv-x="344" 
d="M254 731.5q3 -16.5 3 -56.5t-33 -266t-33 -316.5t14 -123.5q-62 22 -87.5 59.5t-25.5 88t21 205.5q37 257 37 398q0 30 -4 82q76 -4 95 -36q10 -18 13 -34.5zM99 881q25 56 81.5 117.5t109.5 82.5q46 -30 48 -82q-58 -18 -114.5 -62t-92.5 -89q-12 3 -21.5 12.5
t-10.5 20.5z" />
    <glyph glyph-name="Icircumflex" unicode="&#xce;" horiz-adv-x="344" 
d="M254 731.5q3 -16.5 3 -56.5t-33 -266t-33 -316.5t14 -123.5q-62 22 -87.5 59.5t-25.5 88t21 205.5q37 257 37 398q0 30 -4 82q76 -4 95 -36q10 -18 13 -34.5zM367 881q-24 -11 -58 -11t-53.5 27t-34.5 104q-51 -93 -133 -147q-38 30 -39 76q69 45 92.5 67t31.5 30
t25.5 29.5t21.5 25.5q60 0 69 -61q4 -26 23 -66t55 -74z" />
    <glyph glyph-name="Idieresis" unicode="&#xcf;" horiz-adv-x="344" 
d="M254 731.5q3 -16.5 3 -56.5t-33 -266t-33 -316.5t14 -123.5q-62 22 -87.5 59.5t-25.5 88t21 205.5q37 257 37 398q0 30 -4 82q76 -4 95 -36q10 -18 13 -34.5zM134 911q-84 0 -84 57q0 20 15 56q22 4 38 4q84 0 84 -57q0 -20 -15 -56q-22 -4 -38 -4zM344 911q-84 0 -84 57
q0 20 15 56q22 4 38 4q84 0 84 -57q0 -20 -15 -56q-22 -4 -38 -4z" />
    <glyph glyph-name="Eth" unicode="&#xd0;" horiz-adv-x="760" 
d="M413 802q138 0 217 -109t79 -274q0 -168 -91 -296q-44 -63 -118.5 -100.5t-154 -37.5t-140 17t-87.5 34l-28 17q3 24 17.5 122.5t22.5 168.5h-9q-54 0 -71.5 21t-17.5 63q0 3 0.5 9t0.5 9q35 -8 107 -8q16 162 16 269t-14 140q83 -28 104 -88q89 43 167 43zM206 70
q44 -15 107 -15t122 32.5t95 86.5q74 109 74 246t-61 221t-164 84q-69 0 -120 -23q0 -59 -21 -261q112 8 138 8q54 0 71.5 -21t17.5 -63q0 -3 -0.5 -9t-0.5 -9q-37 8 -102.5 8t-133.5 -6q-22 -203 -22 -279z" />
    <glyph glyph-name="Ntilde" unicode="&#xd1;" horiz-adv-x="821" 
d="M185 78q0 -31 4 -83q-104 0 -104 63q0 10 38.5 272t38.5 364l-6 9q-18 27 -34.5 39t-30.5 20.5t-16 10.5q41 29 80 29q70 0 110 -60q57 -87 193 -367q88 -181 135 -250q2 62 28 268t26 327q0 31 -4 81q103 0 103 -61q0 -11 -38 -279t-38 -371q0 -37 2 -54q8 -7 26 -17
q-52 -40 -96 -40t-78 59q-17 25 -65 116q-169 323 -225 421q-2 -24 -25.5 -205t-23.5 -292zM598.5 930q-25.5 -24 -55 -24t-73.5 14.5t-61 14.5q-44 0 -68 -34q-21 0 -26 17q8 54 33.5 78t55 24t73.5 -14.5t61 -14.5q44 0 68 34q21 0 26 -17q-8 -54 -33.5 -78z" />
    <glyph glyph-name="Ograve" unicode="&#xd2;" horiz-adv-x="802" 
d="M579 664q-45 67 -122 67t-142 -61t-99 -152.5t-34 -187.5q0 -129 47.5 -212t142.5 -83q77 0 136 63t87.5 156t28.5 196q0 147 -45 214zM502.5 5q-64.5 -30 -141 -30t-135 36t-92.5 96q-69 122 -69 279t77 279.5t200 161.5q17 -4 19 -16q-70 -43 -114.5 -101t-61.5 -157
q42 117 131 184t186.5 67t166 -83.5t68.5 -241.5q0 -154 -55 -279q-29 -66 -72 -115.5t-107.5 -79.5zM581 881q-1 -11 -10.5 -20.5t-21.5 -12.5q-36 45 -92.5 89t-114.5 62q2 52 48 82q53 -21 109.5 -82.5t81.5 -117.5z" />
    <glyph glyph-name="Oacute" unicode="&#xd3;" horiz-adv-x="802" 
d="M579 664q-45 67 -122 67t-142 -61t-99 -152.5t-34 -187.5q0 -129 47.5 -212t142.5 -83q77 0 136 63t87.5 156t28.5 196q0 147 -45 214zM502.5 5q-64.5 -30 -141 -30t-135 36t-92.5 96q-69 122 -69 279t77 279.5t200 161.5q17 -4 19 -16q-70 -43 -114.5 -101t-61.5 -157
q42 117 131 184t186.5 67t166 -83.5t68.5 -241.5q0 -154 -55 -279q-29 -66 -72 -115.5t-107.5 -79.5zM391 881q25 56 81.5 117.5t109.5 82.5q46 -30 48 -82q-58 -18 -114.5 -62t-92.5 -89q-12 3 -21.5 12.5t-10.5 20.5z" />
    <glyph glyph-name="Ocircumflex" unicode="&#xd4;" horiz-adv-x="802" 
d="M579 664q-45 67 -122 67t-142 -61t-99 -152.5t-34 -187.5q0 -129 47.5 -212t142.5 -83q77 0 136 63t87.5 156t28.5 196q0 147 -45 214zM502.5 5q-64.5 -30 -141 -30t-135 36t-92.5 96q-69 122 -69 279t77 279.5t200 161.5q17 -4 19 -16q-70 -43 -114.5 -101t-61.5 -157
q42 117 131 184t186.5 67t166 -83.5t68.5 -241.5q0 -154 -55 -279q-29 -66 -72 -115.5t-107.5 -79.5zM679 881q-24 -11 -58 -11t-53.5 27t-34.5 104q-51 -93 -133 -147q-38 30 -39 76q69 45 92.5 67t31.5 30t25.5 29.5t21.5 25.5q60 0 69 -61q4 -26 23 -66t55 -74z" />
    <glyph glyph-name="Otilde" unicode="&#xd5;" horiz-adv-x="802" 
d="M579 664q-45 67 -122 67t-142 -61t-99 -152.5t-34 -187.5q0 -129 47.5 -212t142.5 -83q77 0 136 63t87.5 156t28.5 196q0 147 -45 214zM502.5 5q-64.5 -30 -141 -30t-135 36t-92.5 96q-69 122 -69 279t77 279.5t200 161.5q17 -4 19 -16q-70 -43 -114.5 -101t-61.5 -157
q42 117 131 184t186.5 67t166 -83.5t68.5 -241.5q0 -154 -55 -279q-29 -66 -72 -115.5t-107.5 -79.5zM643.5 930q-25.5 -24 -55 -24t-73.5 14.5t-61 14.5q-44 0 -68 -34q-21 0 -26 17q8 54 33.5 78t55 24t73.5 -14.5t61 -14.5q44 0 68 34q21 0 26 -17q-8 -54 -33.5 -78z" />
    <glyph glyph-name="Odieresis" unicode="&#xd6;" horiz-adv-x="802" 
d="M579 664q-45 67 -122 67t-142 -61t-99 -152.5t-34 -187.5q0 -129 47.5 -212t142.5 -83q77 0 136 63t87.5 156t28.5 196q0 147 -45 214zM502.5 5q-64.5 -30 -141 -30t-135 36t-92.5 96q-69 122 -69 279t77 279.5t200 161.5q17 -4 19 -16q-70 -43 -114.5 -101t-61.5 -157
q42 117 131 184t186.5 67t166 -83.5t68.5 -241.5q0 -154 -55 -279q-29 -66 -72 -115.5t-107.5 -79.5zM426 911q-84 0 -84 57q0 20 15 56q22 4 38 4q84 0 84 -57q0 -20 -15 -56q-22 -4 -38 -4zM636 911q-84 0 -84 57q0 20 15 56q22 4 38 4q84 0 84 -57q0 -20 -15 -56
q-22 -4 -38 -4z" />
    <glyph glyph-name="multiply" unicode="&#xd7;" 
d="M223 176.5q-33 -31.5 -62.5 -31.5t-69.5 27q44 42 151 173l-11 9q-50 40 -71 58.5t-41 45t-20 51t27 64.5q61 -64 175 -153l10 11q11 13 28.5 34.5t25.5 31t20.5 23.5t20 20t18.5 13q18 12 41 12t63 -27q-45 -43 -152 -174l11 -9q52 -41 74 -60t40 -44.5t18 -50
t-27 -64.5q-63 64 -176 153l-8 -10q-52 -71 -85 -102.5z" />
    <glyph glyph-name="Oslash" unicode="&#xd8;" horiz-adv-x="802" 
d="M498 804l18 -1q28 78 37 127q5 -4 13.5 -11.5t22 -34t13.5 -46.5t-9 -56q66 -32 105 -109t39 -194q0 -154 -55 -279q-29 -66 -72 -115.5t-107.5 -79.5t-143.5 -30q-32 0 -64 8q-15 -54 -22 -103q-8 0 -26 8t-29 17t-20 28t-9 39t11 58q-67 54 -101 149t-34 200
q0 164 77 286.5t200 161.5q17 -4 19 -16q-70 -43 -114.5 -101t-61.5 -157q42 117 131 184t182 67zM624 450q0 167 -63 237q-9 -25 -109 -274t-138 -369q27 -9 58 -9q77 0 136 63t87.5 156t28.5 196zM458 731q-78 0 -143 -61t-99 -152.5t-34 -187.5q0 -137 49 -215
q30 77 124.5 294.5t133.5 318.5q-15 3 -31 3z" />
    <glyph glyph-name="Ugrave" unicode="&#xd9;" horiz-adv-x="755" 
d="M665 731.5q3 -16.5 3 -56.5t-33 -266t-33 -316.5t14 -123.5q-62 22 -87.5 59.5t-25.5 100.5q0 31 2 50q-85 -199 -251 -199q-83 0 -125 57.5t-42 182.5q0 71 22.5 256t22.5 240.5t-11 85.5q60 -22 86 -57t26 -96.5t-21.5 -198t-21.5 -224.5t28 -126t80 -38q54 0 106 46
q66 59 106 192q23 76 35 174q0 3 2.5 3t13 -13t12.5 -13l-9 -63q-23 -125 -59 -209q4 40 19 143q37 257 37 398q0 30 -4 82q76 -4 95 -36q10 -18 13 -34.5zM574 455l-1 -4q1 0 1 4zM499 881q-1 -11 -10.5 -20.5t-21.5 -12.5q-36 45 -92.5 89t-114.5 62q2 52 48 82
q53 -21 109.5 -82.5t81.5 -117.5z" />
    <glyph glyph-name="Uacute" unicode="&#xda;" horiz-adv-x="755" 
d="M665 731.5q3 -16.5 3 -56.5t-33 -266t-33 -316.5t14 -123.5q-62 22 -87.5 59.5t-25.5 100.5q0 31 2 50q-85 -199 -251 -199q-83 0 -125 57.5t-42 182.5q0 71 22.5 256t22.5 240.5t-11 85.5q60 -22 86 -57t26 -96.5t-21.5 -198t-21.5 -224.5t28 -126t80 -38q54 0 106 46
q66 59 106 192q23 76 35 174q0 3 2.5 3t13 -13t12.5 -13l-9 -63q-23 -125 -59 -209q4 40 19 143q37 257 37 398q0 30 -4 82q76 -4 95 -36q10 -18 13 -34.5zM574 455l-1 -4q1 0 1 4zM307 881q25 56 81.5 117.5t109.5 82.5q46 -30 48 -82q-58 -18 -114.5 -62t-92.5 -89
q-12 3 -21.5 12.5t-10.5 20.5z" />
    <glyph glyph-name="Ucircumflex" unicode="&#xdb;" horiz-adv-x="755" 
d="M665 731.5q3 -16.5 3 -56.5t-33 -266t-33 -316.5t14 -123.5q-62 22 -87.5 59.5t-25.5 100.5q0 31 2 50q-85 -199 -251 -199q-83 0 -125 57.5t-42 182.5q0 71 22.5 256t22.5 240.5t-11 85.5q60 -22 86 -57t26 -96.5t-21.5 -198t-21.5 -224.5t28 -126t80 -38q54 0 106 46
q66 59 106 192q23 76 35 174q0 3 2.5 3t13 -13t12.5 -13l-9 -63q-23 -125 -59 -209q4 40 19 143q37 257 37 398q0 30 -4 82q76 -4 95 -36q10 -18 13 -34.5zM574 455l-1 -4q1 0 1 4zM575 881q-24 -11 -58 -11t-53.5 27t-34.5 104q-51 -93 -133 -147q-38 30 -39 76
q69 45 92.5 67t31.5 30t25.5 29.5t21.5 25.5q60 0 69 -61q4 -26 23 -66t55 -74z" />
    <glyph glyph-name="Udieresis" unicode="&#xdc;" horiz-adv-x="755" 
d="M665 731.5q3 -16.5 3 -56.5t-33 -266t-33 -316.5t14 -123.5q-62 22 -87.5 59.5t-25.5 100.5q0 31 2 50q-85 -199 -251 -199q-83 0 -125 57.5t-42 182.5q0 71 22.5 256t22.5 240.5t-11 85.5q60 -22 86 -57t26 -96.5t-21.5 -198t-21.5 -224.5t28 -126t80 -38q54 0 106 46
q66 59 106 192q23 76 35 174q0 3 2.5 3t13 -13t12.5 -13l-9 -63q-23 -125 -59 -209q4 40 19 143q37 257 37 398q0 30 -4 82q76 -4 95 -36q10 -18 13 -34.5zM574 455l-1 -4q1 0 1 4zM337 911q-84 0 -84 57q0 20 15 56q22 4 38 4q84 0 84 -57q0 -20 -15 -56q-22 -4 -38 -4z
M547 911q-84 0 -84 57q0 20 15 56q22 4 38 4q84 0 84 -57q0 -20 -15 -56q-22 -4 -38 -4z" />
    <glyph glyph-name="Yacute" unicode="&#xdd;" horiz-adv-x="565" 
d="M312 283q-16 -135 -16 -208t14 -106q-67 14 -92 53t-25 107q0 36 13 157q-103 372 -183 491q29 26 59.5 26t48.5 -8.5t35 -29t32 -68.5q29 -93 68 -293l12 -69q96 152 156.5 287.5t70.5 210.5q60 -42 60 -113.5t-253 -436.5zM258 881q25 56 81.5 117.5t109.5 82.5
q46 -30 48 -82q-58 -18 -114.5 -62t-92.5 -89q-12 3 -21.5 12.5t-10.5 20.5z" />
    <glyph glyph-name="Thorn" unicode="&#xde;" horiz-adv-x="621" 
d="M119 3.5q-22 20.5 -22 67t33.5 284t33.5 339t-14 132.5q47 -6 80 -44t33 -99q0 -26 -5 -73q72 33 147 33q100 0 153.5 -57.5t53.5 -141.5q0 -107 -78 -192.5t-210 -85.5q-30 0 -55 4l-3 32q67 0 117 20t77 54q50 63 50 149q0 62 -39.5 103.5t-114.5 41.5q-48 0 -106 -21
q-1 -10 -8.5 -64t-10.5 -76t-9 -73.5t-8 -85.5q-8 -100 -8 -165t6 -100q-24 -2 -26 -2q-45 0 -67 20.5z" />
    <glyph glyph-name="germandbls" unicode="&#xdf;" horiz-adv-x="713" 
d="M678 235q0 -106 -68.5 -187t-184.5 -81q-73 0 -109.5 37.5t-36.5 87t27.5 84.5t69.5 35q19 0 43 -10q-15 -17 -28 -53.5t-13 -67.5q0 -61 63 -61q54 0 90.5 61.5t36.5 138.5t-45 132t-123 55l-18 45q68 42 107.5 103.5t39.5 120.5t-25 92.5t-69 33.5q-62 0 -108.5 -70
t-68.5 -224q-43 -306 -43 -444q0 -59 2.5 -85.5t13.5 -90.5q-52 24 -81 76.5t-29 119.5q0 146 40 386q-64 -11 -108 -31q-2 22 -2 27q0 51 31 66.5t96 16.5q19 86 50 149.5t68 97.5q69 65 144 65q92 0 139.5 -47.5t47.5 -115.5t-41.5 -132.5t-112.5 -104.5l1 -5
q96 -6 150 -70t54 -150z" />
    <glyph glyph-name="agrave" unicode="&#xe0;" horiz-adv-x="635" 
d="M493 652q-1 -11 -10.5 -20.5t-21.5 -12.5q-36 45 -92.5 89t-114.5 62q2 52 48 82q53 -21 109.5 -82.5t81.5 -117.5zM176.5 288.5q-15.5 -52.5 -15.5 -100.5t21.5 -81.5t61.5 -33.5q56 0 105 61.5t75.5 149t26.5 162t-6 122.5q24 2 30 2q85 0 85 -87q0 -19 -24 -154.5
t-24 -217t31 -144.5q-63 13 -91.5 55.5t-28.5 122.5q0 14 4 54q-27 -95 -95 -153t-133.5 -58t-105.5 49.5t-40 137t32.5 171t98 144.5t146.5 61q35 0 77 -14q-59 -15 -108 -55t-78 -90.5t-44.5 -103z" />
    <glyph glyph-name="aacute" unicode="&#xe1;" horiz-adv-x="635" 
d="M290 652q25 56 81.5 117.5t109.5 82.5q46 -30 48 -82q-58 -18 -114.5 -62t-92.5 -89q-12 3 -21.5 12.5t-10.5 20.5zM176.5 288.5q-15.5 -52.5 -15.5 -100.5t21.5 -81.5t61.5 -33.5q56 0 105 61.5t75.5 149t26.5 162t-6 122.5q24 2 30 2q85 0 85 -87q0 -19 -24 -154.5
t-24 -217t31 -144.5q-63 13 -91.5 55.5t-28.5 122.5q0 14 4 54q-27 -95 -95 -153t-133.5 -58t-105.5 49.5t-40 137t32.5 171t98 144.5t146.5 61q35 0 77 -14q-59 -15 -108 -55t-78 -90.5t-44.5 -103z" />
    <glyph glyph-name="acircumflex" unicode="&#xe2;" horiz-adv-x="635" 
d="M565 652q-24 -11 -58 -11t-53.5 27t-34.5 104q-51 -93 -133 -147q-38 30 -39 76q69 45 92.5 67t31.5 30t25.5 29.5t21.5 25.5q60 0 69 -61q4 -26 23 -66t55 -74zM176.5 288.5q-15.5 -52.5 -15.5 -100.5t21.5 -81.5t61.5 -33.5q56 0 105 61.5t75.5 149t26.5 162t-6 122.5
q24 2 30 2q85 0 85 -87q0 -19 -24 -154.5t-24 -217t31 -144.5q-63 13 -91.5 55.5t-28.5 122.5q0 14 4 54q-27 -95 -95 -153t-133.5 -58t-105.5 49.5t-40 137t32.5 171t98 144.5t146.5 61q35 0 77 -14q-59 -15 -108 -55t-78 -90.5t-44.5 -103z" />
    <glyph glyph-name="atilde" unicode="&#xe3;" horiz-adv-x="635" 
d="M537.5 701q-25.5 -24 -55 -24t-73.5 14.5t-61 14.5q-44 0 -68 -34q-21 0 -26 17q8 54 33.5 78t55 24t73.5 -14.5t61 -14.5q44 0 68 34q21 0 26 -17q-8 -54 -33.5 -78zM176.5 288.5q-15.5 -52.5 -15.5 -100.5t21.5 -81.5t61.5 -33.5q56 0 105 61.5t75.5 149t26.5 162
t-6 122.5q24 2 30 2q85 0 85 -87q0 -19 -24 -154.5t-24 -217t31 -144.5q-63 13 -91.5 55.5t-28.5 122.5q0 14 4 54q-27 -95 -95 -153t-133.5 -58t-105.5 49.5t-40 137t32.5 171t98 144.5t146.5 61q35 0 77 -14q-59 -15 -108 -55t-78 -90.5t-44.5 -103z" />
    <glyph glyph-name="adieresis" unicode="&#xe4;" horiz-adv-x="646" 
d="M335 682q-84 0 -84 57q0 20 15 56q22 4 38 4q84 0 84 -57q0 -20 -15 -56q-22 -4 -38 -4zM545 682q-84 0 -84 57q0 20 15 56q22 4 38 4q84 0 84 -57q0 -20 -15 -56q-22 -4 -38 -4zM176.5 288.5q-15.5 -52.5 -15.5 -100.5t21.5 -81.5t61.5 -33.5q56 0 105 61.5t75.5 149
t26.5 162t-6 122.5q24 2 30 2q85 0 85 -87q0 -19 -24 -154.5t-24 -217t31 -144.5q-63 13 -91.5 55.5t-28.5 122.5q0 14 4 54q-27 -95 -95 -153t-133.5 -58t-105.5 49.5t-40 137t32.5 171t98 144.5t146.5 61q35 0 77 -14q-59 -15 -108 -55t-78 -90.5t-44.5 -103z" />
    <glyph glyph-name="aring" unicode="&#xe5;" horiz-adv-x="635" 
d="M459 750q0 41 -48 41q-23 0 -45 -5q-12 -34 -12 -57q0 -41 48 -41q23 0 45 5q12 34 12 57zM395 624q-45 0 -76 21.5t-31 68t28 124.5q57 17 102 17t76 -21.5t31 -68t-28 -124.5q-57 -17 -102 -17zM176.5 288.5q-15.5 -52.5 -15.5 -100.5t21.5 -81.5t61.5 -33.5
q56 0 105 61.5t75.5 149t26.5 162t-6 122.5q24 2 30 2q85 0 85 -87q0 -19 -24 -154.5t-24 -217t31 -144.5q-63 13 -91.5 55.5t-28.5 122.5q0 14 4 54q-27 -95 -95 -153t-133.5 -58t-105.5 49.5t-40 137t32.5 171t98 144.5t146.5 61q35 0 77 -14q-59 -15 -108 -55t-78 -90.5
t-44.5 -103z" />
    <glyph glyph-name="ae" unicode="&#xe6;" horiz-adv-x="888" 
d="M244 73q77 0 142 120.5t65 260.5q0 66 -6 114q24 2 40 2t20 -14t4 -59q77 80 189 80q150 0 150 -145q0 -87 -67.5 -136.5t-156.5 -49.5q-59 0 -106 11q-1 -10 -1 -31q0 -177 105 -177q99 0 161 98q37 -5 37 -27q-46 -75 -101 -105t-123 -30t-118.5 45t-63.5 134
q-32 -80 -95 -128t-124.5 -48t-101.5 49.5t-40 137t32.5 171t98 144.5t146.5 61q35 0 77 -14q-59 -15 -108 -55t-78 -90q-60 -105 -60 -203q0 -49 21.5 -82.5t61.5 -33.5zM679 525q-60 0 -101.5 -69t-55.5 -162h28q53 0 92 15t60 39q40 46 40 104q0 33 -15.5 53t-47.5 20z
" />
    <glyph glyph-name="ccedilla" unicode="&#xe7;" horiz-adv-x="545" 
d="M192.5 364.5q-19.5 -67.5 -19.5 -144.5t26 -124t69.5 -47t85.5 26t71 72q37 -5 37 -27q-27 -50 -67.5 -82t-75.5 -42.5t-71 -10.5q-77 0 -130 60.5t-53 175.5q0 146 79 251t210 105q72 0 109 -37.5t37 -87t-27.5 -84.5t-70.5 -35q-27 0 -46 9q16 18 27.5 50.5t11.5 63.5
q0 69 -57 69q-48 0 -87 -46.5t-58.5 -114zM269.5 -74.5q29.5 -30.5 29.5 -81t-34.5 -95t-93.5 -62.5q-39 17 -39 70q43 9 68 35.5t25 61.5q0 55 -54 79q0 13 6 27q63 -4 92.5 -34.5z" />
    <glyph glyph-name="egrave" unicode="&#xe8;" horiz-adv-x="542" 
d="M333 525q-60 0 -101.5 -69t-55.5 -162h28q53 0 92 15t60 39q40 46 40 104q0 33 -15.5 53t-47.5 20zM373 15q-55 -30 -127.5 -30t-126.5 64t-54 180q0 132 71 236q35 50 91.5 81t124.5 31q150 0 150 -145q0 -87 -67.5 -136.5t-156.5 -49.5q-59 0 -106 11q-1 -10 -1 -31
q0 -177 105 -177q99 0 161 98q37 -5 37 -27q-46 -75 -101 -105zM454 652q-1 -11 -10.5 -20.5t-21.5 -12.5q-36 45 -92.5 89t-114.5 62q2 52 48 82q53 -21 109.5 -82.5t81.5 -117.5z" />
    <glyph glyph-name="eacute" unicode="&#xe9;" horiz-adv-x="542" 
d="M333 525q-60 0 -101.5 -69t-55.5 -162h28q53 0 92 15t60 39q40 46 40 104q0 33 -15.5 53t-47.5 20zM373 15q-55 -30 -127.5 -30t-126.5 64t-54 180q0 132 71 236q35 50 91.5 81t124.5 31q150 0 150 -145q0 -87 -67.5 -136.5t-156.5 -49.5q-59 0 -106 11q-1 -10 -1 -31
q0 -177 105 -177q99 0 161 98q37 -5 37 -27q-46 -75 -101 -105zM249 652q25 56 81.5 117.5t109.5 82.5q46 -30 48 -82q-58 -18 -114.5 -62t-92.5 -89q-12 3 -21.5 12.5t-10.5 20.5z" />
    <glyph glyph-name="ecircumflex" unicode="&#xea;" horiz-adv-x="542" 
d="M333 525q-60 0 -101.5 -69t-55.5 -162h28q53 0 92 15t60 39q40 46 40 104q0 33 -15.5 53t-47.5 20zM373 15q-55 -30 -127.5 -30t-126.5 64t-54 180q0 132 71 236q35 50 91.5 81t124.5 31q150 0 150 -145q0 -87 -67.5 -136.5t-156.5 -49.5q-59 0 -106 11q-1 -10 -1 -31
q0 -177 105 -177q99 0 161 98q37 -5 37 -27q-46 -75 -101 -105zM507 652q-24 -11 -58 -11t-53.5 27t-34.5 104q-51 -93 -133 -147q-38 30 -39 76q69 45 92.5 67t31.5 30t25.5 29.5t21.5 25.5q60 0 69 -61q4 -26 23 -66t55 -74z" />
    <glyph glyph-name="edieresis" unicode="&#xeb;" horiz-adv-x="542" 
d="M333 525q-60 0 -101.5 -69t-55.5 -162h28q53 0 92 15t60 39q40 46 40 104q0 33 -15.5 53t-47.5 20zM373 15q-55 -30 -127.5 -30t-126.5 64t-54 180q0 132 71 236q35 50 91.5 81t124.5 31q150 0 150 -145q0 -87 -67.5 -136.5t-156.5 -49.5q-59 0 -106 11q-1 -10 -1 -31
q0 -177 105 -177q99 0 161 98q37 -5 37 -27q-46 -75 -101 -105zM242 682q-84 0 -84 57q0 20 15 56q22 4 38 4q84 0 84 -57q0 -20 -15 -56q-22 -4 -38 -4zM452 682q-84 0 -84 57q0 20 15 56q22 4 38 4q84 0 84 -57q0 -20 -15 -56q-22 -4 -38 -4z" />
    <glyph glyph-name="igrave" unicode="&#xec;" horiz-adv-x="321" 
d="M124.5 46.5q-22.5 41.5 -22.5 100.5t16 169t16 171t-6 94q18 2 29 2q45 0 65 -20t20 -66q0 -15 -24.5 -157.5t-25 -235t11.5 -119.5q-57 20 -79.5 61.5zM319 652q-1 -11 -10.5 -20.5t-21.5 -12.5q-36 45 -92.5 89t-114.5 62q2 52 48 82q53 -21 109.5 -82.5t81.5 -117.5z
" />
    <glyph glyph-name="iacute" unicode="&#xed;" horiz-adv-x="321" 
d="M124.5 46.5q-22.5 41.5 -22.5 100.5t16 169t16 171t-6 94q18 2 29 2q45 0 65 -20t20 -66q0 -15 -24.5 -157.5t-25 -235t11.5 -119.5q-57 20 -79.5 61.5zM84 652q25 56 81.5 117.5t109.5 82.5q46 -30 48 -82q-58 -18 -114.5 -62t-92.5 -89q-12 3 -21.5 12.5t-10.5 20.5z
" />
    <glyph glyph-name="icircumflex" unicode="&#xee;" horiz-adv-x="321" 
d="M124.5 46.5q-22.5 41.5 -22.5 100.5t16 169t16 171t-6 94q18 2 29 2q45 0 65 -20t20 -66q0 -15 -24.5 -157.5t-25 -235t11.5 -119.5q-57 20 -79.5 61.5zM359 652q-24 -11 -58 -11t-53.5 27t-34.5 104q-51 -93 -133 -147q-38 30 -39 76q69 45 92.5 67t31.5 30t25.5 29.5
t21.5 25.5q60 0 69 -61q4 -26 23 -66t55 -74z" />
    <glyph glyph-name="idieresis" unicode="&#xef;" horiz-adv-x="321" 
d="M124.5 46.5q-22.5 41.5 -22.5 100.5t16 169t16 171t-6 94q18 2 29 2q45 0 65 -20t20 -66q0 -15 -24.5 -157.5t-25 -235t11.5 -119.5q-57 20 -79.5 61.5zM100 682q-84 0 -84 57q0 20 15 56q22 4 38 4q84 0 84 -57q0 -20 -15 -56q-22 -4 -38 -4zM310 682q-84 0 -84 57
q0 20 15 56q22 4 38 4q84 0 84 -57q0 -20 -15 -56q-22 -4 -38 -4z" />
    <glyph glyph-name="eth" unicode="&#xf0;" horiz-adv-x="617" 
d="M330 835q-45 0 -70.5 -30t-25.5 -86q-28 0 -47 19t-19 46q0 52 47 83.5t114 31.5q122 0 188 -146q67 36 101 36t53 -51q-45 -6 -129 -53q26 -91 26 -189t-18 -186.5t-53 -162t-93.5 -118t-137 -44.5t-140 67.5t-61.5 199.5t76.5 205.5t185.5 73.5q76 0 141 -40
q0 75 -10 145q-61 -33 -87.5 -33t-38 13t-22.5 39q49 7 132 55q-34 125 -112 125zM192.5 98.5q33.5 -51.5 92 -51.5t99.5 57q74 107 83 334q-55 36 -120 36q-80 0 -134 -68.5t-54 -177.5q0 -78 33.5 -129.5z" />
    <glyph glyph-name="ntilde" unicode="&#xf1;" horiz-adv-x="626" 
d="M543 435q0 -46 -19.5 -162.5t-19.5 -169.5t13 -76.5t44 -40.5q-13 -1 -37 -1q-68 0 -96.5 25.5t-28.5 91.5q0 37 20 149.5t20 165.5q0 66 -40 66q-64 0 -132.5 -113t-68.5 -272q0 -63 6 -98q-26 -2 -31 -2q-88 0 -88 86q0 20 21 154t21 213.5t-17 146.5
q59 -23 82.5 -65.5t23.5 -97t-12 -126.5q33 113 103.5 190.5t131.5 77.5q104 0 104 -142zM499.5 701q-25.5 -24 -55 -24t-73.5 14.5t-61 14.5q-44 0 -68 -34q-21 0 -26 17q8 54 33.5 78t55 24t73.5 -14.5t61 -14.5q44 0 68 34q21 0 26 -17q-8 -54 -33.5 -78z" />
    <glyph glyph-name="ograve" unicode="&#xf2;" horiz-adv-x="617" 
d="M429.5 468.5q-24.5 42.5 -70 42.5t-91.5 -44.5t-72.5 -110t-26.5 -136t27 -122t82 -51.5q78 0 127 92t49 189.5t-24.5 140zM266.5 524.5q64.5 49.5 131 49.5t110.5 -58.5t44 -158.5q0 -110 -42 -204q-47 -104 -136 -145q-48 -23 -106 -23q-81 0 -142 67.5t-61 193
t54 217.5t147 128q20 0 20 -20q-99 -65 -122 -204q38 108 102.5 157.5zM464 652q-1 -11 -10.5 -20.5t-21.5 -12.5q-36 45 -92.5 89t-114.5 62q2 52 48 82q53 -21 109.5 -82.5t81.5 -117.5z" />
    <glyph glyph-name="oacute" unicode="&#xf3;" horiz-adv-x="617" 
d="M429.5 468.5q-24.5 42.5 -70 42.5t-91.5 -44.5t-72.5 -110t-26.5 -136t27 -122t82 -51.5q78 0 127 92t49 189.5t-24.5 140zM266.5 524.5q64.5 49.5 131 49.5t110.5 -58.5t44 -158.5q0 -110 -42 -204q-47 -104 -136 -145q-48 -23 -106 -23q-81 0 -142 67.5t-61 193
t54 217.5t147 128q20 0 20 -20q-99 -65 -122 -204q38 108 102.5 157.5zM268 652q25 56 81.5 117.5t109.5 82.5q46 -30 48 -82q-58 -18 -114.5 -62t-92.5 -89q-12 3 -21.5 12.5t-10.5 20.5z" />
    <glyph glyph-name="ocircumflex" unicode="&#xf4;" horiz-adv-x="617" 
d="M429.5 468.5q-24.5 42.5 -70 42.5t-91.5 -44.5t-72.5 -110t-26.5 -136t27 -122t82 -51.5q78 0 127 92t49 189.5t-24.5 140zM266.5 524.5q64.5 49.5 131 49.5t110.5 -58.5t44 -158.5q0 -110 -42 -204q-47 -104 -136 -145q-48 -23 -106 -23q-81 0 -142 67.5t-61 193
t54 217.5t147 128q20 0 20 -20q-99 -65 -122 -204q38 108 102.5 157.5zM520 652q-24 -11 -58 -11t-53.5 27t-34.5 104q-51 -93 -133 -147q-38 30 -39 76q69 45 92.5 67t31.5 30t25.5 29.5t21.5 25.5q60 0 69 -61q4 -26 23 -66t55 -74z" />
    <glyph glyph-name="otilde" unicode="&#xf5;" horiz-adv-x="617" 
d="M429.5 468.5q-24.5 42.5 -70 42.5t-91.5 -44.5t-72.5 -110t-26.5 -136t27 -122t82 -51.5q78 0 127 92t49 189.5t-24.5 140zM266.5 524.5q64.5 49.5 131 49.5t110.5 -58.5t44 -158.5q0 -110 -42 -204q-47 -104 -136 -145q-48 -23 -106 -23q-81 0 -142 67.5t-61 193
t54 217.5t147 128q20 0 20 -20q-99 -65 -122 -204q38 108 102.5 157.5zM506.5 701q-25.5 -24 -55 -24t-73.5 14.5t-61 14.5q-44 0 -68 -34q-21 0 -26 17q8 54 33.5 78t55 24t73.5 -14.5t61 -14.5q44 0 68 34q21 0 26 -17q-8 -54 -33.5 -78z" />
    <glyph glyph-name="odieresis" unicode="&#xf6;" horiz-adv-x="617" 
d="M429.5 468.5q-24.5 42.5 -70 42.5t-91.5 -44.5t-72.5 -110t-26.5 -136t27 -122t82 -51.5q78 0 127 92t49 189.5t-24.5 140zM266.5 524.5q64.5 49.5 131 49.5t110.5 -58.5t44 -158.5q0 -110 -42 -204q-47 -104 -136 -145q-48 -23 -106 -23q-81 0 -142 67.5t-61 193
t54 217.5t147 128q20 0 20 -20q-99 -65 -122 -204q38 108 102.5 157.5zM271 682q-84 0 -84 57q0 20 15 56q22 4 38 4q84 0 84 -57q0 -20 -15 -56q-22 -4 -38 -4zM481 682q-84 0 -84 57q0 20 15 56q22 4 38 4q84 0 84 -57q0 -20 -15 -56q-22 -4 -38 -4z" />
    <glyph glyph-name="divide" unicode="&#xf7;" 
d="M352 504q-21 -9 -45 -9t-40 11t-16 28t16 63q21 9 45 9t40 -11t16 -28t-16 -63zM352 115q-21 -9 -45 -9t-40 11t-16 28t16 63q21 9 45 9t40 -11t16 -28t-16 -63zM331 403.5q77 5.5 132.5 5.5t76 -21t20.5 -63q0 -3 -0.5 -9t-0.5 -9q-61 8 -127 8t-143 -5.5t-132.5 -5.5
t-76 21t-20.5 63q0 3 0.5 9t0.5 9q61 -8 127 -8t143 5.5z" />
    <glyph glyph-name="oslash" unicode="&#xf8;" horiz-adv-x="617" 
d="M479 634q0 -22 -19 -77q42 -23 67 -75t25 -115t-10 -114t-32 -100t-54.5 -86t-81 -59.5t-106.5 -22.5q-8 0 -24 2q-22 -68 -28 -114q-8 1 -19 4t-29.5 22.5t-18.5 44.5t16 73q-100 67 -100 230q0 124 54 216t147 128q20 0 20 -20q-99 -65 -122 -204q54 157 174 197
q30 10 59 10q35 94 43 139q15 -11 27 -34t12 -45zM405 139q49 92 49 189t-26 143q-119 -291 -164 -423q4 -1 14 -1q78 0 127 92zM196 97l176 413q-3 1 -9 1q-49 0 -95 -44.5t-72.5 -110t-26.5 -138.5t27 -121z" />
    <glyph glyph-name="ugrave" unicode="&#xf9;" horiz-adv-x="606" 
d="M440 579q86 0 86 -89q0 -16 -19 -140.5t-19 -213.5t19 -157q-61 24 -84.5 68t-23.5 109q0 25 11 113q-30 -114 -93 -191.5t-117 -77.5q-114 0 -114 166q0 55 16.5 153.5t16.5 149.5t-14 103q64 0 96 -22t32 -85q0 -34 -21 -140t-21 -157q0 -74 46 -74q38 0 79.5 59.5
t69.5 154.5t28 188q0 42 -6 81q22 2 32 2zM415 652q-1 -11 -10.5 -20.5t-21.5 -12.5q-36 45 -92.5 89t-114.5 62q2 52 48 82q53 -21 109.5 -82.5t81.5 -117.5z" />
    <glyph glyph-name="uacute" unicode="&#xfa;" horiz-adv-x="606" 
d="M440 579q86 0 86 -89q0 -16 -19 -140.5t-19 -213.5t19 -157q-61 24 -84.5 68t-23.5 109q0 25 11 113q-30 -114 -93 -191.5t-117 -77.5q-114 0 -114 166q0 55 16.5 153.5t16.5 149.5t-14 103q64 0 96 -22t32 -85q0 -34 -21 -140t-21 -157q0 -74 46 -74q38 0 79.5 59.5
t69.5 154.5t28 188q0 42 -6 81q22 2 32 2zM236 652q25 56 81.5 117.5t109.5 82.5q46 -30 48 -82q-58 -18 -114.5 -62t-92.5 -89q-12 3 -21.5 12.5t-10.5 20.5z" />
    <glyph glyph-name="ucircumflex" unicode="&#xfb;" horiz-adv-x="606" 
d="M440 579q86 0 86 -89q0 -16 -19 -140.5t-19 -213.5t19 -157q-61 24 -84.5 68t-23.5 109q0 25 11 113q-30 -114 -93 -191.5t-117 -77.5q-114 0 -114 166q0 55 16.5 153.5t16.5 149.5t-14 103q64 0 96 -22t32 -85q0 -34 -21 -140t-21 -157q0 -74 46 -74q38 0 79.5 59.5
t69.5 154.5t28 188q0 42 -6 81q22 2 32 2zM500 652q-24 -11 -58 -11t-53.5 27t-34.5 104q-51 -93 -133 -147q-38 30 -39 76q69 45 92.5 67t31.5 30t25.5 29.5t21.5 25.5q60 0 69 -61q4 -26 23 -66t55 -74z" />
    <glyph glyph-name="udieresis" unicode="&#xfc;" horiz-adv-x="606" 
d="M440 579q86 0 86 -89q0 -16 -19 -140.5t-19 -213.5t19 -157q-61 24 -84.5 68t-23.5 109q0 25 11 113q-30 -114 -93 -191.5t-117 -77.5q-114 0 -114 166q0 55 16.5 153.5t16.5 149.5t-14 103q64 0 96 -22t32 -85q0 -34 -21 -140t-21 -157q0 -74 46 -74q38 0 79.5 59.5
t69.5 154.5t28 188q0 42 -6 81q22 2 32 2zM242 682q-84 0 -84 57q0 20 15 56q22 4 38 4q84 0 84 -57q0 -20 -15 -56q-22 -4 -38 -4zM452 682q-84 0 -84 57q0 20 15 56q22 4 38 4q84 0 84 -57q0 -20 -15 -56q-22 -4 -38 -4z" />
    <glyph glyph-name="yacute" unicode="&#xfd;" horiz-adv-x="516" 
d="M496 508q0 -35 -30 -97t-73 -136t-86 -157.5t-73 -183t-30 -190.5q0 -45 7 -86q-64 15 -86.5 44.5t-22.5 69.5q0 57 70 217q-15 62 -37 194.5t-44.5 230.5t-51.5 146q38 26 65 26q52 0 71 -53.5t33.5 -204.5t29.5 -222q196 369 196 493q62 -42 62 -91zM211 652
q25 56 81.5 117.5t109.5 82.5q46 -30 48 -82q-58 -18 -114.5 -62t-92.5 -89q-12 3 -21.5 12.5t-10.5 20.5z" />
    <glyph glyph-name="thorn" unicode="&#xfe;" horiz-adv-x="649" 
d="M443 553q61 0 101 -49.5t40 -143.5q0 -149 -78.5 -254.5t-188.5 -105.5q-39 0 -80 16q75 15 131.5 76.5t82 132t25.5 127t-20 86.5t-57 30q-69 0 -123 -76.5t-83 -207.5t-29 -270.5t20 -242.5q-61 3 -96 27t-35 89q0 28 24 213q72 553 72 809q0 87 -12 117
q58 -21 81.5 -62t23.5 -113q0 -59 -15.5 -198t-22.5 -210q42 94 110 152t129 58z" />
    <glyph glyph-name="ydieresis" unicode="&#xff;" horiz-adv-x="516" 
d="M496 508q0 -35 -30 -97t-73 -136t-86 -157.5t-73 -183t-30 -190.5q0 -45 7 -86q-64 15 -86.5 44.5t-22.5 69.5q0 57 70 217q-15 62 -37 194.5t-44.5 230.5t-51.5 146q38 26 65 26q52 0 71 -53.5t33.5 -204.5t29.5 -222q196 369 196 493q62 -42 62 -91zM215 682
q-84 0 -84 57q0 20 15 56q22 4 38 4q84 0 84 -57q0 -20 -15 -56q-22 -4 -38 -4zM425 682q-84 0 -84 57q0 20 15 56q22 4 38 4q84 0 84 -57q0 -20 -15 -56q-22 -4 -38 -4z" />
    <glyph glyph-name="dotlessi" unicode="&#x131;" horiz-adv-x="321" 
d="M124.5 46.5q-22.5 41.5 -22.5 100.5t16 169t16 171t-6 94q18 2 29 2q45 0 65 -20t20 -66q0 -15 -24.5 -157.5t-25 -235t11.5 -119.5q-57 20 -79.5 61.5z" />
    <glyph glyph-name="Lslash" unicode="&#x141;" horiz-adv-x="547" 
d="M140 462q19 160 19 224t-4 116q76 -4 95 -36q10 -18 13 -34.5t3 -47t-17 -162.5q42 20 66.5 20t36.5 -13.5t23 -40.5q-50 -7 -139 -58q-35 -246 -36 -347q5 1 18 1q216 0 322 30q-7 -58 -39.5 -90t-81.5 -32q-14 0 -86.5 6.5t-140.5 6.5t-136 -13q13 44 54 68
q-9 24 -9 69t27 240q-46 -23 -72 -23t-38 14t-23 41q54 7 145 61z" />
    <glyph glyph-name="lslash" unicode="&#x142;" horiz-adv-x="299" 
d="M122 493q26 212 26 307.5t-12 125.5q56 -21 79 -62t23 -98t-19 -219q48 25 74.5 25t38.5 -13.5t23 -40.5q-54 -7 -147 -62q-28 -238 -28 -381q0 -32 4 -90q-55 4 -78 26q-25 23 -25 90.5t30 298.5q-50 -24 -75.5 -24t-37.5 14t-23 41q52 7 147 62z" />
    <glyph glyph-name="OE" unicode="&#x152;" horiz-adv-x="1046" 
d="M830 -11l-149 11q-76 0 -168.5 -12.5t-153.5 -12.5t-110.5 24t-83 64t-56.5 93q-44 100 -44 223q0 165 76 287t201 161q17 -3 19 -17q-67 -40 -112.5 -98.5t-63.5 -158.5q43 118 128.5 182t188.5 64q25 0 127.5 -12t190.5 -12t184 19q-6 -61 -70.5 -89.5t-158.5 -28.5
q-36 0 -83 7q-2 -33 -31 -264q62 -2 84 -2q90 0 131 28q2 -22 2 -33q0 -44 -20 -58.5t-57 -14.5l-82 1q-44 0 -68 -1q-15 -145 -16 -256q225 0 334 31q-8 -72 -43 -98.5t-96 -26.5zM590 705q-48 26 -123.5 26t-143.5 -61t-104.5 -152.5t-36.5 -187.5q0 -129 50 -212t149 -83
q41 0 81.5 14.5t59.5 33.5q3 33 33 274t35 348z" />
    <glyph glyph-name="oe" unicode="&#x153;" horiz-adv-x="917" 
d="M394 574q88 0 133 -91q78 94 200 94q150 0 150 -145q0 -87 -67.5 -136.5t-156.5 -49.5q-59 0 -106 11q-1 -10 -1 -31q0 -177 105 -177q99 0 161 98q37 -5 37 -27q-46 -75 -101 -105t-113 -30q-112 0 -165 100q-75 -100 -202 -100q-81 0 -142 67.5t-61 193t54 217.5
t147 128q20 0 20 -20q-99 -65 -122 -204q38 108 102.5 157.5t127.5 49.5zM429.5 468.5q-24.5 42.5 -70 42.5t-91.5 -44.5t-72.5 -110t-26.5 -136t27 -122t82 -51.5q78 0 127 92t49 189.5t-24.5 140zM708 525q-46 0 -81 -41.5t-51 -93.5q-21 -66 -25 -96q118 0 169 44.5
t51 113.5q0 33 -15.5 53t-47.5 20z" />
    <glyph glyph-name="Scaron" unicode="&#x160;" horiz-adv-x="629" 
d="M272 496q30 -27 66.5 -53.5t73 -53.5t66.5 -55q68 -63 68 -139q0 -94 -71.5 -157t-188.5 -63t-180 53t-63 126q0 54 32 87.5t83 33.5q14 0 27 -4q-31 -47 -31 -100.5t37 -91.5t111 -38q53 0 94.5 32.5t41.5 90.5q0 38 -25 74.5t-62 64.5t-81 62.5t-81 66.5t-62 78t-25 96
q0 95 64.5 150.5t186.5 55.5q99 0 155.5 -52.5t56.5 -109t-30.5 -92.5t-83.5 -36q-18 0 -35 4q49 52 49 110t-36 87.5t-91.5 29.5t-94.5 -32t-39 -97t68 -128zM239 1055q24 11 58 11t53.5 -27t34.5 -104q51 93 133 147q38 -30 39 -76q-69 -45 -92.5 -67t-31.5 -30
t-25.5 -29.5t-21.5 -25.5q-60 0 -69 61q-4 26 -23 66t-55 74z" />
    <glyph glyph-name="scaron" unicode="&#x161;" horiz-adv-x="502" 
d="M223.5 507q-26.5 -21 -26.5 -57.5t24.5 -68.5t59.5 -57t71 -51q84 -62 84 -133t-57 -115.5t-145.5 -44.5t-137 35t-48.5 82.5t24 74.5t58 27q18 0 34 -8q-22 -28 -22 -66t23.5 -64t65 -26t70.5 21.5t29 54.5t-17 58t-42.5 43t-55.5 40t-55.5 43.5t-42.5 54t-17 71.5
q0 71 54 116.5t136 45.5t120 -34t38 -76.5t-21 -70t-54 -27.5q-16 0 -37 9q26 32 26 69t-22.5 56t-56 19t-60 -21zM164 826q24 11 58 11t53.5 -27t34.5 -104q51 93 133 147q38 -30 39 -76q-69 -45 -92.5 -67t-31.5 -30t-25.5 -29.5t-21.5 -25.5q-60 0 -69 61q-4 26 -23 66
t-55 74z" />
    <glyph glyph-name="Ydieresis" unicode="&#x178;" horiz-adv-x="565" 
d="M312 283q-16 -135 -16 -208t14 -106q-67 14 -92 53t-25 107q0 36 13 157q-103 372 -183 491q29 26 59.5 26t48.5 -8.5t35 -29t32 -68.5q29 -93 68 -293l12 -69q96 152 156.5 287.5t70.5 210.5q60 -42 60 -113.5t-253 -436.5zM246 911q-84 0 -84 57q0 20 15 56q22 4 38 4
q84 0 84 -57q0 -20 -15 -56q-22 -4 -38 -4zM456 911q-84 0 -84 57q0 20 15 56q22 4 38 4q84 0 84 -57q0 -20 -15 -56q-22 -4 -38 -4z" />
    <glyph glyph-name="Zcaron" unicode="&#x17d;" horiz-adv-x="573" 
d="M83 726q0 29 8 51q126 -14 233 -14t160 4q14 33 23 71q46 -60 46 -132q0 -43 -43 -114t-100 -140q-195 -241 -273 -363q28 -2 44 -2q216 0 324 30q-8 -58 -40.5 -90t-81.5 -32q-26 0 -105.5 8.5t-163.5 8.5t-154 -15q16 48 60 71q298 361 432 630q-251 -44 -323 -44
q-46 0 -46 72zM211 1055q24 11 58 11t53.5 -27t34.5 -104q51 93 133 147q38 -30 39 -76q-69 -45 -92.5 -67t-31.5 -30t-25.5 -29.5t-21.5 -25.5q-60 0 -69 61q-4 26 -23 66t-55 74z" />
    <glyph glyph-name="zcaron" unicode="&#x17e;" horiz-adv-x="495" 
d="M98 566q96 -14 178.5 -14t136.5 5q15 31 22 57q45 -38 45 -83t-40.5 -106t-129.5 -165.5t-134 -165.5q120 -3 163.5 -3t105.5 9q5 -25 5 -52q0 -55 -76 -55q-18 0 -104.5 8t-149.5 8t-125 -17q14 75 67 94q198 205 311 395q-52 -2 -127.5 -11.5t-90.5 -9.5q-65 0 -65 65
q0 19 8 41zM159 826q24 11 58 11t53.5 -27t34.5 -104q51 93 133 147q38 -30 39 -76q-69 -45 -92.5 -67t-31.5 -30t-25.5 -29.5t-21.5 -25.5q-60 0 -69 61q-4 26 -23 66t-55 74z" />
    <glyph glyph-name="florin" unicode="&#x192;" 
d="M97 347l34 -1q47 0 105 10q30 266 128 334q41 29 97 29q137 0 137 -118q0 -38 -27 -68t-73 -30q-19 0 -36 7q21 14 35.5 38.5t14.5 48t-12 39t-39 15.5t-50 -20.5t-37 -60.5q-23 -67 -35 -194q56 8 87 8q66 0 85 -69q-15 6 -62 6t-116 -12q-17 -227 -32 -306
q-40 -215 -156 -252q-26 -9 -57 -9q-73 0 -106.5 33t-33.5 79t24.5 75t68.5 29q18 0 36 -7q-20 -13 -33 -37t-13 -48t13 -40t35 -16t39 8t30 26t22.5 37.5t17 52t12.5 59t9.5 69.5t7 72t6 78t6.5 78q-46 -7 -64 -7q-60 0 -68 64z" />
    <glyph glyph-name="circumflex" unicode="&#x2c6;" horiz-adv-x="450" 
d="M425 652q-24 -11 -58 -11t-53.5 27t-34.5 104q-51 -93 -133 -147q-38 30 -39 76q69 45 92.5 67t31.5 30t25.5 29.5t21.5 25.5q60 0 69 -61q4 -26 23 -66t55 -74z" />
    <glyph glyph-name="caron" unicode="&#x2c7;" horiz-adv-x="450" 
d="M117 826q24 11 58 11t53.5 -27t34.5 -104q51 93 133 147q38 -30 39 -76q-69 -45 -92.5 -67t-31.5 -30t-25.5 -29.5t-21.5 -25.5q-60 0 -69 61q-4 26 -23 66t-55 74z" />
    <glyph glyph-name="breve" unicode="&#x2d8;" horiz-adv-x="355" 
d="M42 788q16 14 30.5 14t21.5 -13q0 -31 19 -50.5t50.5 -19.5t62 27.5t33.5 70.5q21 0 37.5 -21t16.5 -45q-14 -53 -53 -80t-91.5 -27t-89.5 34.5t-37 109.5z" />
    <glyph glyph-name="dotaccent" unicode="&#x2d9;" horiz-adv-x="263" 
d="M180 666q-27 -10 -53 -10t-44 12t-18 32.5t18 72.5q27 10 53 10t44 -12t18 -32.5t-18 -72.5z" />
    <glyph glyph-name="ring" unicode="&#x2da;" horiz-adv-x="339" 
d="M272 750q0 41 -48 41q-23 0 -45 -5q-12 -34 -12 -57q0 -41 48 -41q23 0 45 5q12 34 12 57zM208 624q-45 0 -76 21.5t-31 68t28 124.5q57 17 102 17t76 -21.5t31 -68t-28 -124.5q-57 -17 -102 -17z" />
    <glyph glyph-name="ogonek" unicode="&#x2db;" horiz-adv-x="560" 
d="M244 -311q-53 0 -83 35.5t-30 94.5t38 115.5t119 98.5h44q-122 -97 -122 -196q0 -79 69 -79q51 0 96 45q29 -10 29 -34q-67 -80 -160 -80z" />
    <glyph glyph-name="tilde" unicode="&#x2dc;" horiz-adv-x="450" 
d="M411.5 701q-25.5 -24 -55 -24t-73.5 14.5t-61 14.5q-44 0 -68 -34q-21 0 -26 17q8 54 33.5 78t55 24t73.5 -14.5t61 -14.5q44 0 68 34q21 0 26 -17q-8 -54 -33.5 -78z" />
    <glyph glyph-name="hungarumlaut" unicode="&#x2dd;" horiz-adv-x="450" 
d="M70 624q-21 6 -28 35q44 35 86 90t60 114q52 -2 82 -48q-21 -53 -82.5 -109.5t-117.5 -81.5zM260 624q-21 6 -28 35q44 35 86 90t60 114q52 -2 82 -48q-21 -53 -82.5 -109.5t-117.5 -81.5z" />
    <glyph glyph-name="pi" unicode="&#x3c0;" horiz-adv-x="675" 
d="M387 643q93 6 159 6t90 -23t24 -70q0 -3 -0.5 -9t-0.5 -10q-31 4 -89 8q3 -14 3 -45q0 -6 -24.5 -151t-25 -241t11.5 -123q-64 20 -88 62t-24 103t16 176.5t16 159.5t-1 61q-34 -1 -102 -5.5t-103 -5.5q16 -37 16 -92.5t-16 -171t-16 -177.5t6 -95q-20 -2 -36 -2
q-49 0 -68.5 19.5t-19.5 66.5q0 16 24.5 165t25.5 263v23q-60 3 -80 26t-20 66q0 3 0.5 9t0.5 10q85 -9 156.5 -9t164.5 6z" />
    <glyph glyph-name="endash" unicode="&#x2013;" horiz-adv-x="503" 
d="M269.5 364.5q67.5 5.5 115.5 5.5t65.5 -21t17.5 -63q0 -3 -0.5 -9t-0.5 -9q-37 8 -101.5 8t-132 -5.5t-115.5 -5.5t-65.5 21t-17.5 63q0 3 0.5 9t0.5 9q37 -8 101.5 -8t132 5.5z" />
    <glyph glyph-name="emdash" unicode="&#x2014;" horiz-adv-x="665" 
d="M357 364.5q93 5.5 159 5.5t90 -21t24 -63q0 -3 -0.5 -9t-0.5 -9q-61 8 -144.5 8t-176.5 -5.5t-159 -5.5t-90 21t-24 63q0 3 0.5 9t0.5 9q61 -8 144.5 -8t176.5 5.5z" />
    <glyph glyph-name="quoteleft" unicode="&#x2018;" horiz-adv-x="153" 
d="M79 560q-64 0 -64 61t42 117t122 100l24 -30q-74 -71 -74 -162q0 -33 15 -75q-33 -11 -65 -11z" />
    <glyph glyph-name="quoteright" unicode="&#x2019;" horiz-adv-x="248" 
d="M174 853q64 0 64 -61t-42 -117t-122 -100l-24 30q74 71 74 162q0 33 -15 75q33 11 65 11z" />
    <glyph glyph-name="quotesinglbase" unicode="&#x201a;" horiz-adv-x="209" 
d="M120 146q64 0 64 -61t-42 -117t-122 -100l-24 30q74 71 74 162q0 33 -15 75q33 11 65 11z" />
    <glyph glyph-name="quotedblleft" unicode="&#x201c;" horiz-adv-x="355" 
d="M79 560q-64 0 -64 61t42 117t122 100l24 -30q-74 -71 -74 -162q0 -33 15 -75q-33 -11 -65 -11zM281 584q-64 0 -64 61t42 117t122 100l24 -30q-74 -71 -74 -162q0 -33 15 -75q-33 -11 -65 -11z" />
    <glyph glyph-name="quotedblright" unicode="&#x201d;" horiz-adv-x="450" 
d="M376 853q64 0 64 -61t-42 -117t-122 -100l-24 30q74 71 74 162q0 33 -15 75q33 11 65 11zM174 829q64 0 64 -61t-42 -117t-122 -100l-24 30q74 71 74 162q0 33 -15 75q33 11 65 11z" />
    <glyph glyph-name="quotedblbase" unicode="&#x201e;" horiz-adv-x="411" 
d="M120 146q64 0 64 -61t-42 -117t-122 -100l-24 30q74 71 74 162q0 33 -15 75q33 11 65 11zM322 146q64 0 64 -61t-42 -117t-122 -100l-24 30q74 71 74 162q0 33 -15 75q33 11 65 11z" />
    <glyph glyph-name="dagger" unicode="&#x2020;" horiz-adv-x="390" 
d="M84 -115.5q-3 16.5 -3 49.5t15 128.5t37.5 235t34.5 244.5q-112 -2 -184 -31q-4 36 -4 44q0 47 33 63.5t94 16.5h70q8 85 8 132.5t-4 99.5q80 -4 99 -37q11 -17 14 -33.5t3 -47t-12 -114.5h191q0 -50 -28.5 -72t-64.5 -22q-68 0 -111 1q0 -20 -39.5 -305.5t-39.5 -341
t4 -81.5q-80 4 -99 36q-11 18 -14 34.5z" />
    <glyph glyph-name="daggerdbl" unicode="&#x2021;" horiz-adv-x="390" 
d="M84 -115.5q-3 16.5 -3 49t9 90.5h-172q0 50 28.5 72t74.5 22t83 -1q49 295 64 425q-112 -2 -184 -31q-4 36 -4 44q0 47 33 63.5t94 16.5h70q8 85 8 132.5t-4 99.5q80 -4 99 -37q11 -17 14 -33.5t3 -47t-12 -114.5h191q0 -50 -28.5 -72t-64.5 -22q-68 0 -111 1
q0 -20 -24 -187t-33 -238q119 0 195 31q4 -36 4 -44q0 -47 -33 -63.5t-94 -16.5h-83q-11 -90 -11 -137t4 -73q-80 4 -99 36q-11 18 -14 34.5z" />
    <glyph glyph-name="bullet" unicode="&#x2022;" horiz-adv-x="316" 
d="M160 236q-78 0 -78 65q0 23 22 87q36 12 72 12q78 0 78 -65q0 -23 -22 -87q-38 -12 -72 -12z" />
    <glyph glyph-name="ellipsis" unicode="&#x2026;" horiz-adv-x="624" 
d="M105 -11q-65 0 -65 54q0 19 18 73q30 10 60 10q65 0 65 -54q0 -19 -18 -73q-30 -10 -60 -10zM313 -11q-65 0 -65 54q0 19 18 73q30 10 60 10q65 0 65 -54q0 -19 -18 -73q-30 -10 -60 -10zM521 -11q-65 0 -65 54q0 19 18 73q30 10 60 10q65 0 65 -54q0 -19 -18 -73
q-30 -10 -60 -10z" />
    <glyph glyph-name="perthousand" unicode="&#x2030;" horiz-adv-x="1346" 
d="M625 661q0 -35 -47.5 -170t-102.5 -303t-69 -270q-7 0 -21 8t-23 17q-24 24 -24 70t54.5 188.5t117.5 310.5t78 256q14 -14 25.5 -43t11.5 -64zM262 606q-45 0 -76.5 -59t-31.5 -126q0 -145 71 -145q46 0 71 56t25 133q0 141 -59 141zM290 656q53 0 84.5 -50.5t31.5 -115
t-19 -124t-64.5 -102.5t-106.5 -43t-103.5 51t-42.5 144.5t40.5 162t106.5 87.5q23 0 31 -18q20 8 42 8zM746 358q-45 0 -76.5 -59t-31.5 -126q0 -145 71 -145q46 0 71 56t25 133q0 141 -59 141zM774 408q53 0 84.5 -50.5t31.5 -115t-19 -124t-64.5 -102.5t-106.5 -43
t-103.5 51t-42.5 144.5t40.5 162t106.5 87.5q23 0 31 -18q20 8 42 8zM1132 358q-45 0 -76.5 -59t-31.5 -126q0 -145 71 -145q46 0 71 56t25 133q0 141 -59 141zM1160 408q53 0 84.5 -50.5t31.5 -115t-19 -124t-64.5 -102.5t-106.5 -43t-103.5 51t-42.5 144.5t40.5 162
t106.5 87.5q23 0 31 -18q20 8 42 8z" />
    <glyph glyph-name="guilsinglleft" unicode="&#x2039;" horiz-adv-x="397" 
d="M222.5 531.5q28.5 32.5 61.5 32.5t68 -45q-30 -10 -59.5 -43t-66 -87t-50.5 -72q11 -19 36 -72.5t47.5 -86.5t49.5 -43q-44 -45 -85 -45q-28 0 -49 32.5t-31.5 73t-28.5 80.5t-40 51l3 20q43 20 96 131q20 41 48.5 73.5z" />
    <glyph glyph-name="guilsinglright" unicode="&#x203a;" horiz-adv-x="397" 
d="M174.5 102.5q-28.5 -32.5 -61.5 -32.5t-68 45q30 10 59.5 43t66 87t50.5 72q-11 19 -36 72.5t-47.5 86.5t-49.5 43q44 45 85 45q28 0 49 -32.5t31.5 -73t28.5 -80.5t40 -51l-3 -20q-43 -20 -97 -131q-19 -41 -47.5 -73.5z" />
    <glyph glyph-name="fraction" unicode="&#x2044;" horiz-adv-x="343" 
d="M316 661q0 -35 -47.5 -170t-102.5 -303t-69 -270q-7 0 -21 8t-23 17q-24 24 -24 70t54.5 188.5t117.5 310.5t78 256q14 -14 25.5 -43t11.5 -64z" />
    <glyph glyph-name="zeroinferior" unicode="&#x2080;" horiz-adv-x="396" 
d="M222 222q-45 0 -76.5 -59t-31.5 -126q0 -145 71 -145q46 0 71 56t25 133q0 141 -59 141zM250 272q53 0 84.5 -50.5t31.5 -115t-19 -124t-64.5 -102.5t-106.5 -43t-103.5 51t-42.5 144.5t40.5 162t106.5 87.5q23 0 31 -18q20 8 42 8z" />
    <glyph glyph-name="oneinferior" unicode="&#x2081;" horiz-adv-x="286" 
d="M226 288q-28 -224 -28 -320t2 -126q-18 -3 -35 -3q-54 0 -54 65q0 61 12.5 158t14.5 120q-50 -28 -76 -28q-15 0 -28.5 23.5t-13.5 40.5q115 27 206 70z" />
    <glyph glyph-name="twoinferior" unicode="&#x2082;" horiz-adv-x="353" 
d="M240 -158l-143 10q-57 0 -104 -19q0 34 21 58t49 30q164 144 164 241q0 33 -17.5 49.5t-41.5 16.5t-39 -14.5t-15 -44.5t20 -55q-11 -4 -31 -4t-39.5 18.5t-19.5 56.5t34 70t93.5 32t100.5 -30.5t41 -87t-48 -120.5t-140 -126q52 -2 77 -2q61 0 111 21q-3 -54 -18.5 -77
t-54.5 -23z" />
    <glyph glyph-name="threeinferior" unicode="&#x2083;" horiz-adv-x="360" 
d="M314 179q0 -33 -19.5 -61.5t-56.5 -42.5q35 -9 58.5 -41t23.5 -67q0 -53 -41 -94.5t-107 -41.5t-101.5 25.5t-35.5 62t16 57.5t45 21q12 0 26 -5q-17 -20 -17 -46t16 -43.5t45 -17.5t51 20t22 51.5t-22.5 54.5t-65.5 28q-11 -2 -29 -4l-5 32q126 17 126 101q0 29 -17 45
t-39.5 16t-37.5 -14t-15 -39t17 -46q-9 -4 -27 -4t-35 16t-17 49.5t31 64t85 30.5t90 -27.5t36 -79.5z" />
    <glyph glyph-name="fourinferior" unicode="&#x2084;" horiz-adv-x="346" 
d="M28 -58q-18 19 -18 38t29 64q101 157 125 270q21 -9 40 -32t19 -42.5t-16 -50.5t-34 -57.5t-50 -70t-46 -64.5q81 2 129 5q5 42 5 93q14 4 33 4q37 0 37 -41q0 -12 -6 -48l39 4q7 -25 7 -36q0 -42 -52 -45q0 -59 6 -91q-16 -3 -39 -3q-46 0 -46 50q0 26 4 45
q-144 2 -166 8z" />
    <glyph glyph-name="fiveinferior" unicode="&#x2085;" horiz-adv-x="343" 
d="M149 -115q39 0 60.5 23t21.5 61.5t-25 66t-75.5 27.5t-82.5 -12l29 177q-16 21 -18 52q59 -7 102 -7q64 0 123 7l17 2q7 -26 7 -41q0 -43 -44 -43q-61 0 -131 19l-17 -111q10 1 30 1q88 0 127.5 -35.5t39.5 -94.5t-47 -102.5t-116.5 -43.5t-99.5 30t-30 64.5t17 57
t44 22.5t49 -11q-39 -21 -39 -59q0 -50 58 -50z" />
    <glyph glyph-name="sixinferior" unicode="&#x2086;" horiz-adv-x="363" 
d="M230 152q21 18 21 40q0 43 -39 43q-32 0 -62.5 -41t-39.5 -121q44 18 92 18t84 -29.5t36 -91.5t-45.5 -100.5t-106.5 -38.5t-100.5 46t-39.5 146t50 182t137 82q49 0 77.5 -26.5t28.5 -56t-15.5 -48t-36.5 -18.5t-41 14zM222.5 -94.5q22.5 25.5 22.5 64t-19 57
t-49.5 18.5t-67.5 -15q-1 -10 -1 -29q0 -62 17.5 -91.5t46 -29.5t51 25.5z" />
    <glyph glyph-name="seveninferior" unicode="&#x2087;" horiz-adv-x="271" 
d="M225 110q-110 -211 -121 -299q-7 0 -21 5.5t-23 11.5q-23 17 -23 49.5t92 188.5q56 97 82 150q-112 -17 -146 -17q-45 0 -45 46q0 21 10 40q79 -12 125.5 -12t80.5 3q17 45 21 74q25 -25 29 -36q10 -25 10 -47.5t-71 -156.5z" />
    <glyph glyph-name="eightinferior" unicode="&#x2088;" horiz-adv-x="361" 
d="M69.5 -138.5q-34.5 30.5 -34.5 70.5t26.5 72t73.5 51q-63 56 -63 112.5t38.5 88t99 31.5t88.5 -30.5t28 -64.5t-23.5 -66.5t-65.5 -55.5q38 -29 58.5 -56.5t20.5 -71t-40.5 -77.5t-106 -34t-100 30.5zM199 4q-8 6 -11 8q-17 15 -25 20q-48 -44 -48 -91q0 -28 14 -44
t40 -16t47 15.5t21 46t-38 61.5zM164.5 220q-16.5 -16 -16.5 -41t15.5 -44.5t45.5 -43.5q46 43 46 87q0 24 -13 41t-37 17t-40.5 -16z" />
    <glyph glyph-name="nineinferior" unicode="&#x2089;" horiz-adv-x="361" 
d="M101 -84q0 -38 41.5 -38t73 42t38.5 135q-36 -28 -88 -28t-88.5 30t-36.5 91.5t45 100t104.5 38.5t100 -46t40.5 -145.5t-51.5 -182t-140.5 -82.5q-51 0 -82.5 26.5t-31.5 56.5t13.5 48t39 18t45.5 -14q-22 -19 -22 -50zM136.5 214.5q-21.5 -23.5 -21.5 -64t19.5 -59
t55 -18.5t65.5 25q0 140 -68 140q-29 0 -50.5 -23.5z" />
    <glyph glyph-name="Euro" unicode="&#x20ac;" 
d="M-23 397l34 -1q39 0 81 6q27 140 117 228.5t228 88.5q71 0 104.5 -33t33.5 -76.5t-27 -75t-73 -31.5q-21 0 -41 7q21 14 35.5 38.5t14.5 48t-15 39t-44 15.5q-77 0 -136 -65.5t-85 -165.5q77 14 117.5 14t62.5 -15.5t32 -53.5q-15 6 -63.5 6t-160.5 -18q-4 -27 -4 -59
v-24q116 19 153 19t59 -15.5t32 -53.5q-15 6 -65.5 6t-170.5 -20q17 -79 60 -119t102 -40q41 0 85 33t84 93q32 -8 32 -33q-84 -167 -243 -167q-81 0 -142.5 55t-82.5 162q-12 -2 -30 -2q-60 0 -68 64l34 -1q27 0 56 3q-1 12 -1 40t1 42q-23 -3 -38 -3q-60 0 -68 64z" />
    <glyph glyph-name="trademark" unicode="&#x2122;" horiz-adv-x="1010" 
d="M684 549q-19 -10 -44.5 -10t-36.5 14q-30 92 -70 193q-22 -162 -22 -257q0 -24 2 -56q-47 0 -63.5 11.5t-16.5 40t19.5 172t19.5 192.5q-20 34 -38 50q26 21 55.5 21t49 -20t46 -80t81.5 -207q61 90 103.5 177t47.5 130q61 -6 75 -25q12 -17 12 -49t-19.5 -161
t-19.5 -183t15 -89q-59 16 -81 40t-22 65t14.5 122t16.5 114zM60 866q0 23 8 44q74 -13 152.5 -13t184.5 23q-7 -44 -37.5 -65t-98.5 -27q-39 -216 -39 -339q0 -42 16 -76q-59 17 -80.5 41.5t-21.5 61.5t4 80t7 68t11 84l11 74q-54 -2 -81 -2q-36 0 -36 46z" />
    <glyph glyph-name="Omega" unicode="&#x2126;" horiz-adv-x="802" 
d="M51 -11l-1 22q0 48 11 71.5t41.5 23.5t68 -6t64 -6t49.5 4l2 41q-63 12 -117 70q-27 29 -43.5 75.5t-16.5 103.5q0 127 71.5 212.5t199.5 119.5q30 0 32 -36q56 16 106 16q86 0 146.5 -66.5t60.5 -184.5t-70.5 -202.5t-188.5 -108.5l-1 -40q21 -4 47 -4t62.5 6t65.5 6
t40 -23.5t11 -71.5q0 -3 -0.5 -10.5t-0.5 -11.5q-41 11 -70 11h-123q-43 0 -56.5 6.5t-17 19.5t-3.5 41.5t9 111.5q70 7 125 82.5t55 177t-41 152t-116 50.5q-97 0 -164.5 -73.5t-67.5 -190.5q0 -79 29.5 -128t82.5 -65q-6 -92 -20 -144q-8 -32 -44 -38q-12 -2 -41 -2h-106
q-29 0 -70 -11z" />
    <glyph glyph-name="partialdiff" unicode="&#x2202;" horiz-adv-x="627" 
d="M472 452l1 31q0 114 -41.5 191t-110.5 77q-25 0 -38.5 -15.5t-13.5 -39t14.5 -48t35.5 -38.5q-20 -7 -41 -7q-44 0 -70.5 31t-26.5 73.5t37.5 77t109.5 34.5q89 0 163 -82q36 -40 58.5 -109.5t22.5 -159t-15.5 -171t-48.5 -154t-94.5 -115.5t-144 -43t-143.5 60.5
t-61 179.5t78.5 192.5t186.5 73.5q76 0 142 -39zM288 47q77 0 124 99.5t58 247.5q-54 30 -110 30q-81 0 -136 -60.5t-55 -156.5q0 -71 29 -115.5t90 -44.5z" />
    <glyph glyph-name="Delta" unicode="&#x2206;" horiz-adv-x="658" 
d="M387 733q76 0 116 -164l116 -455q7 -26 7 -52q0 -44 -27 -62q-107 0 -251.5 -7t-189.5 -7q-95 0 -117 56q43 99 156.5 331t145.5 315q-11 14 -31 34q38 11 75 11zM157 75q51 -2 119.5 -2t139 5.5t101.5 6.5q-1 3 -51.5 212.5t-78.5 299.5q-16 -36 -69 -148
q-105 -224 -161 -374z" />
    <glyph glyph-name="product" unicode="&#x220f;" horiz-adv-x="765" 
d="M254 721l373 12q75 0 99 -23t24 -70q0 -3 -0.5 -9t-0.5 -10q-55 7 -118 10q18 -28 18 -81.5t-33.5 -313t-33.5 -362t12 -132.5q-62 21 -89 63.5t-27 101.5t29 292t29 384q0 33 -1 48q-40 -1 -136 -6t-142 -6q25 -39 25 -96.5t-29 -290.5t-29 -384q0 -32 4 -92
q-73 4 -95 35.5t-22 87.5t33.5 315.5t33.5 375.5q0 33 -1 48q-68 2 -90 25t-22 67q0 4 0.5 10t0.5 10q85 -9 188 -9z" />
    <glyph glyph-name="summation" unicode="&#x2211;" horiz-adv-x="765" 
d="M168 -137q24 -1 63 -1t138 7t164.5 7t92.5 -20t27 -50.5t-7 -51.5q-89 11 -158 11t-158.5 -7t-142.5 -7t-85 20.5t-45 77.5q4 48 79.5 148t238.5 245q-263 268 -263 393q21 58 55.5 78t88 20t142 -7t157 -7t160.5 11q0 -61 -26 -91.5t-99 -30.5t-171 7t-137 7t-63 -1
l270 -379z" />
    <glyph glyph-name="minus" unicode="&#x2212;" 
d="M331 403.5q77 5.5 132.5 5.5t76 -21t20.5 -63q0 -3 -0.5 -9t-0.5 -9q-61 8 -127 8t-143 -5.5t-132.5 -5.5t-76 21t-20.5 63q0 3 0.5 9t0.5 9q61 -8 127 -8t143 5.5z" />
    <glyph glyph-name="radical" unicode="&#x221a;" horiz-adv-x="591" 
d="M497 827q173 0 266 26q4 -32 4 -51t-14 -35t-41 -23q-50 -14 -123 -14q-23 -115 -131 -438.5t-175 -497.5q-22 -14 -76 -14q-25 0 -29 15q-16 64 -37 191.5t-42.5 223t-51.5 144.5q43 26 64 26t36.5 -9.5t26.5 -33t18.5 -49t15.5 -73t13 -87.5q13 -107 32 -239
q60 167 152 516t92 422z" />
    <glyph glyph-name="infinity" unicode="&#x221e;" 
d="M469 515q65 0 102.5 -50t37.5 -138t-40.5 -129t-89.5 -41t-83.5 30.5t-75.5 86.5q-42 -55 -81.5 -86t-87.5 -31q-65 0 -102.5 50t-37.5 138t40.5 129t89 41t83 -30t76.5 -88q42 56 81 87t88 31zM91.5 277q18.5 -25 50.5 -25t59 24.5t63 71.5q-61 73 -117 73
q-31 0 -52.5 -19.5t-21.5 -59.5t18.5 -65zM528.5 395q-18.5 25 -50.5 25t-60 -25t-62 -72q60 -72 117 -72q31 0 52.5 19.5t21.5 59.5t-18.5 65z" />
    <glyph glyph-name="integral" unicode="&#x222b;" horiz-adv-x="454" 
d="M159 -214.5q-47 -43.5 -117.5 -43.5t-103.5 33.5t-33 77t26.5 74.5t70.5 31q21 0 41 -7q-21 -14 -35.5 -38.5t-14.5 -48t12 -39t34 -15.5q44 0 72 43.5t38.5 114.5t18 161.5t10 185t15.5 185t34 161.5t66 114.5t115.5 43.5t105.5 -34t35 -77t-26.5 -74t-70.5 -31
q-21 0 -41 7q21 14 35.5 38.5t14.5 48t-12 39t-35 15.5q-45 0 -72.5 -43.5t-37.5 -114.5t-17 -161.5t-9 -185t-15.5 -185t-35 -161.5t-68.5 -114.5z" />
    <glyph glyph-name="approxequal" unicode="&#x2248;" 
d="M415 388q-42 0 -118 17.5t-104 17.5q-97 0 -134 -45q0 148 146 148q42 0 118 -17.5t104 -17.5q97 0 134 45q0 -148 -146 -148zM415 150q-42 0 -118 17.5t-104 17.5q-97 0 -134 -45q0 148 146 148q42 0 118 -17.5t104 -17.5q97 0 134 45q0 -148 -146 -148z" />
    <glyph glyph-name="notequal" unicode="&#x2260;" 
d="M405 527l51 1q63 0 83.5 -21t20.5 -63q0 -3 -0.5 -9t-0.5 -9q-61 8 -119 8t-67 -1l-52 -150q96 7 147 7t71.5 -21t20.5 -63q0 -3 -0.5 -9t-0.5 -9q-61 8 -127 8t-142 -6q-56 -173 -69 -272q-7 0 -21 8t-23 17q-24 24 -24 68.5t47 173.5h-36q-63 0 -83.5 21t-20.5 63
q0 3 0.5 9t0.5 9q61 -8 158 -8h17q18 48 58 150q-80 -6 -136.5 -6t-77 21t-20.5 63q0 3 0.5 9t0.5 9q61 -8 117 -8t151 5q61 166 74 246q14 -14 25.5 -43t11.5 -62t-35 -136z" />
    <glyph glyph-name="lessequal" unicode="&#x2264;" 
d="M85 365q0 28 19 55q68 32 147.5 86.5t133.5 86.5t93 32t57 -74q-64 -24 -187.5 -98.5t-142.5 -84.5q20 -11 142 -84.5t188 -98.5q-18 -74 -57 -74t-93 32t-133.5 86.5t-147.5 86.5q-19 21 -19 49zM331 28.5q77 5.5 132.5 5.5t76 -21t20.5 -63q0 -3 -0.5 -9t-0.5 -9
q-61 8 -127 8t-143 -5.5t-132.5 -5.5t-76 21t-20.5 63q0 3 0.5 9t0.5 9q61 -8 127 -8t143 5.5z" />
    <glyph glyph-name="greaterequal" unicode="&#x2265;" 
d="M535 371q0 -28 -19 -55q-68 -32 -147.5 -86.5t-133.5 -86.5t-93 -32t-57 74q64 24 187.5 98.5t142.5 84.5q-20 11 -142 84.5t-188 98.5q18 74 57 74t93 -32t133.5 -86.5t147.5 -86.5q19 -21 19 -49zM331 28.5q77 5.5 132.5 5.5t76 -21t20.5 -63q0 -3 -0.5 -9t-0.5 -9
q-61 8 -127 8t-143 -5.5t-132.5 -5.5t-76 21t-20.5 63q0 3 0.5 9t0.5 9q61 -8 127 -8t143 5.5z" />
    <glyph glyph-name="lozenge" unicode="&#x25ca;" horiz-adv-x="517" 
d="M391 329l-113 280l-123 -278l113 -280zM277 -46q-37 0 -56.5 20.5t-40.5 73.5l-111 283l166 375h34q37 0 56.5 -20.5t40.5 -73.5l111 -283l-166 -375h-34z" />
    <glyph glyph-name="apple" unicode="&#xf8ff;" horiz-adv-x="923" 
d="M589 -89l-23 1q-14 0 -31.5 -12t-26.5 -12l-46 10q-8 0 -23.5 -6t-24 -6t-24.5 12.5t-29 12.5l-24 -2q-15 0 -33 17l-18 19q-12 6 -25 7t-22 6.5t-16 23t-12.5 22t-19.5 10t-20 14.5q-5 9 -7 23.5t-6 21t-14 13.5q-22 18 -22 38l3 25q0 9 -12.5 26.5t-12.5 26.5t6 23.5
t6 23t-6 21.5t-6 22t12.5 29.5t12.5 29.5l-1 25q0 15 16.5 29.5t19 19.5t4.5 21t6 22t19.5 12t20.5 11t12 20.5t13.5 21t25.5 9.5t24.5 7t20.5 20t29 18l26 -2q13 0 28.5 11.5t26.5 11.5l44 -12l45 12q13 0 29 -12.5t28 -12.5l28 3q16 0 29 -16.5t19.5 -20t21.5 -6.5
t22.5 -8t12.5 -19t10.5 -19t25.5 -15.5t24.5 -18.5t5 -24t3 -20.5t19.5 -19t17 -30.5l-1 -25q0 -13 12 -31.5t12 -27.5t-5.5 -22t-5.5 -20t5.5 -21.5t5 -22.5t-12.5 -20.5t-12 -26.5l2 -32q0 -16 -16 -29t-18.5 -18t-7 -24t-10 -25.5t-18 -12t-17.5 -10.5t-14 -21.5
t-16 -21.5t-24.5 -9.5t-22.5 -7.5t-18.5 -16.5t-28.5 -13.5zM462 -6l33 -7q6 0 17 7q15 10 27 10l15 -1q12 0 21 10t12.5 12t16.5 5.5t18.5 7.5t12 15.5t10 15t12.5 7.5t13 8.5t7 18.5t5.5 18t13.5 13t11 23l-1 20q0 11 8.5 20.5t9.5 15.5l-8 32l8 28q0 8 -9 22t-9 23l1 17
q0 12 -12 22t-14 14t-2.5 15.5t-3.5 17t-17.5 13t-18.5 11.5t-8 14t-9 14t-16 6t-16 4.5t-14 14.5t-21 12l-20 -2q-9 0 -20 9t-21 9l-33 -9l-32 9q-8 0 -20 -8.5t-22 -8.5l-17 1q-11 0 -21.5 -12.5t-15 -15t-17.5 -5t-18 -6.5t-10 -15t-9 -15t-14.5 -8t-14.5 -9
q-2 -4 -4 -15.5t-4 -15.5t-14 -14.5t-12 -21.5l1 -16q0 -8 -8.5 -23t-8.5 -23l8 -30l-8 -33q0 -8 8.5 -20.5t8.5 -20.5l-2 -16q0 -11 12.5 -22.5t14.5 -15.5t3.5 -14.5t5.5 -17t14 -10.5t14 -7.5t9.5 -16.5t11.5 -17t15.5 -4t15.5 -3t17.5 -15.5t22.5 -12.5l15 1
q10 0 22 -8.5t18 -9.5zM462 417q70 0 120 -49.5t50 -120.5t-50 -120.5t-120 -49.5t-120 49.5t-50 120.5t50 120.5t120 49.5zM505 292h52v68h-191v-68h54v-175h85v175z" />
    <glyph glyph-name="f.alt" horiz-adv-x="408" 
d="M396 548q0 -42 -16 -58t-47 -16h-90q-28 -181 -28 -411q0 -59 2.5 -85.5t13.5 -90.5q-113 45 -113 206q0 188 33 375q-44 -7 -99 -30q-2 16 -2 29q0 47 30 63.5t87 17.5q80 352 260 352q36 0 59 -16t23 -51t-32 -56q-21 30 -63 30q-108 0 -159 -262h15q88 0 124 29
q2 -14 2 -26z" />
    </font>
</defs>
</svg>
