<svg xmlns="http://www.w3.org/2000/svg" version="1.0" viewBox="0 0 512 512">
	<path fill="#FFFFFF"
		  d="M145 9.2c-5.8 4-7.5 7.2-7.5 14.1v6.2l28.8 47.2c15.8 25.9 28.7 47.4 28.7 47.7 0 .3-37.1.6-82.5.6-81.1 0-82.5 0-88 2.1-7.4 2.8-13.2 7.3-17.7 13.9-7.2 10.6-6.8-.1-6.8 174s-.4 163.4 6.8 174c4.5 6.6 10.3 11.1 17.7 13.9l5.6 2.1h451.8l5.6-2.1c7.4-2.8 13.2-7.3 17.7-13.9 7.2-10.6 6.8.1 6.8-174s.4-163.4-6.8-174c-4.5-6.6-10.3-11.1-17.7-13.9-5.5-2.1-6.9-2.1-88-2.1-45.4 0-82.5-.3-82.5-.6s12.9-21.8 28.8-47.7l28.7-47.2v-6.2c0-6.9-1.7-10.1-7.5-14.1-4.6-3.1-11.9-3-17.4.2-3.7 2.2-7.7 8.3-38.5 59L276.6 125h-41.2l-34.5-56.6c-30.8-50.7-34.8-56.8-38.5-59-5.5-3.2-12.8-3.3-17.4-.2zm203.1 179.6c4.3 2.2 5.9 3.8 8.1 8.1l2.8 5.3v225.6l-2.8 5.3c-2.2 4.3-3.8 5.9-8.1 8.1l-5.3 2.8H209.9c-146.7 0-136.7.4-143.7-6.3C59.8 431.5 60 436 60 315c0-121.1-.2-116.5 6.2-122.7 6.9-6.7-3.2-6.2 143.4-6.3h133.2l5.3 2.8zm100.4 27.5c17.2 8 24.8 28.8 16.8 45.8-3.8 8.1-9.1 13.4-17.2 17.2-17 8-37.7.4-45.8-16.8-2.4-5.2-2.8-7.2-2.8-15 0-10.6 1.9-15.8 8.5-22.9 7.9-8.6 15.4-11.7 27-11.3 5.7.2 8.9.9 13.5 3zm-.5 134.3c7.4 3.3 14.2 10.3 17.6 17.8 3.6 7.9 3.8 18.3.5 26.8-2.9 7.5-9.9 14.9-17.6 18.5-5.2 2.4-7.2 2.8-15 2.8s-9.7-.4-14.6-2.8c-6.7-3.2-14.2-10.9-17.2-17.5-3.3-7.3-3.1-20.7.5-28.4 8.2-17.5 28.4-25 45.8-17.2z"/>
</svg>
