<svg width="180.000000pt" height="180.000000pt" viewBox="0 0 180.000000 180.000000" xmlns="http://www.w3.org/2000/svg">
  <g transform="translate(0.000000,180.000000) scale(0.100000,-0.100000)" fill="#6667ab" stroke="none">
    <path d="M0 900 l0 -900 900 0 900 0 0 900 0 900 -900 0 -900 0 0 -900z m731
390 l154 -249 15 -1 c8 0 24 15 35 34 11 18 80 131 154 250 l134 216 93 0 94
0 -82 -127 c-45 -71 -133 -208 -195 -307 -63 -98 -117 -185 -120 -192 l-5 -14
196 -314 c108 -173 196 -317 196 -320 0 -4 -41 -5 -91 -4 l-91 3 -149 240
-148 240 -20 3 -19 3 -152 -245 -153 -246 -95 0 -94 0 18 28 c10 15 98 154
196 310 98 156 178 292 178 302 0 10 -80 146 -178 302 -98 156 -186 295 -196
311 l-18 27 94 0 94 0 155 -250z" />
  </g>
  <g transform="translate(0.000000,180.000000) scale(0.100000,-0.100000)" fill="#fefefe" stroke="none">
    <path d="M387 1518 c11 -18 102 -163 201 -321 100 -158 182 -292 182 -297 0
-5 -82 -139 -182 -297 -99 -158 -190 -303 -201 -320 l-19 -33 109 0 110 0 152
245 c84 135 157 245 162 243 5 -2 76 -111 158 -243 l149 -240 107 -3 107 -3
-6 17 c-4 10 -93 155 -198 323 -105 168 -191 311 -191 316 0 6 31 60 70 120
38 61 126 198 194 305 69 107 129 201 133 208 l7 12 -109 0 -109 0 -134 -216
c-74 -119 -143 -232 -154 -250 -11 -19 -22 -34 -25 -34 -3 1 -74 113 -159 250
l-155 250 -109 0 -109 0 19 -32z" />
  </g>
  <g transform="translate(0.000000,180.000000) scale(0.100000,-0.100000)" fill="#c9c6dd" stroke="none">
    <path d="M474 1543 l109 -4 14 -17 14 -17 -11 23 -11 22 -112 -2 -112 -2 109
-3z" />
    <path d="M1200 1528 l-11 -23 14 17 14 17 109 4 109 3 -112 2 -112 2 -11 -22z" />
    <path d="M389 1515 c5 -11 17 -29 26 -40 l16 -20 -10 20 c-5 11 -17 29 -26 40
l-16 20 10 -20z" />
    <path d="M1404 1518 l-7 -11 11 7 c7 4 12 9 12 12 0 2 -2 4 -4 4 -3 0 -8 -5
-12 -12z" />
    <path d="M615 1490 c3 -5 8 -10 11 -10 3 0 2 5 -1 10 -3 6 -8 10 -11 10 -3 0
-2 -4 1 -10z" />
    <path d="M1174 1488 l-7 -11 11 7 c7 4 12 9 12 12 0 2 -2 4 -4 4 -3 0 -8 -5
-12 -12z" />
    <path d="M1384 1488 l-7 -11 11 7 c7 4 12 9 12 12 0 2 -2 4 -4 4 -3 0 -8 -5
-12 -12z" />
    <path d="M640 1450 c6 -11 13 -20 16 -20 2 0 0 9 -6 20 -6 11 -13 20 -16 20
-2 0 0 -9 6 -20z" />
    <path d="M1150 1450 c-6 -11 -8 -20 -6 -20 3 0 10 9 16 20 6 11 8 20 6 20 -3
0 -10 -9 -16 -20z" />
    <path d="M1360 1450 c-6 -11 -8 -20 -6 -20 3 0 10 9 16 20 6 11 8 20 6 20 -3
0 -10 -9 -16 -20z" />
    <path d="M435 1440 c3 -5 8 -10 11 -10 3 0 2 5 -1 10 -3 6 -8 10 -11 10 -3 0
-2 -4 1 -10z" />
    <path d="M460 1400 c6 -11 13 -20 16 -20 2 0 0 9 -6 20 -6 11 -13 20 -16 20
-2 0 0 -9 6 -20z" />
    <path d="M665 1410 c3 -5 8 -10 11 -10 3 0 2 5 -1 10 -3 6 -8 10 -11 10 -3 0
-2 -4 1 -10z" />
    <path d="M1124 1408 l-7 -11 11 7 c7 4 12 9 12 12 0 2 -2 4 -4 4 -3 0 -8 -5
-12 -12z" />
    <path d="M1334 1408 l-7 -11 11 7 c7 4 12 9 12 12 0 2 -2 4 -4 4 -3 0 -8 -5
-12 -12z" />
    <path d="M1314 1378 l-7 -11 11 7 c7 4 12 9 12 12 0 2 -2 4 -4 4 -3 0 -8 -5
-12 -12z" />
    <path d="M485 1360 c3 -5 8 -10 11 -10 3 0 2 5 -1 10 -3 6 -8 10 -11 10 -3 0
-2 -4 1 -10z" />
    <path d="M695 1360 c3 -5 8 -10 11 -10 3 0 2 5 -1 10 -3 6 -8 10 -11 10 -3 0
-2 -4 1 -10z" />
    <path d="M1094 1358 l-7 -11 11 7 c7 4 12 9 12 12 0 2 -2 4 -4 4 -3 0 -8 -5
-12 -12z" />
    <path d="M1290 1340 c-6 -11 -8 -20 -6 -20 3 0 10 9 16 20 6 11 8 20 6 20 -3
0 -10 -9 -16 -20z" />
    <path d="M510 1320 c6 -11 13 -20 16 -20 2 0 0 9 -6 20 -6 11 -13 20 -16 20
-2 0 0 -9 6 -20z" />
    <path d="M715 1330 c3 -5 8 -10 11 -10 3 0 2 5 -1 10 -3 6 -8 10 -11 10 -3 0
-2 -4 1 -10z" />
    <path d="M1074 1328 l-7 -11 11 7 c7 4 12 9 12 12 0 2 -2 4 -4 4 -3 0 -8 -5
-12 -12z" />
    <path d="M1264 1298 l-7 -11 11 7 c7 4 12 9 12 12 0 2 -2 4 -4 4 -3 0 -8 -5
-12 -12z" />
    <path d="M535 1280 c3 -5 8 -10 11 -10 3 0 2 5 -1 10 -3 6 -8 10 -11 10 -3 0
-2 -4 1 -10z" />
    <path d="M745 1280 c3 -5 8 -10 11 -10 3 0 2 5 -1 10 -3 6 -8 10 -11 10 -3 0
-2 -4 1 -10z" />
    <path d="M1044 1278 l-7 -11 11 7 c7 4 12 9 12 12 0 2 -2 4 -4 4 -3 0 -8 -5
-12 -12z" />
    <path d="M1244 1268 l-7 -11 11 7 c7 4 12 9 12 12 0 2 -2 4 -4 4 -3 0 -8 -5
-12 -12z" />
    <path d="M560 1240 c6 -11 13 -20 16 -20 2 0 0 9 -6 20 -6 11 -13 20 -16 20
-2 0 0 -9 6 -20z" />
    <path d="M765 1250 c3 -5 8 -10 11 -10 3 0 2 5 -1 10 -3 6 -8 10 -11 10 -3 0
-2 -4 1 -10z" />
    <path d="M1024 1248 l-7 -11 11 7 c7 4 12 9 12 12 0 2 -2 4 -4 4 -3 0 -8 -5
-12 -12z" />
    <path d="M1224 1238 l-7 -11 11 7 c7 4 12 9 12 12 0 2 -2 4 -4 4 -3 0 -8 -5
-12 -12z" />
    <path d="M1200 1200 c-6 -11 -8 -20 -6 -20 3 0 10 9 16 20 6 11 8 20 6 20 -3
0 -10 -9 -16 -20z" />
    <path d="M585 1200 c3 -5 8 -10 11 -10 3 0 2 5 -1 10 -3 6 -8 10 -11 10 -3 0
-2 -4 1 -10z" />
    <path d="M795 1200 c3 -5 8 -10 11 -10 3 0 2 5 -1 10 -3 6 -8 10 -11 10 -3 0
-2 -4 1 -10z" />
    <path d="M994 1198 l-7 -11 11 7 c7 4 12 9 12 12 0 2 -2 4 -4 4 -3 0 -8 -5
-12 -12z" />
    <path d="M605 1170 c3 -5 8 -10 11 -10 3 0 2 5 -1 10 -3 6 -8 10 -11 10 -3 0
-2 -4 1 -10z" />
    <path d="M820 1160 c6 -11 13 -20 16 -20 2 0 0 9 -6 20 -6 11 -13 20 -16 20
-2 0 0 -9 6 -20z" />
    <path d="M1174 1158 l-7 -11 11 7 c7 4 12 9 12 12 0 2 -2 4 -4 4 -3 0 -8 -5
-12 -12z" />
    <path d="M964 1148 l-7 -11 11 7 c7 4 12 9 12 12 0 2 -2 4 -4 4 -3 0 -8 -5
-12 -12z" />
    <path d="M1154 1128 l-7 -11 11 7 c7 4 12 9 12 12 0 2 -2 4 -4 4 -3 0 -8 -5
-12 -12z" />
    <path d="M635 1120 c3 -5 8 -10 11 -10 3 0 2 5 -1 10 -3 6 -8 10 -11 10 -3 0
-2 -4 1 -10z" />
    <path d="M845 1120 c3 -5 8 -10 11 -10 3 0 2 5 -1 10 -3 6 -8 10 -11 10 -3 0
-2 -4 1 -10z" />
    <path d="M944 1118 l-7 -11 11 7 c7 4 12 9 12 12 0 2 -2 4 -4 4 -3 0 -8 -5
-12 -12z" />
    <path d="M1134 1098 l-7 -11 11 7 c7 4 12 9 12 12 0 2 -2 4 -4 4 -3 0 -8 -5
-12 -12z" />
    <path d="M655 1090 c3 -5 8 -10 11 -10 3 0 2 5 -1 10 -3 6 -8 10 -11 10 -3 0
-2 -4 1 -10z" />
    <path d="M870 1080 c6 -11 13 -20 16 -20 2 0 0 9 -6 20 -6 11 -13 20 -16 20
-2 0 0 -9 6 -20z" />
    <path d="M920 1080 c-6 -11 -8 -20 -6 -20 3 0 10 9 16 20 6 11 8 20 6 20 -3 0
-10 -9 -16 -20z" />
    <path d="M1114 1068 c-4 -7 -14 -24 -22 -38 l-14 -25 17 20 c9 11 21 28 26 38
5 9 8 17 5 17 -3 0 -8 -6 -12 -12z" />
    <path d="M680 1050 c6 -11 13 -20 16 -20 2 0 0 9 -6 20 -6 11 -13 20 -16 20
-2 0 0 -9 6 -20z" />
    <path d="M893 1043 c4 -3 10 -3 14 0 3 4 0 7 -7 7 -7 0 -10 -3 -7 -7z" />
    <path d="M705 1010 c3 -5 8 -10 11 -10 3 0 2 5 -1 10 -3 6 -8 10 -11 10 -3 0
-2 -4 1 -10z" />
    <path d="M1042 953 l-31 -47 9 -15 c5 -9 16 -25 25 -36 l17 -20 -21 36 -20 35
13 20 c7 10 21 31 31 47 9 15 15 27 12 27 -2 0 -18 -21 -35 -47z" />
    <path d="M735 960 c3 -5 8 -10 11 -10 3 0 2 5 -1 10 -3 6 -8 10 -11 10 -3 0
-2 -4 1 -10z" />
    <path d="M755 930 c3 -5 8 -10 11 -10 3 0 2 5 -1 10 -3 6 -8 10 -11 10 -3 0
-2 -4 1 -10z" />
    <path d="M770 900 c0 -7 3 -10 7 -7 3 4 3 10 0 14 -4 3 -7 0 -7 -7z" />
    <path d="M754 868 l-7 -11 11 7 c7 4 12 9 12 12 0 2 -2 4 -4 4 -3 0 -8 -5 -12
-12z" />
    <path d="M734 838 l-7 -11 11 7 c7 4 12 9 12 12 0 2 -2 4 -4 4 -3 0 -8 -5 -12
-12z" />
    <path d="M1065 820 c3 -5 8 -10 11 -10 3 0 2 5 -1 10 -3 6 -8 10 -11 10 -3 0
-2 -4 1 -10z" />
    <path d="M704 788 l-7 -11 11 7 c7 4 12 9 12 12 0 2 -2 4 -4 4 -3 0 -8 -5 -12
-12z" />
    <path d="M1090 780 c6 -11 13 -20 16 -20 2 0 0 9 -6 20 -6 11 -13 20 -16 20
-2 0 0 -9 6 -20z" />
    <path d="M680 750 c-6 -11 -8 -20 -6 -20 3 0 10 9 16 20 6 11 8 20 6 20 -3 0
-10 -9 -16 -20z" />
    <path d="M886 742 c-2 -4 4 -8 14 -8 10 0 16 4 14 8 -3 4 -9 8 -14 8 -5 0 -11
-4 -14 -8z" />
    <path d="M1115 740 c3 -5 8 -10 11 -10 3 0 2 5 -1 10 -3 6 -8 10 -11 10 -3 0
-2 -4 1 -10z" />
    <path d="M654 708 l-7 -11 11 7 c7 4 12 9 12 12 0 2 -2 4 -4 4 -3 0 -8 -5 -12
-12z" />
    <path d="M864 708 l-7 -11 11 7 c7 4 12 9 12 12 0 2 -2 4 -4 4 -3 0 -8 -5 -12
-12z" />
    <path d="M925 710 c3 -5 8 -10 11 -10 3 0 2 5 -1 10 -3 6 -8 10 -11 10 -3 0
-2 -4 1 -10z" />
    <path d="M1140 700 c6 -11 13 -20 16 -20 2 0 0 9 -6 20 -6 11 -13 20 -16 20
-2 0 0 -9 6 -20z" />
    <path d="M634 678 l-7 -11 11 7 c7 4 12 9 12 12 0 2 -2 4 -4 4 -3 0 -8 -5 -12
-12z" />
    <path d="M844 678 l-7 -11 11 7 c7 4 12 9 12 12 0 2 -2 4 -4 4 -3 0 -8 -5 -12
-12z" />
    <path d="M950 670 c6 -11 13 -20 16 -20 2 0 0 9 -6 20 -6 11 -13 20 -16 20 -2
0 0 -9 6 -20z" />
    <path d="M1169 655 c5 -11 17 -29 26 -40 l16 -20 -10 20 c-5 11 -17 29 -26 40
l-16 20 10 -20z" />
    <path d="M604 628 l-7 -11 11 7 c7 4 12 9 12 12 0 2 -2 4 -4 4 -3 0 -8 -5 -12
-12z" />
    <path d="M814 628 l-7 -11 11 7 c7 4 12 9 12 12 0 2 -2 4 -4 4 -3 0 -8 -5 -12
-12z" />
    <path d="M980 620 c6 -11 13 -20 16 -20 2 0 0 9 -6 20 -6 11 -13 20 -16 20 -2
0 0 -9 6 -20z" />
    <path d="M584 598 l-7 -11 11 7 c7 4 12 9 12 12 0 2 -2 4 -4 4 -3 0 -8 -5 -12
-12z" />
    <path d="M790 590 c-6 -11 -8 -20 -6 -20 3 0 10 9 16 20 6 11 8 20 6 20 -3 0
-10 -9 -16 -20z" />
    <path d="M1005 580 c3 -5 8 -10 11 -10 3 0 2 5 -1 10 -3 6 -8 10 -11 10 -3 0
-2 -4 1 -10z" />
    <path d="M1219 575 c5 -11 17 -29 26 -40 l16 -20 -10 20 c-5 11 -17 29 -26 40
l-16 20 10 -20z" />
    <path d="M560 560 c-6 -11 -8 -20 -6 -20 3 0 10 9 16 20 6 11 8 20 6 20 -3 0
-10 -9 -16 -20z" />
    <path d="M764 548 l-7 -11 11 7 c7 4 12 9 12 12 0 2 -2 4 -4 4 -3 0 -8 -5 -12
-12z" />
    <path d="M1030 540 c6 -11 13 -20 16 -20 2 0 0 9 -6 20 -6 11 -13 20 -16 20
-2 0 0 -9 6 -20z" />
    <path d="M534 518 l-7 -11 11 7 c7 4 12 9 12 12 0 2 -2 4 -4 4 -3 0 -8 -5 -12
-12z" />
    <path d="M734 498 l-7 -11 11 7 c7 4 12 9 12 12 0 2 -2 4 -4 4 -3 0 -8 -5 -12
-12z" />
    <path d="M1055 500 c3 -5 8 -10 11 -10 3 0 2 5 -1 10 -3 6 -8 10 -11 10 -3 0
-2 -4 1 -10z" />
    <path d="M1265 500 c3 -5 8 -10 11 -10 3 0 2 5 -1 10 -3 6 -8 10 -11 10 -3 0
-2 -4 1 -10z" />
    <path d="M510 480 c-6 -11 -8 -20 -6 -20 3 0 10 9 16 20 6 11 8 20 6 20 -3 0
-10 -9 -16 -20z" />
    <path d="M714 468 l-7 -11 11 7 c7 4 12 9 12 12 0 2 -2 4 -4 4 -3 0 -8 -5 -12
-12z" />
    <path d="M1080 460 c6 -11 13 -20 16 -20 2 0 0 9 -6 20 -6 11 -13 20 -16 20
-2 0 0 -9 6 -20z" />
    <path d="M1290 460 c6 -11 13 -20 16 -20 2 0 0 9 -6 20 -6 11 -13 20 -16 20
-2 0 0 -9 6 -20z" />
    <path d="M484 438 l-7 -11 11 7 c7 4 12 9 12 12 0 2 -2 4 -4 4 -3 0 -8 -5 -12
-12z" />
    <path d="M690 430 c-6 -11 -8 -20 -6 -20 3 0 10 9 16 20 6 11 8 20 6 20 -3 0
-10 -9 -16 -20z" />
    <path d="M1110 410 c6 -11 13 -20 16 -20 2 0 0 9 -6 20 -6 11 -13 20 -16 20
-2 0 0 -9 6 -20z" />
    <path d="M1315 420 c3 -5 8 -10 11 -10 3 0 2 5 -1 10 -3 6 -8 10 -11 10 -3 0
-2 -4 1 -10z" />
    <path d="M460 400 c-6 -11 -8 -20 -6 -20 3 0 10 9 16 20 6 11 8 20 6 20 -3 0
-10 -9 -16 -20z" />
    <path d="M664 388 l-7 -11 11 7 c7 4 12 9 12 12 0 2 -2 4 -4 4 -3 0 -8 -5 -12
-12z" />
    <path d="M1340 380 c6 -11 13 -20 16 -20 2 0 0 9 -6 20 -6 11 -13 20 -16 20
-2 0 0 -9 6 -20z" />
    <path d="M1135 370 c3 -5 8 -10 11 -10 3 0 2 5 -1 10 -3 6 -8 10 -11 10 -3 0
-2 -4 1 -10z" />
    <path d="M434 358 l-7 -11 11 7 c7 4 12 9 12 12 0 2 -2 4 -4 4 -3 0 -8 -5 -12
-12z" />
    <path d="M640 350 c-6 -11 -8 -20 -6 -20 3 0 10 9 16 20 6 11 8 20 6 20 -3 0
-10 -9 -16 -20z" />
    <path d="M1160 330 c6 -11 13 -20 16 -20 2 0 0 9 -6 20 -6 11 -13 20 -16 20
-2 0 0 -9 6 -20z" />
    <path d="M1370 331 c5 -11 15 -23 21 -27 6 -3 3 5 -6 20 -10 14 -19 26 -22 26
-2 0 1 -9 7 -19z" />
    <path d="M414 328 c-4 -7 -14 -24 -22 -38 l-14 -25 17 20 c9 11 21 28 26 38 5
9 8 17 5 17 -3 0 -8 -6 -12 -12z" />
    <path d="M614 308 l-7 -11 11 7 c7 4 12 9 12 12 0 2 -2 4 -4 4 -3 0 -8 -5 -12
-12z" />
    <path d="M1185 290 c3 -5 8 -10 11 -10 3 0 2 5 -1 10 -3 6 -8 10 -11 10 -3 0
-2 -4 1 -10z" />
    <path d="M593 275 l-8 -14 -110 -4 -110 -3 112 -2 112 -2 11 20 c6 11 9 20 6
20 -3 0 -9 -7 -13 -15z" />
    <path d="M1207 258 c2 -5 51 -8 109 -8 57 0 104 3 104 8 0 4 -49 7 -109 7 -60
0 -107 -3 -104 -7z" />
  </g>
</svg>